<?xml version="1.0" encoding="utf-8"?>
<!-- Generator: Adobe Illustrator 26.2.0, SVG Export Plug-In . SVG Version: 6.00 Build 0)  -->
<svg version="1.1" xmlns="http://www.w3.org/2000/svg" xmlns:xlink="http://www.w3.org/1999/xlink" x="0px" y="0px"
	 viewBox="0 0 25 25" style="enable-background:new 0 0 25 25;" xml:space="preserve">
<style type="text/css">
	.st0{clip-path:url(#SVGID_00000072969110743478348040000015809472680046752394_);}
	
		.st1{clip-path:url(#SVGID_00000072969110743478348040000015809472680046752394_);fill:url(#SVGID_00000091007822756005463730000000629531138837830318_);}
	
		.st2{opacity:0.4;clip-path:url(#SVGID_00000072969110743478348040000015809472680046752394_);fill:url(#SVGID_00000048490927220696233160000016700334030546143675_);}
	.st3{fill:#CCCCCC;}
	.st4{fill:#E6E7E8;}
	.st5{fill:none;stroke:#999999;stroke-miterlimit:10;}
	.st6{opacity:0.3;fill:#E25D22;}
	.st7{fill:none;stroke:#E25D22;stroke-width:2;stroke-miterlimit:10;}
	.st8{fill:#FFFFFF;}
	.st9{fill:#E25D22;}
	.st10{opacity:0.5;fill:#FFFFFF;}
	.st11{fill:none;}
	.st12{display:none;}
	.st13{display:inline;fill:#FF931E;}
	.st14{display:inline;}
	.st15{fill:none;stroke:#1D1D1B;stroke-width:2;stroke-miterlimit:10;}
	.st16{fill:#1D1D1B;}
	.st17{fill:#FF931E;stroke:#1D1D1B;stroke-miterlimit:10;}
</style>
<g id="IMG_CONTENT">
	<g id="all">
		<defs>
			<rect id="SVGID_1_" x="-443.7" y="-1229.2" width="1280" height="945"/>
		</defs>
		<clipPath id="SVGID_00000181776591941935477700000016542510507149310359_">
			<use xlink:href="#SVGID_1_"  style="overflow:visible;"/>
		</clipPath>
		<g id="packing.tif" style="clip-path:url(#SVGID_00000181776591941935477700000016542510507149310359_);">
			
				<image style="overflow:visible;" width="1280" height="960" id="packing" xlink:href="../../../Volumes/Walkgrove/CURRENT PROJECTS/BTW/BTW26 - CIMIC/6_Graphics/wip/PREFINISHED MAPLE.jpg"  transform="matrix(1.071 0 0 1.071 -491.7333 -1270.5101)">
			</image>
		</g>
		
			<linearGradient id="SVGID_00000106852737030527439320000017654951979908584884_" gradientUnits="userSpaceOnUse" x1="76.7214" y1="-1244.7646" x2="722.2483" y2="-356.0663" gradientTransform="matrix(1.6432 0 0 1.1935 -461.4704 195.3245)">
			<stop  offset="0" style="stop-color:#FFFFFF;stop-opacity:0.95"/>
			<stop  offset="0.4949" style="stop-color:#FFFFFF;stop-opacity:0"/>
		</linearGradient>
		
			<rect x="-445.1" y="-1232.5" style="clip-path:url(#SVGID_00000181776591941935477700000016542510507149310359_);fill:url(#SVGID_00000106852737030527439320000017654951979908584884_);" width="1280" height="945"/>
		
			<radialGradient id="SVGID_00000015317015455266541460000012317741480213419678_" cx="400.2963" cy="-797.6227" r="392.6988" gradientTransform="matrix(1.6432 0 0 1.1935 -461.4704 195.3245)" gradientUnits="userSpaceOnUse">
			<stop  offset="0.5744" style="stop-color:#161412;stop-opacity:0"/>
			<stop  offset="0.7977" style="stop-color:#161412;stop-opacity:0.6512"/>
			<stop  offset="1" style="stop-color:#161412;stop-opacity:0.95"/>
		</radialGradient>
		
			<rect x="-443.7" y="-1229.2" style="opacity:0.4;clip-path:url(#SVGID_00000181776591941935477700000016542510507149310359_);fill:url(#SVGID_00000015317015455266541460000012317741480213419678_);" width="1280" height="945"/>
		<g style="clip-path:url(#SVGID_00000181776591941935477700000016542510507149310359_);">
			
				<image style="overflow:visible;opacity:0.4;" width="519" height="722" xlink:href="67C5718E803C24F.png"  transform="matrix(1 0 0 1 -21.9692 -1226.4268)">
			</image>
			<g>
				
					<image style="overflow:visible;" width="849" height="1210" xlink:href="../../../Volumes/Walkgrove/CURRENT PROJECTS/BTW/BTW1/6_Graphics/01_Travel Wise/wip/Links_DO_NOT_DELETE/flyer_mockup_INNER.jpg"  transform="matrix(0.5625 0 0 0.5625 -13.0331 -1209.1768)">
				</image>
			</g>
		</g>
		<g id="FOLDED_LEAFLET" style="clip-path:url(#SVGID_00000181776591941935477700000016542510507149310359_);">
			
				<image style="overflow:visible;" width="2043" height="1654" xlink:href="../../../Volumes/Walkgrove/CURRENT PROJECTS/BTW/BTW26 - CIMIC/6_Graphics/wip/Folded-Mockup_OUTER_SHADOW.png"  transform="matrix(0.308 -8.252247e-02 8.265002e-02 0.3085 68.3317 -570.1348)">
			</image>
			
				<image style="overflow:visible;" width="2043" height="1654" xlink:href="../../../Volumes/Walkgrove/CURRENT PROJECTS/BTW/BTW1/6_Graphics/01_Travel Wise/wip/Links_DO_NOT_DELETE/Folded-Mockup_OUTER.png"  transform="matrix(0.308 -8.252247e-02 8.265002e-02 0.3085 68.3317 -570.1348)">
			</image>
		</g>
	</g>
	<rect id="BAR_BTM" x="-473.7" y="-264.2" class="st3" width="1340" height="10"/>
	<rect id="BAR_TOP" x="-473.7" y="-1259.2" class="st3" width="1340" height="10"/>
</g>
<g id="OVERLAYS">
	<g>
		<g>
			<rect x="501.3" y="-983.2" class="st4" width="305" height="410"/>
		</g>
		<g>
			<rect x="520.8" y="-962.7" class="st5" width="265" height="360"/>
			<line class="st5" x1="521.3" y1="-654.7" x2="786.3" y2="-654.7"/>
			<line class="st5" x1="521.3" y1="-677.7" x2="786.3" y2="-677.7"/>
			<line class="st5" x1="521.3" y1="-701.7" x2="786.3" y2="-701.7"/>
			<line class="st5" x1="521.3" y1="-724.7" x2="786.3" y2="-724.7"/>
			<line class="st5" x1="521.3" y1="-748.7" x2="786.3" y2="-748.7"/>
			<line class="st5" x1="521.3" y1="-772.7" x2="786.3" y2="-772.7"/>
			<line class="st5" x1="521.3" y1="-795.7" x2="786.3" y2="-795.7"/>
			<line class="st5" x1="521.3" y1="-819.7" x2="786.3" y2="-819.7"/>
			<line class="st5" x1="521.3" y1="-842.7" x2="786.3" y2="-842.7"/>
			<line class="st5" x1="521.3" y1="-937.7" x2="786.3" y2="-937.7"/>
			<line class="st5" x1="712.8" y1="-963.2" x2="712.8" y2="-603.2"/>
		</g>
	</g>
	<polygon class="st6" points="134.3,-1003.2 -53.7,-983.2 -53.7,-528.2 317.3,-794.2 134.3,-794.2 	"/>
	<g id="INNER">
		<g>
			<rect x="-423.7" y="-983.2" class="st4" width="370" height="455"/>
		</g>
	</g>
	<rect x="134.3" y="-1003.2" class="st7" width="183" height="208.3"/>
</g>
<g id="FWD_BTN">
</g>
<g id="TEXT_CONTENT">
	<rect x="-413.7" y="-1080.7" class="st11" width="375.1" height="97.5"/>
	<text transform="matrix(1 0 0 1 -413.7195 -1067.7673)"><tspan x="0" y="0" style="font-family:'ArialMT'; font-size:18px;">Let’s recap the things you  </tspan><tspan x="0" y="21.6" style="font-family:'ArialMT'; font-size:18px;">need to think about: </tspan></text>
	<rect x="-413.7" y="-490.8" class="st11" width="375.1" height="28.7"/>
	<text transform="matrix(1 0 0 1 -413.7195 -477.8645)" style="font-family:'Arial-BoldMT'; font-size:18px;">Select the arrow for more information</text>
	<rect x="501.3" y="-1119.2" class="st11" width="313.1" height="106.6"/>
	<text transform="matrix(1 0 0 1 501.2805 -1106.2886)"><tspan x="0" y="0" style="font-family:'ArialMT'; font-size:18px;">And the things you need to remember </tspan><tspan x="0" y="21.6" style="font-family:'ArialMT'; font-size:18px;">to pack…..</tspan><tspan x="0" y="64.8" style="font-family:'ArialMT'; font-size:18px;">You can print these checklists from the </tspan><tspan x="0" y="86.4" style="font-family:'ArialMT'; font-size:18px;">resources section on the main menu.</tspan></text>
	<rect x="-413.7" y="-1119.2" class="st11" width="386.4" height="29"/>
	
		<text id="SCR_Title" transform="matrix(1 0 0 1 -413.7192 -1102.0889)" style="font-family:'AkzidenzGrotesk-Black'; font-size:24px;">Checklist</text>
	<g id="fwd_btn_1_">
		
			<image style="overflow:visible;opacity:0.7;" width="111" height="111" xlink:href="67C5718E803C247.png"  transform="matrix(1 0 0 1 170.2808 -532.1768)">
		</image>
		<g>
			<path class="st8" d="M226.2-502c-13.8,0-25,11.2-25,25c0,13.8,11.2,25,25,25c13.8,0,25-11.2,25-25C251.2-490.8,240-502,226.2-502
				z M245.2-477l-4,4l-9.8,9.8c-1.1,1.1-2.9,1.1-4,0c-1.1-1.1-1.1-2.9,0-4l7.1-7.1h-24.7c-1.7,0-3-1.3-3-3s1.3-3,3-3h24.1l-6.4-6.4
				c-1.1-1.1-1.1-2.9,0-4c1.1-1.1,2.9-1.1,4,0l9.8,9.8L245.2-477z"/>
		</g>
	</g>
	<rect x="-392.1" y="-949.1" class="st11" width="313.3" height="385.9"/>
	<text transform="matrix(1 0 0 1 -392.0657 -936.2854)"><tspan x="0" y="0" style="fill:#231F20; font-family:'AkzidenzGroteskCE-Black'; font-size:18px;">From your itinerary:</tspan><tspan x="0" y="43.2" style="fill:#231F20; font-family:'AkzidenzGroteskCE-Roman'; font-size:18px;">Where are you going?</tspan><tspan x="0" y="74.8" style="fill:#231F20; font-family:'AkzidenzGroteskCE-Roman'; font-size:18px;">•</tspan><tspan x="5.1" y="74.8" style="fill:#231F20; font-family:'AkzidenzGroteskCE-Roman'; font-size:18px; letter-spacing:19;">	</tspan><tspan x="28.3" y="74.8" style="fill:#231F20; font-family:'AkzidenzGroteskCE-Roman'; font-size:18px;">Documents</tspan><tspan x="0" y="96.4" style="fill:#231F20; font-family:'AkzidenzGroteskCE-Roman'; font-size:18px;">•</tspan><tspan x="5.1" y="96.4" style="fill:#231F20; font-family:'AkzidenzGroteskCE-Roman'; font-size:18px; letter-spacing:19;">	</tspan><tspan x="28.3" y="96.4" style="fill:#231F20; font-family:'AkzidenzGroteskCE-Roman'; font-size:18px;">Country &amp; Culture</tspan><tspan x="0" y="118" style="fill:#231F20; font-family:'AkzidenzGroteskCE-Roman'; font-size:18px;">•</tspan><tspan x="5.1" y="118" style="fill:#231F20; font-family:'AkzidenzGroteskCE-Roman'; font-size:18px; letter-spacing:19;">	</tspan><tspan x="28.3" y="118" style="fill:#231F20; font-family:'AkzidenzGroteskCE-Roman'; font-size:18px;">Health</tspan><tspan x="0" y="139.6" style="fill:#231F20; font-family:'AkzidenzGroteskCE-Roman'; font-size:18px;">•</tspan><tspan x="5.1" y="139.6" style="fill:#231F20; font-family:'AkzidenzGroteskCE-Roman'; font-size:18px; letter-spacing:19;">	</tspan><tspan x="28.3" y="139.6" style="fill:#231F20; font-family:'AkzidenzGroteskCE-Roman'; font-size:18px;">Insurance</tspan><tspan x="0" y="182.8" style="fill:#231F20; font-family:'AkzidenzGroteskCE-Roman'; font-size:18px;">When are you going and for how long?</tspan><tspan x="0" y="214.4" style="fill:#231F20; font-family:'AkzidenzGroteskCE-Roman'; font-size:18px;">•</tspan><tspan x="5.1" y="214.4" style="fill:#231F20; font-family:'AkzidenzGroteskCE-Roman'; font-size:18px; letter-spacing:19;">	</tspan><tspan x="28.3" y="214.4" style="fill:#231F20; font-family:'AkzidenzGroteskCE-Roman'; font-size:18px;">Accommodation</tspan><tspan x="0" y="236" style="fill:#231F20; font-family:'AkzidenzGroteskCE-Roman'; font-size:18px;">•</tspan><tspan x="5.1" y="236" style="fill:#231F20; font-family:'AkzidenzGroteskCE-Roman'; font-size:18px; letter-spacing:19;">	</tspan><tspan x="28.3" y="236" style="fill:#231F20; font-family:'AkzidenzGroteskCE-Roman'; font-size:18px;">Journey management</tspan><tspan x="0" y="257.6" style="fill:#231F20; font-family:'AkzidenzGroteskCE-Roman'; font-size:18px;">•</tspan><tspan x="5.1" y="257.6" style="fill:#231F20; font-family:'AkzidenzGroteskCE-Roman'; font-size:18px; letter-spacing:19;">	</tspan><tspan x="28.3" y="257.6" style="fill:#231F20; font-family:'AkzidenzGroteskCE-Roman'; font-size:18px;">Finance</tspan><tspan x="0" y="279.2" style="fill:#231F20; font-family:'AkzidenzGroteskCE-Roman'; font-size:18px;">•</tspan><tspan x="5.1" y="279.2" style="fill:#231F20; font-family:'AkzidenzGroteskCE-Roman'; font-size:18px; letter-spacing:19;">	</tspan><tspan x="28.3" y="279.2" style="fill:#231F20; font-family:'AkzidenzGroteskCE-Roman'; font-size:18px;">Home preparation</tspan><tspan x="0" y="322.4" style="fill:#231F20; font-family:'AkzidenzGroteskCE-Roman'; font-size:18px;">Who can help you?</tspan><tspan x="0" y="354" style="fill:#231F20; font-family:'AkzidenzGroteskCE-Roman'; font-size:18px;">•</tspan><tspan x="5.1" y="354" style="fill:#231F20; font-family:'AkzidenzGroteskCE-Roman'; font-size:18px; letter-spacing:19;">	</tspan><tspan x="28.3" y="354" style="fill:#231F20; font-family:'AkzidenzGroteskCE-Roman'; font-size:18px;">Contacts</tspan></text>
	<rect x="531.3" y="-957.6" class="st11" width="76.5" height="19.2"/>
	<text transform="matrix(1 0 0 1 531.2808 -944.7057)" style="font-family:'Arial-BoldMT'; font-size:18px;">Item</text>
	<rect x="723.3" y="-957.6" class="st11" width="76.5" height="19.2"/>
	<text transform="matrix(1 0 0 1 723.2808 -944.7057)" style="font-family:'Arial-BoldMT'; font-size:18px;">Check</text>
	<rect x="531.3" y="-927.6" class="st11" width="152" height="84.2"/>
	<text transform="matrix(1 0 0 1 531.2808 -916.1374)"><tspan x="0" y="0" style="font-family:'ArialMT'; font-size:16px;">Clothes suitable for:</tspan><tspan x="0" y="19.2" style="font-family:'ArialMT'; font-size:16px;">•</tspan><tspan x="5.6" y="19.2" style="font-family:'ArialMT'; font-size:16px; letter-spacing:14;">	</tspan><tspan x="25" y="19.2" style="font-family:'ArialMT'; font-size:16px;">climate</tspan><tspan x="0" y="38.4" style="font-family:'ArialMT'; font-size:16px;">•</tspan><tspan x="5.6" y="38.4" style="font-family:'ArialMT'; font-size:16px; letter-spacing:14;">	</tspan><tspan x="25" y="38.4" style="font-family:'ArialMT'; font-size:16px;">business  </tspan><tspan x="0" y="57.6" style="font-family:'ArialMT'; font-size:16px; letter-spacing:20;">	</tspan><tspan x="25" y="57.6" style="font-family:'ArialMT'; font-size:16px;">environment</tspan></text>
	<rect x="531.3" y="-837.6" class="st11" width="175.5" height="230.2"/>
	<text transform="matrix(1 0 0 1 531.2808 -826.1374)"><tspan x="0" y="0" style="font-family:'ArialMT'; font-size:16px;">Wash kit</tspan><tspan x="0" y="23.8" style="font-family:'ArialMT'; font-size:16px;">First aid kit</tspan><tspan x="0" y="47.5" style="font-family:'ArialMT'; font-size:16px;">Prescription drugs</tspan><tspan x="0" y="71.2" style="font-family:'ArialMT'; font-size:16px;">Glasses/Contact Lenses</tspan><tspan x="0" y="95" style="font-family:'ArialMT'; font-size:16px;">Torch</tspan><tspan x="0" y="118.8" style="font-family:'ArialMT'; font-size:16px;">Door wedge</tspan><tspan x="0" y="142.5" style="font-family:'ArialMT'; font-size:16px;">Personal alarm</tspan><tspan x="0" y="166.2" style="font-family:'ArialMT'; font-size:16px;">Emergency contact card</tspan><tspan x="0" y="190" style="font-family:'ArialMT'; font-size:16px;">Emergency charger  </tspan><tspan x="0" y="213.8" style="font-family:'ArialMT'; font-size:16px;">for phone</tspan></text>
	<rect x="712.8" y="-897.6" class="st11" width="73" height="17.4"/>
	<text transform="matrix(1 0 0 1 737.7964 -881.6935)" class="st9" style="font-family:'Wingdings2'; font-size:30px;">P</text>
	<rect x="712.8" y="-836.6" class="st11" width="72.7" height="230.2"/>
	<text transform="matrix(1 0 0 1 737.6304 -820.6935)"><tspan x="0" y="0" class="st9" style="font-family:'Wingdings2'; font-size:30px;">P</tspan><tspan x="0" y="23.8" class="st9" style="font-family:'Wingdings2'; font-size:30px;">P</tspan><tspan x="0" y="47.5" class="st9" style="font-family:'Wingdings2'; font-size:30px;">P</tspan><tspan x="0" y="71.2" class="st9" style="font-family:'Wingdings2'; font-size:30px;">P</tspan><tspan x="0" y="95" class="st9" style="font-family:'Wingdings2'; font-size:30px;">P</tspan><tspan x="0" y="118.8" class="st9" style="font-family:'Wingdings2'; font-size:30px;">P</tspan><tspan x="0" y="142.5" class="st9" style="font-family:'Wingdings2'; font-size:30px;">P</tspan><tspan x="0" y="166.2" class="st9" style="font-family:'Wingdings2'; font-size:30px;">P</tspan><tspan x="0" y="190" class="st9" style="font-family:'Wingdings2'; font-size:30px;">P</tspan></text>
	<g>
		<path class="st9" d="M21.9,3l0.4,0.8c-2.9,2-5.5,4.6-8,7.7s-4.2,6.1-5.3,9.1l-0.6,0.4c-0.6,0.4-1,0.7-1.4,1.1
			c-0.1-0.4-0.3-0.9-0.6-1.7l-0.3-0.8c-0.7-1.8-1.4-3.1-1.9-3.8s-1-1.1-1.6-1.2c0.8-0.7,1.5-1.1,2.1-1.1c0.8,0,1.7,1.1,2.7,3.3
			l0.5,1.2c1.7-3.1,3.8-5.9,6.3-8.6C16.6,6.7,19.2,4.6,21.9,3z"/>
	</g>
</g>
<g id="SCR_TITLE">
	<rect x="-413.7" y="-1195.2" class="st11" width="222.8" height="28.3"/>
	<text id="LOGO" transform="matrix(1 0 0 1 -413.7192 -1169.545)"><tspan x="0" y="0" class="st9" style="font-family:'AkzidenzGrotesk-Black'; font-size:36px;">be</tspan><tspan x="42.2" y="0" style="font-family:'AkzidenzGrotesk-Black'; font-size:36px;">Prepared</tspan></text>
</g>
<g id="RTN_BTN_1_">
	<g id="RTN_BTN">
		
			<image style="overflow:visible;opacity:0.7;" width="100" height="100" xlink:href="67C5718E803C258.png"  transform="matrix(1 0 0 1 736.2808 -1239.1768)">
		</image>
		<g>
			<g>
				<rect x="796.3" y="-1209.2" class="st8" width="10" height="10"/>
				<rect x="781.3" y="-1209.2" class="st8" width="10" height="10"/>
				<rect x="766.3" y="-1209.2" class="st8" width="10" height="10"/>
				<rect x="796.3" y="-1194.2" class="st8" width="10" height="10"/>
				<rect x="781.3" y="-1194.2" class="st10" width="10" height="10"/>
				<rect x="766.3" y="-1194.2" class="st8" width="10" height="10"/>
				<rect x="796.3" y="-1179.2" class="st8" width="10" height="10"/>
				<rect x="781.3" y="-1179.2" class="st8" width="10" height="10"/>
				<rect x="766.3" y="-1179.2" class="st8" width="10" height="10"/>
			</g>
		</g>
	</g>
</g>
<g id="SLICES">
	<rect id="_x3C_Slice_x3E_" x="-443.7" y="-1229.2" class="st11" width="1280" height="945"/>
	<rect id="_x3C_Slice_x3E__1_" x="-423.7" y="-1004.2" class="st11" width="742" height="476"/>
	<rect id="_x3C_Slice_x3E__2_" x="501.3" y="-983.2" class="st11" width="305" height="410"/>
</g>
<g id="TEXT_NOTES">
	<rect x="-161.1" y="-905.4" class="st11" width="107.4" height="39.8"/>
	<text transform="matrix(1 0 0 1 -161.149 -895.4379)"><tspan x="0" y="0" style="fill:#FF0000; font-family:'MyriadPro-Regular'; font-size:14px;">Arial Regular </tspan><tspan x="0" y="16.8" style="fill:#FF0000; font-family:'MyriadPro-Regular'; font-size:14px;">18pt  - #000000</tspan></text>
	<rect x="-413.7" y="-462.4" class="st11" width="107.4" height="39.8"/>
	<text transform="matrix(1 0 0 1 -413.7194 -452.4301)"><tspan x="0" y="0" style="fill:#FF0000; font-family:'MyriadPro-Regular'; font-size:14px;">Arial Bold </tspan><tspan x="0" y="16.8" style="fill:#FF0000; font-family:'MyriadPro-Regular'; font-size:14px;">18pt  - #000000</tspan></text>
	<rect x="671.6" y="-880.2" class="st11" width="99.7" height="39.8"/>
	<text transform="matrix(1 0 0 1 671.5658 -870.2368)"><tspan x="0" y="0" style="fill:#FF0000; font-family:'MyriadPro-Regular'; font-size:14px;">Arial Regular </tspan><tspan x="0" y="16.8" style="fill:#FF0000; font-family:'MyriadPro-Regular'; font-size:14px;">16pt  - #000000</tspan></text>
	<rect x="593.6" y="-978.2" class="st11" width="99.7" height="39.8"/>
	<text transform="matrix(1 0 0 1 593.5658 -968.2224)"><tspan x="0" y="0" style="fill:#FF0000; font-family:'MyriadPro-Regular'; font-size:14px;">Arial Bold </tspan><tspan x="0" y="16.8" style="fill:#FF0000; font-family:'MyriadPro-Regular'; font-size:14px;">18pt  - #000000</tspan></text>
</g>
<g id="GUIDES" class="st12">
	<g>
		<line class="st13" x1="-377.7" y1="-1259.2" x2="-377.7" y2="-1195.2"/>
		<g class="st14">
			<line class="st15" x1="-377.7" y1="-1257.2" x2="-377.7" y2="-1197.2"/>
			<g>
				<polygon class="st16" points="-380.7,-1252.9 -377.2,-1256.3 -373.7,-1252.9 -373.7,-1255.8 -377.2,-1259.2 -380.7,-1255.8 				
					"/>
			</g>
			<g>
				<polygon class="st16" points="-380.7,-1201.4 -377.2,-1198.1 -373.7,-1201.4 -373.7,-1198.6 -377.2,-1195.2 -380.7,-1198.6 				
					"/>
			</g>
		</g>
	</g>
	<g>
		<line class="st13" x1="-473.7" y1="-1151.2" x2="-413.7" y2="-1151.2"/>
		<g class="st14">
			<line class="st15" x1="-471.7" y1="-1151.2" x2="-415.7" y2="-1151.2"/>
			<g>
				<polygon class="st16" points="-467.6,-1148.2 -470.9,-1151.2 -467.6,-1154.2 -470.4,-1154.2 -473.7,-1151.2 -470.4,-1148.2 				
					"/>
			</g>
			<g>
				<polygon class="st16" points="-419.8,-1148.2 -416.5,-1151.2 -419.8,-1154.2 -417,-1154.2 -413.7,-1151.2 -417,-1148.2 				"/>
			</g>
		</g>
	</g>
	<rect x="-444.1" y="-1214.8" style="display:inline;fill:none;" width="126.7" height="25.7"/>
	<text transform="matrix(1 0 0 1 -444.0527 -1204.8193)" style="fill:#FF931E; font-family:'ArialMT'; font-size:14px;">150px</text>
	<g>
		<line class="st13" x1="-453.7" y1="-1259.2" x2="-453.7" y2="-1109.2"/>
		<g class="st14">
			<line class="st15" x1="-453.7" y1="-1257.2" x2="-453.7" y2="-1111.2"/>
			<g>
				<polygon class="st16" points="-456.7,-1252.9 -453.2,-1256.3 -449.7,-1252.9 -449.7,-1255.8 -453.2,-1259.2 -456.7,-1255.8 				
					"/>
			</g>
			<g>
				<polygon class="st16" points="-456.7,-1115.4 -453.2,-1112.1 -449.7,-1115.4 -449.7,-1112.6 -453.2,-1109.2 -456.7,-1112.6 				
					"/>
			</g>
		</g>
	</g>
	<line class="st17" x1="-473.7" y1="-1108.7" x2="-441.7" y2="-1108.7"/>
	<line class="st17" x1="-414.2" y1="-1169.2" x2="-414.2" y2="-1109.2"/>
	<rect x="-368.1" y="-1220.8" style="display:inline;fill:none;" width="34" height="25.7"/>
	<text transform="matrix(1 0 0 1 -368.0527 -1210.8193)" style="fill:#FF931E; font-family:'ArialMT'; font-size:14px;">64px</text>
	<rect x="-450.7" y="-1143.2" style="display:inline;fill:none;" width="34" height="25.7"/>
	<text transform="matrix(1 0 0 1 -450.7194 -1133.1527)" style="fill:#FF931E; font-family:'ArialMT'; font-size:14px;">60px</text>
</g>
</svg>
