<?xml version="1.0" encoding="utf-8"?>
<!-- Generator: Adobe Illustrator 26.3.1, SVG Export Plug-In . SVG Version: 6.00 Build 0)  -->
<svg version="1.1" id="INTRODUCTION" xmlns="http://www.w3.org/2000/svg" xmlns:xlink="http://www.w3.org/1999/xlink" x="0px"
	 y="0px" viewBox="0 0 500 500" style="enable-background:new 0 0 500 500;" xml:space="preserve">
<style type="text/css">
	.st0{opacity:0.5;}
	.st1{fill:#FFFFFF;}
	.st2{fill-rule:evenodd;clip-rule:evenodd;}
	.st3{fill-rule:evenodd;clip-rule:evenodd;fill:#FFFFFF;}
</style>
<g>
	<g class="st0">
		<path class="st2" d="M336.6,63.4c12.5-5.7,45,19.5,53.7,26.2c90.4,70.1,111.7,210.8,48.2,307c-20.1,30.5-56.5,68-89.6,79.5
			c-13.8,4.8-24.8-4.1-21.7-19c3.8-18.3,47.6-16.3,87.9-81.7c5.3-8.5,10.3-18,14.1-27.8c29.1-73.5,14.7-144.6-27.2-201.7
			c-10.8-14.8-29.2-30.3-44.3-40.2c-5.5-3.6-23.5-12-27.1-15.8C321.1,79.8,327.1,67.7,336.6,63.4z M308.2,128.5
			c26.7-12.1,149.9,97.5,71.6,229.4c-9.4,15.8-39.6,47.2-60.7,53.5c-21.2,6.3-27.5-20.8-12.1-30c15.6-9.3,21.3-12.4,33.3-23.5
			c42.5-39.5,47.4-125.3,3.6-171.1c-11.4-11.9-15.5-17.1-31.5-25.4C289.5,149.5,297.6,133.3,308.2,128.5z M258.5,117.2
			c-0.3,44.9,1.9,93.4-0.2,137.7l-0.1,11.4l0.3,9.6l0,25.5c-0.7,46.9-0.2,94.5,0,141.5c0.2,33-18.1,33.8-34,17.9l-70.5-70.8
			c-20.9-20.7-23.5-30.1-41-30.2c-94.3-0.4-86.8,11.7-87.1-52.4c0.1-26.4-1.1-52.8-1-79.2c0-15,3.5-27.1,19.4-28.2
			c22.1-1.5,48.1,0.5,70.7,0.2c14.6-0.2,14.7-5.1,22.6-13.2l86.7-87.9C239,84.4,258.7,82.9,258.5,117.2z M270.1,215.8
			c-2.4-10.3,1.9-17.6,9.1-20.5c12.3-4.8,30.9,14.7,35.6,21.3c40,57,1.4,120.2-26.2,128c-17.1,4.9-27.8-20-9-31.1
			c11.7-6.9,22.4-20.6,23.8-37.8c1.8-20.9-7.3-37.1-17.2-44.8C279.3,225.6,272.1,224.3,270.1,215.8z"/>
	</g>
	<g>
		<path class="st3" d="M336.6,43.4c12.5-5.7,45,19.5,53.7,26.2c90.4,70.1,111.7,210.8,48.2,307c-20.1,30.5-56.5,68-89.6,79.5
			c-13.8,4.8-24.8-4.1-21.7-19c3.8-18.3,47.6-16.3,87.9-81.7c5.3-8.5,10.3-18,14.1-27.8c29.1-73.5,14.7-144.6-27.2-201.7
			c-10.8-14.8-29.2-30.3-44.3-40.2c-5.5-3.6-23.5-12-27.1-15.8C321.1,59.8,327.1,47.7,336.6,43.4z M308.2,108.5
			c26.7-12.1,149.9,97.5,71.6,229.4c-9.4,15.8-39.6,47.2-60.7,53.5c-21.2,6.3-27.5-20.8-12.1-30c15.6-9.3,21.3-12.4,33.3-23.5
			c42.5-39.5,47.4-125.3,3.6-171.1c-11.4-11.9-15.5-17.1-31.5-25.4C289.5,129.5,297.6,113.3,308.2,108.5z M258.5,97.2
			c-0.3,44.9,1.9,93.4-0.2,137.7l-0.1,11.4l0.3,9.6l0,25.5c-0.7,46.9-0.2,94.5,0,141.5c0.2,33-18.1,33.8-34,17.9l-70.5-70.8
			c-20.9-20.7-23.5-30.1-41-30.2c-94.3-0.4-86.8,11.7-87.1-52.4c0.1-26.4-1.1-52.8-1-79.2c0-15,3.5-27.1,19.4-28.2
			c22.1-1.5,48.1,0.5,70.7,0.2c14.6-0.2,14.7-5.1,22.6-13.2l86.7-87.9C239,64.4,258.7,62.9,258.5,97.2z M270.1,195.8
			c-2.4-10.3,1.9-17.6,9.1-20.5c12.3-4.8,30.9,14.7,35.6,21.3c40,57,1.4,120.2-26.2,128c-17.1,4.9-27.8-20-9-31.1
			c11.7-6.9,22.4-20.6,23.8-37.8c1.8-20.9-7.3-37.1-17.2-44.8C279.3,205.6,272.1,204.3,270.1,195.8z"/>
	</g>
</g>
</svg>
