<?xml version="1.0" encoding="utf-8"?>
<!-- Generator: Adobe Illustrator 26.2.0, SVG Export Plug-In . SVG Version: 6.00 Build 0)  -->
<svg version="1.1" xmlns="http://www.w3.org/2000/svg" xmlns:xlink="http://www.w3.org/1999/xlink" x="0px" y="0px"
	 viewBox="0 0 55 55" style="enable-background:new 0 0 55 55;" xml:space="preserve">
<style type="text/css">
	.st0{display:none;}
	.st1{display:inline;}
	
		.st2{display:inline;opacity:0.5;clip-path:url(#SVGID_00000120524661765882118550000004297867399278571156_);fill:url(#SVGID_00000165224550013818596820000006836668343868016284_);}
	
		.st3{display:inline;opacity:0.4;clip-path:url(#SVGID_00000120524661765882118550000004297867399278571156_);fill:url(#SVGID_00000121240999888167159760000016073845423141980093_);}
	.st4{fill:#E25D22;}
	.st5{display:none;fill:#E25D22;}
	.st6{fill:#E25D22;}
	.st7{fill:#FFFFFF;}
	.st8{opacity:0.5;fill:#FFFFFF;}
	.st9{fill:none;stroke:#1D1D1B;stroke-width:2;stroke-miterlimit:10;}
	.st10{fill:#1D1D1B;}
	.st11{fill:none;stroke:#1D1D1B;stroke-miterlimit:10;}
</style>
<g id="IMG_CONTENT">
</g>
<g id="carousel_indicators">
	<path id="ARR_R_00000153698407856814143470000003947370248711929480_" class="st4" d="M27.5,2.5c13.8,0,25,11.2,25,25
		s-11.2,25-25,25s-25-11.2-25-25S13.7,2.5,27.5,2.5z M19.7,28.6L33.1,42c0.6,0.6,1.6,0.6,2.2,0v0c0.6-0.6,0.6-1.6,0-2.2L24.1,28.6
		c-0.6-0.6-0.6-1.6,0-2.2l11.2-11.2c0.6-0.6,0.6-1.6,0-2.2l0,0c-0.6-0.6-1.6-0.6-2.2,0L19.7,26.4C19.1,27,19.1,28,19.7,28.6z"/>
</g>
<g id="TEXT_CONTENT">
</g>
<g id="SCR_TITLE">
</g>
<g id="RTN_BTN_1_">
</g>
<g id="SLICES">
</g>
<g id="TEXT_NOTES" class="st0">
</g>
<g id="GUIDES" class="st0">
</g>
</svg>
