<?xml version="1.0" encoding="utf-8"?>
<!-- Generator: Adobe Illustrator 26.2.0, SVG Export Plug-In . SVG Version: 6.00 Build 0)  -->
<svg version="1.1" xmlns="http://www.w3.org/2000/svg" xmlns:xlink="http://www.w3.org/1999/xlink" x="0px" y="0px"
	 viewBox="0 0 20 30" style="enable-background:new 0 0 20 30;" xml:space="preserve">
<style type="text/css">
	.st0{clip-path:url(#SVGID_00000043451560873500732230000014601615377827445684_);}
	.st1{fill:#E56825;}
	.st2{opacity:0.8;}
	.st3{fill:url(#SVGID_00000018940808687099401480000003536931807372833670_);}
	.st4{fill:#CACACA;}
	
		.st5{display:none;opacity:0.75;clip-path:url(#SVGID_00000043425573183921694170000004085167077998613929_);fill:url(#SVGID_00000120524508888751501500000005955337701577722512_);}
	.st6{clip-path:url(#SVGID_00000043425573183921694170000004085167077998613929_);}
	.st7{clip-path:url(#SVGID_00000002362411087030512490000001598084901819981449_);}
	.st8{clip-path:url(#SVGID_00000094581590613927887000000007711294816477436818_);}
	
		.st9{display:none;opacity:0.75;clip-path:url(#SVGID_00000094581590613927887000000007711294816477436818_);fill:url(#SVGID_00000080904189838467120330000011449916819179295872_);}
	.st10{clip-path:url(#SVGID_00000094581590613927887000000007711294816477436818_);fill:#FFFFFF;}
	.st11{fill:#E05D22;}
	.st12{opacity:0.5;}
	.st13{fill:#FFFFFF;}
	.st14{opacity:0.6;clip-path:url(#SVGID_00000157284314717925538470000011898027789623674272_);fill:#E05D22;}
	.st15{fill:none;stroke:#E05D22;stroke-width:2.2814;stroke-linecap:round;stroke-linejoin:round;stroke-miterlimit:10;}
	.st16{clip-path:url(#SVGID_00000084523849381959108610000008981527673240805002_);}
	.st17{clip-path:url(#SVGID_00000152246129438436853480000017628645510923879846_);}
	.st18{clip-path:url(#SVGID_00000030461563627112737130000001401148103252392371_);}
	.st19{opacity:0.6;clip-path:url(#SVGID_00000030461563627112737130000001401148103252392371_);fill:#E05D22;}
	.st20{clip-path:url(#SVGID_00000136378809973975505160000011622431656490081441_);}
	.st21{clip-path:url(#SVGID_00000135667014652235933170000009722111270269763746_);}
	.st22{fill:#E25E26;}
	.st23{fill:#1D1D1B;}
	.st24{opacity:0.6;fill:#E05D22;}
</style>
<g id="Tiles">
	<g id="images">
		<g id="Menu_tiles">
			<defs>
				<rect id="SVGID_1_" x="-1510.1" y="-1142.9" width="340" height="265"/>
			</defs>
			<clipPath id="SVGID_00000163069073547484814450000003822622667525291950_">
				<use xlink:href="#SVGID_1_"  style="overflow:visible;"/>
			</clipPath>
			<g style="clip-path:url(#SVGID_00000163069073547484814450000003822622667525291950_);">
				
					<image style="overflow:visible;" width="6496" height="4331" id="_x30_1_x5F_01" xlink:href="C94FA2F60910C53B.jpg"  transform="matrix(6.557377e-02 0 0 6.557377e-02 -1516.0658 -1147.8999)">
				</image>
			</g>
			<g transform="matrix(1 0 0 1 0 0)" style="clip-path:url(#SVGID_00000163069073547484814450000003822622667525291950_);">
				
					<image style="overflow:visible;" width="1169" height="570" id="_x30_1_x5F_02" xlink:href="C94FA2F60910C539.jpg"  transform="matrix(0.6211 0 0 0.6211 -1888.0658 -1226.4037)">
				</image>
			</g>
			<g style="clip-path:url(#SVGID_00000163069073547484814450000003822622667525291950_);">
				
					<image style="overflow:visible;" width="5760" height="3840" id="_x30_1_x5F_03" xlink:href="C94FA2F60910C53F.jpg"  transform="matrix(7.500000e-02 0 0 7.500000e-02 -1567.5658 -1156.8999)">
				</image>
			</g>
			<g style="clip-path:url(#SVGID_00000163069073547484814450000003822622667525291950_);">
				
					<image style="overflow:visible;" width="1920" height="2880" id="_x30_1_x5F_04" xlink:href="C94FA2F60910C538.jpg"  transform="matrix(0.1856 0 0 0.1856 -1517.0658 -1372.3999)">
				</image>
			</g>
			<g style="clip-path:url(#SVGID_00000163069073547484814450000003822622667525291950_);">
				
					<image style="overflow:visible;" width="1920" height="1080" id="_x30_1_x5F_05" xlink:href="C94FA2F60910C536.jpg"  transform="matrix(0.2568 0 0 0.2568 -1577.0658 -1149.3999)">
				</image>
			</g>
			<g style="clip-path:url(#SVGID_00000163069073547484814450000003822622667525291950_);">
				
					<image style="overflow:visible;" width="1280" height="715" id="_x30_2_x5F_01" xlink:href="C94FA2F60910C537.jpg"  transform="matrix(0.5812 0 0 0.5812 -1521.8073 -1170.0261)">
				</image>
			</g>
			<g style="clip-path:url(#SVGID_00000163069073547484814450000003822622667525291950_);">
				
					<image style="overflow:visible;" width="593" height="438" id="_x30_2_x5F_02" xlink:href="C94FA2F60910C547.jpg"  transform="matrix(1.0077 0 0 1.0077 -1515.9706 -1154.245)">
				</image>
			</g>
			<g id="_x30_2_x5F_03" style="clip-path:url(#SVGID_00000163069073547484814450000003822622667525291950_);">
				
					<image style="overflow:visible;" width="1014" height="572" id="dLG370_00000014603918361213471260000010106030467351926659_" xlink:href="C94FA2F60910C549.png"  transform="matrix(0.4284 0 0 0.4284 -1556.2836 -1143.1589)">
				</image>
				<polygon class="st1" points="-1556.3,-929.1 -1398.1,-929.5 -1398.1,-914.1 -1278.1,-914.4 -1278.1,-929.5 -1121.9,-929.5 
					-1121.9,-871.5 -1559.8,-871.5 				"/>
			</g>
			<g style="clip-path:url(#SVGID_00000163069073547484814450000003822622667525291950_);">
				
					<image style="overflow:visible;" width="1014" height="572" id="_x30_2_x5F_04" xlink:href="C94FA2F60910C54B.png"  transform="matrix(0.5268 0 0 0.5268 -1657.0658 -1149.2058)">
				</image>
			</g>
			<g style="clip-path:url(#SVGID_00000163069073547484814450000003822622667525291950_);">
				
					<image style="overflow:visible;" width="340" height="265" id="_x30_2_x5F_05" xlink:href="../../../BTW1/6_Graphics/01_Travel Wise/assets/00_01_menu/02_bePrepared/00_01_Menu2_Prep_Checklist_o.png"  transform="matrix(1.0078 0 0 1.0078 -1510.9315 -1144.1667)">
				</image>
			</g>
			
				<g transform="matrix(1 0 0 1 0 -1.220703e-04)" style="clip-path:url(#SVGID_00000163069073547484814450000003822622667525291950_);">
				
					<image style="overflow:visible;" width="3826" height="2140" id="_x30_3_x5F_01" xlink:href="18828D8F4F6C8198.png"  transform="matrix(0.129 0 0 0.129 -1549.494 -1144.1935)">
				</image>
			</g>
			<g style="clip-path:url(#SVGID_00000163069073547484814450000003822622667525291950_);">
				
					<image style="overflow:visible;" width="3826" height="2140" id="_x30_3_x5F_02" xlink:href="18828D8F4F6C8199.png"  transform="matrix(0.2334 0 0 0.2334 -1778.494 -1293.1935)">
				</image>
			</g>
			<g style="clip-path:url(#SVGID_00000163069073547484814450000003822622667525291950_);">
				
					<image style="overflow:visible;" width="3826" height="2140" id="_x30_3_x5F_03" xlink:href="18828D8F4F6C819B.png"  transform="matrix(0.1528 0 0 0.1528 -1575.4227 -1154.1935)">
				</image>
			</g>
			<g style="clip-path:url(#SVGID_00000163069073547484814450000003822622667525291950_);">
				
					<image style="overflow:visible;" width="1280" height="945" id="_x30_3_x5F_04" xlink:href="18828D8F4F6C8198.jpg"  transform="matrix(0.2868 0 0 0.2868 -1534.5627 -1145.1935)">
				</image>
			</g>
			<g style="clip-path:url(#SVGID_00000163069073547484814450000003822622667525291950_);">
				
					<image style="overflow:visible;" width="3348" height="2746" id="_x30_3_x5F_05" xlink:href="18828D8F4F6C8187.jpg"  transform="matrix(0.1067 0 0 0.1067 -1516.494 -1161.1935)">
				</image>
			</g>
			<g style="clip-path:url(#SVGID_00000163069073547484814450000003822622667525291950_);">
				
					<image style="overflow:visible;" width="3826" height="2140" id="_x30_3_x5F_06" xlink:href="18828D8F4F6C8188.png"  transform="matrix(0.1271 0 0 0.1271 -1582.494 -1144.1935)">
				</image>
			</g>
			<g style="clip-path:url(#SVGID_00000163069073547484814450000003822622667525291950_);">
				
					<image style="overflow:visible;" width="1808" height="2800" id="_x30_3_x5F_07" xlink:href="18828D8F4F6C8188.jpg"  transform="matrix(0.1936 0 0 0.1936 -1516.494 -1146.1935)">
				</image>
			</g>
			<g style="clip-path:url(#SVGID_00000163069073547484814450000003822622667525291950_);">
				
					<image style="overflow:visible;" width="4814" height="3103" id="_x30_4_x5F_01" xlink:href="18828D8F4F6C8189.jpg"  transform="matrix(9.152063e-02 0 0 9.152063e-02 -1519.3928 -1153.6758)">
				</image>
			</g>
			<g style="clip-path:url(#SVGID_00000163069073547484814450000003822622667525291950_);">
				
					<image style="overflow:visible;" width="4200" height="2800" id="_x30_4_x5F_02" xlink:href="18828D8F4F6C818F.jpg"  transform="matrix(0.1011 0 0 0.1011 -1531.1755 -1152.6758)">
				</image>
			</g>
			<g style="clip-path:url(#SVGID_00000163069073547484814450000003822622667525291950_);">
				
					<image style="overflow:visible;" width="5184" height="3456" id="_x30_4_x5F_03" xlink:href="18828D8F4F6C81A3.jpg"  transform="matrix(8.333334e-02 0 0 8.333334e-02 -1514.9255 -1149.6758)">
				</image>
			</g>
			<g style="clip-path:url(#SVGID_00000163069073547484814450000003822622667525291950_);">
				
					<image style="overflow:visible;" width="1017" height="551" id="_x30_5_x5F_01" xlink:href="18828D8F4F6C81AD.png"  transform="matrix(0.5329 0 0 0.5329 -1513.994 -1154.1758)">
				</image>
			</g>
			<g style="clip-path:url(#SVGID_00000163069073547484814450000003822622667525291950_);">
				
					<image style="overflow:visible;" width="1017" height="551" id="_x30_5_x5F_02" xlink:href="18828D8F4F6C81AF.png"  transform="matrix(0.5152 0 0 0.5152 -1603.994 -1148.0735)">
				</image>
			</g>
			<g style="clip-path:url(#SVGID_00000163069073547484814450000003822622667525291950_);">
				
					<image style="overflow:visible;" width="1017" height="551" id="_x30_5_x5F_03" xlink:href="18828D8F4F6C81A2.png"  transform="matrix(0.5318 0 0 0.5318 -1534.8942 -1156.1758)">
				</image>
			</g>
		</g>
		<g id="Filler_tiles">
			<defs>
				<rect id="SVGID_00000085968196575521455390000000816938091270549433_" x="-1157.8" y="-1142.1" width="340" height="265"/>
			</defs>
			<clipPath id="SVGID_00000030481373713091709000000011950783826141496487_">
				<use xlink:href="#SVGID_00000085968196575521455390000000816938091270549433_"  style="overflow:visible;"/>
			</clipPath>
			<g style="clip-path:url(#SVGID_00000030481373713091709000000011950783826141496487_);">
				
					<image style="overflow:visible;" width="3097" height="1831" id="_x30_1" xlink:href="18828D8F4F6C81A2.jpg"  transform="matrix(0.1562 0 0 0.1562 -1247.0658 -1158.8999)">
				</image>
			</g>
			<g style="clip-path:url(#SVGID_00000030481373713091709000000011950783826141496487_);">
				
					<image style="overflow:visible;" width="2000" height="1335" id="_x30_2" xlink:href="18828D8F4F6C81A5.jpg"  transform="matrix(0.2068 0 0 0.2068 -1223.0658 -1148.7573)">
				</image>
			</g>
			<g style="clip-path:url(#SVGID_00000030481373713091709000000011950783826141496487_);">
				
					<image style="overflow:visible;" width="3900" height="2600" id="_x30_3" xlink:href="18828D8F4F6C81A7.jpg"  transform="matrix(0.15 0 0 0.15 -1170.0658 -1148.8999)">
				</image>
			</g>
			<g style="display:none;clip-path:url(#SVGID_00000030481373713091709000000011950783826141496487_);">
				
					<image style="display:inline;overflow:visible;" width="5472" height="3648" id="_x30_4" xlink:href="18828D8F4F6C81A0.jpg"  transform="matrix(9.100877e-02 0 0 9.100877e-02 -1204.5658 -1202.8999)">
				</image>
			</g>
			<g style="clip-path:url(#SVGID_00000030481373713091709000000011950783826141496487_);">
				
					<image style="overflow:visible;" width="5304" height="3537" id="_x30_5" xlink:href="18828D8F4F6C81A1.jpg"  transform="matrix(0.1035 0 0 0.1035 -1170.0658 -1146.8999)">
				</image>
			</g>
			<g style="clip-path:url(#SVGID_00000030481373713091709000000011950783826141496487_);">
				
					<image style="overflow:visible;" width="5000" height="3337" id="_x30_6" xlink:href="18828D8F4F6C81DD.jpg"  transform="matrix(0.1087 0 0 0.1087 -1340.0658 -1180.8999)">
				</image>
			</g>
		</g>
	</g>
	<g id="states">
		<g id="START_STATES" class="st2">
			<g id="_x31__00000169547448512420967130000004417831112784668301_">
				
					<linearGradient id="SVGID_00000021811590972731626600000010926935820862328734_" gradientUnits="userSpaceOnUse" x1="-1510.0658" y1="-1010.3999" x2="-1170.0658" y2="-1010.3999">
					<stop  offset="0" style="stop-color:#000000"/>
					<stop  offset="0.8178" style="stop-color:#FFFFFF"/>
				</linearGradient>
				
					<rect x="-1510.1" y="-1142.9" style="fill:url(#SVGID_00000021811590972731626600000010926935820862328734_);" width="340" height="265"/>
			</g>
		</g>
	</g>
</g>
<g id="ZTMP">
	<g>
		<g id="_x31__00000101817309052571646810000014662477588700072631_">
			<rect x="-515.8" y="-924.7" width="340" height="157"/>
		</g>
		<g id="_x32__00000173868777854531537740000015817972212904649866_">
			<rect x="184.2" y="-923.7" width="340" height="169"/>
		</g>
		<g id="_x33__00000028289550790641153880000015689473812557585324_">
			<rect x="-165.8" y="-380.7" width="340" height="176"/>
		</g>
		
			<rect id="BAR_BTM_00000071544414267492979530000002225683571253398147_" x="-785.8" y="-146.7" class="st4" width="1340" height="10"/>
		<g id="_x30_7_-_Slct_00000096024781236458390980000015436932132182561439_">
			<defs>
				<rect id="SVGID_00000140721164165448983110000009424534192241814711_" x="-165.8" y="-446.7" width="340" height="242"/>
			</defs>
			<clipPath id="SVGID_00000089564090446043454400000015348788370866466177_">
				<use xlink:href="#SVGID_00000140721164165448983110000009424534192241814711_"  style="overflow:visible;"/>
			</clipPath>
			
				<g transform="matrix(1 0 0 1 0 3.051758e-05)" style="clip-path:url(#SVGID_00000089564090446043454400000015348788370866466177_);">
				
					<image style="overflow:visible;" width="1920" height="1080" xlink:href="18828D8F4F6C81C2.jpg"  transform="matrix(0.1803 0 0 0.1803 -170.8178 -449.7143)">
				</image>
			</g>
			
				<linearGradient id="SVGID_00000162336970195689733590000000949197765983195017_" gradientUnits="userSpaceOnUse" x1="-158.7293" y1="-310.5769" x2="-158.7293" y2="-510.5769" gradientTransform="matrix(1.1333 0 0 1.325 184.0754 206.8)">
				<stop  offset="0" style="stop-color:#010000"/>
				<stop  offset="8.442867e-02" style="stop-color:#1A0A04;stop-opacity:0.9156"/>
				<stop  offset="0.3347" style="stop-color:#60280E;stop-opacity:0.6653"/>
				<stop  offset="0.5604" style="stop-color:#973F17;stop-opacity:0.4396"/>
				<stop  offset="0.7535" style="stop-color:#BF4F1D;stop-opacity:0.2465"/>
				<stop  offset="0.9063" style="stop-color:#D75921;stop-opacity:9.367311e-02"/>
				<stop  offset="1" style="stop-color:#E05D22;stop-opacity:0"/>
			</linearGradient>
			
				<rect x="-165.8" y="-469.7" style="display:none;opacity:0.75;clip-path:url(#SVGID_00000089564090446043454400000015348788370866466177_);fill:url(#SVGID_00000162336970195689733590000000949197765983195017_);" width="340" height="265"/>
			
				<rect x="-167.3" y="-278.2" style="clip-path:url(#SVGID_00000089564090446043454400000015348788370866466177_);" width="344" height="75"/>
		</g>
		<g id="_x30_3_-_Slct_00000039813874536016618980000015645017180553446804_">
			<defs>
				<rect id="SVGID_00000159439691505661957070000008096790609252606594_" x="184.2" y="-924.7" width="340" height="231"/>
			</defs>
			<clipPath id="SVGID_00000103222649786180036680000008804482821941972415_">
				<use xlink:href="#SVGID_00000159439691505661957070000008096790609252606594_"  style="overflow:visible;"/>
			</clipPath>
			<g style="clip-path:url(#SVGID_00000103222649786180036680000008804482821941972415_);">
				
					<image style="overflow:visible;" width="6645" height="4435" xlink:href="18828D8F4F6C81FD.jpg"  transform="matrix(6.141857e-02 0 0 6.141857e-02 170.0558 -981.7372)">
				</image>
			</g>
			
				<rect x="181.7" y="-764.2" style="clip-path:url(#SVGID_00000103222649786180036680000008804482821941972415_);" width="344" height="75"/>
		</g>
		<g id="_x30_1_-_Slct_00000025440705834223593310000007501658436861163911_">
			<defs>
				<rect id="SVGID_00000106139708313114928850000000022168777041245855_" x="-515.8" y="-924.7" width="340" height="231"/>
			</defs>
			<clipPath id="SVGID_00000031917840064954689640000001854438075093786044_">
				<use xlink:href="#SVGID_00000106139708313114928850000000022168777041245855_"  style="overflow:visible;"/>
			</clipPath>
			
				<g id="STATIC_4_00000003783238317414715660000005994570481604970671_" style="clip-path:url(#SVGID_00000031917840064954689640000001854438075093786044_);">
				<defs>
					<rect id="SVGID_00000075878338764772941310000003039775641209209522_" x="-525.8" y="-966.7" width="416" height="277"/>
				</defs>
				<clipPath id="SVGID_00000019673072484234176400000002810123509655385267_">
					<use xlink:href="#SVGID_00000075878338764772941310000003039775641209209522_"  style="overflow:visible;"/>
				</clipPath>
				<g style="clip-path:url(#SVGID_00000019673072484234176400000002810123509655385267_);">
					
						<image style="overflow:visible;" width="2000" height="1381" xlink:href="18828D8F4F6C81FE.jpg"  transform="matrix(0.22 0 0 0.22 -538.8178 -1003.7144)">
					</image>
				</g>
			</g>
			
				<linearGradient id="SVGID_00000010993560464866115250000004264263884663428490_" gradientUnits="userSpaceOnUse" x1="-467.5529" y1="-725.6712" x2="-467.5529" y2="-925.6712" gradientTransform="matrix(1.1333 0 0 1.325 184.0754 206.8)">
				<stop  offset="0" style="stop-color:#010000"/>
				<stop  offset="8.442867e-02" style="stop-color:#1A0A04;stop-opacity:0.9156"/>
				<stop  offset="0.3347" style="stop-color:#60280E;stop-opacity:0.6653"/>
				<stop  offset="0.5604" style="stop-color:#973F17;stop-opacity:0.4396"/>
				<stop  offset="0.7535" style="stop-color:#BF4F1D;stop-opacity:0.2465"/>
				<stop  offset="0.9063" style="stop-color:#D75921;stop-opacity:9.367311e-02"/>
				<stop  offset="1" style="stop-color:#E05D22;stop-opacity:0"/>
			</linearGradient>
			
				<rect x="-515.8" y="-1019.7" style="display:none;opacity:0.75;clip-path:url(#SVGID_00000031917840064954689640000001854438075093786044_);fill:url(#SVGID_00000010993560464866115250000004264263884663428490_);" width="340" height="265"/>
			
				<rect x="-517.3" y="-767.2" style="clip-path:url(#SVGID_00000031917840064954689640000001854438075093786044_);" width="344" height="75"/>
			
				<rect x="-234.8" y="-768.2" style="clip-path:url(#SVGID_00000031917840064954689640000001854438075093786044_);fill:#FFFFFF;" width="61.5" height="75"/>
		</g>
		<g id="MENU_TEXT_00000149379838051973780730000005116344434386978231_">
			<path id="Arrow_00000004519731617891617860000011492839448761590672_" class="st11" d="M-196.4-732.3l-11.2,11.2
				c-0.5,0.5-1.3,0.5-1.9,0l0,0c-0.5-0.5-0.5-1.3,0-1.9l9.4-9.3c0.5-0.5,0.5-1.3,0-1.9l-9.4-9.3c-0.5-0.5-0.5-1.3,0-1.9l0,0
				c0.5-0.5,1.3-0.5,1.9,0l11.2,11.2C-195.9-733.6-195.9-732.8-196.4-732.3z"/>
			<rect x="-495.8" y="-741.4" style="fill:none;" width="231.5" height="24.8"/>
			
				<text id="Opt1_00000107578053336987352020000016863238749216134052_" transform="matrix(1 0 0 1 -495.8177 -727.1445)" class="st13" style="font-family:'AkzidenzGrotesk-Black'; font-size:20px;">Why be travel wise?</text>
			<rect x="204.2" y="-741.4" style="fill:none;" width="231.5" height="24.8"/>
			
				<text id="Opt2_00000130642196057997040550000010801685752992487318_" transform="matrix(1 0 0 1 204.1823 -727.1445)" class="st13" style="font-family:'AkzidenzGrotesk-Black'; font-size:20px;">Compliance</text>
			<path id="Arrow_00000015335759053888715710000010658186089620705430_" class="st11" d="M153.6-231.3l-11.2,11.2
				c-0.5,0.5-1.3,0.5-1.9,0v0c-0.5-0.5-0.5-1.3,0-1.9l9.4-9.3c0.5-0.5,0.5-1.3,0-1.9l-9.4-9.3c-0.5-0.5-0.5-1.3,0-1.9l0,0
				c0.5-0.5,1.3-0.5,1.9,0l11.2,11.2C154.1-232.6,154.1-231.8,153.6-231.3z"/>
			<rect x="-145.8" y="-265.2" style="fill:none;" width="194.7" height="48.7"/>
			<text id="Opt3_00000039828014420061523000000003230527818827364788_" transform="matrix(1 0 0 1 -145.8177 -250.9746)"><tspan x="0" y="0" class="st13" style="font-family:'AkzidenzGrotesk-Black'; font-size:20px;">Why are  </tspan><tspan x="0" y="24" class="st13" style="font-family:'AkzidenzGrotesk-Black'; font-size:20px;">travellers targeted?</tspan></text>
		</g>
		<g id="vid_icon_00000072966360019597677830000002534098291489496485_">
			<g class="st12">
				<path d="M146.2-413.7h-26c-1.1,0-2-0.9-2-2v-16c0-1.1,0.9-2,2-2h26c1.1,0,2,0.9,2,2v16C148.2-414.6,147.3-413.7,146.2-413.7z"/>
				<polygon points="159.2,-414.1 145.5,-423.7 159.2,-433.4 				"/>
			</g>
			<g>
				<g>
					<path class="st13" d="M146.2-415.7h-26c-1.1,0-2-0.9-2-2v-16c0-1.1,0.9-2,2-2h26c1.1,0,2,0.9,2,2v16
						C148.2-416.6,147.3-415.7,146.2-415.7z"/>
					<polygon class="st13" points="159.2,-416.1 145.5,-425.7 159.2,-435.4 					"/>
				</g>
			</g>
		</g>
		<g id="_x30_4_00000050637931031686734460000009544442931885987251_">
			<defs>
				<rect id="SVGID_00000033334047456598409130000007382656951307273888_" x="-165.8" y="-685.7" width="340" height="231"/>
			</defs>
			<clipPath id="SVGID_00000152247583520390984500000014640428956629419941_">
				<use xlink:href="#SVGID_00000033334047456598409130000007382656951307273888_"  style="overflow:visible;"/>
			</clipPath>
			<g style="clip-path:url(#SVGID_00000152247583520390984500000014640428956629419941_);">
				
					<image style="overflow:visible;" width="2000" height="1335" id="shutterstock_x5F_102068089_x5F_EDIT.psd_00000161597890067412382070000017404119279427152015_" xlink:href="18828D8F4F6C81FC.jpg"  transform="matrix(0.2276 0 0 0.2276 -199.8178 -725.7144)">
				</image>
			</g>
			
				<rect x="-165.7" y="-685.9" style="opacity:0.6;clip-path:url(#SVGID_00000152247583520390984500000014640428956629419941_);fill:#E05D22;" width="340.1" height="231.2"/>
		</g>
		<polyline class="st15" points="478.2,-725.7 486.9,-717.2 504.3,-734.6 		"/>
		<g id="_x30_8_00000029018340477062189580000006562365967191350667_">
			<defs>
				<rect id="SVGID_00000034806340419532714180000002153455093123010962_" x="184.2" y="-446.7" width="340" height="242"/>
			</defs>
			
				<use xlink:href="#SVGID_00000034806340419532714180000002153455093123010962_"  style="overflow:visible;opacity:0.9;fill:#E4E4E4;"/>
			<clipPath id="SVGID_00000155863242654447417080000009659545042650785456_">
				<use xlink:href="#SVGID_00000034806340419532714180000002153455093123010962_"  style="overflow:visible;opacity:0.9;"/>
			</clipPath>
			
				<g id="shutterstock_x5F_200536331_x5F_EDIT.psd_00000145771978171758340800000009386240010654870915_" style="clip-path:url(#SVGID_00000155863242654447417080000009659545042650785456_);">
				<defs>
					<rect id="SVGID_00000175306974637892716590000002438471691665879725_" x="84.2" y="-466.7" width="465" height="309.9"/>
				</defs>
				<clipPath id="SVGID_00000119099279418635181390000012992489868467084686_">
					<use xlink:href="#SVGID_00000175306974637892716590000002438471691665879725_"  style="overflow:visible;"/>
				</clipPath>
				<g style="clip-path:url(#SVGID_00000119099279418635181390000012992489868467084686_);">
					
						<image style="overflow:visible;" width="2000" height="1333" id="shutterstock_x5F_200536331_x5F_EDIT" xlink:href="18828D8F4F6C81C2.png"  transform="matrix(0.2325 0 0 0.2325 84.1643 -466.6875)">
					</image>
				</g>
			</g>
		</g>
		<g>
			<defs>
				<rect id="SVGID_00000174590849757535449390000007308874271759185559_" x="-515.8" y="-446.7" width="340" height="242"/>
			</defs>
			<clipPath id="SVGID_00000050622305535407047590000005083256201247777180_">
				<use xlink:href="#SVGID_00000174590849757535449390000007308874271759185559_"  style="overflow:visible;"/>
			</clipPath>
			
				<g id="_x30_6_00000064319447010781542240000006611923770438350505_" style="clip-path:url(#SVGID_00000050622305535407047590000005083256201247777180_);">
				<g id="_x3C_Group_x3E__00000156546742652059814960000008996131933212261814_">
					<g id="shutterstock_x5F_97356140_x5F_EDIT.psd_00000119105815850023647130000013981991210511705757_">
						<defs>
							<rect id="SVGID_00000046300624664828272600000011893432841423848353_" x="-525.8" y="-446.7" width="468" height="311.9"/>
						</defs>
						<clipPath id="SVGID_00000103242515601855290190000003989044115952725432_">
							<use xlink:href="#SVGID_00000046300624664828272600000011893432841423848353_"  style="overflow:visible;"/>
						</clipPath>
						<g style="clip-path:url(#SVGID_00000103242515601855290190000003989044115952725432_);">
							
								<image style="overflow:visible;" width="2000" height="1333" id="shutterstock_x5F_97356140_x5F_EDIT" xlink:href="18828D8F4F6C81C5.png"  transform="matrix(0.234 0 0 0.234 -525.8358 -446.6873)">
							</image>
						</g>
					</g>
				</g>
			</g>
		</g>
		<g id="_x30_5_00000155145261573095049840000002730207905933555116_">
			<defs>
				<rect id="SVGID_00000065051647328960296120000005220684252673502643_" x="184.2" y="-685.7" width="340" height="231"/>
			</defs>
			
				<use xlink:href="#SVGID_00000065051647328960296120000005220684252673502643_"  style="overflow:visible;opacity:0;fill:#E4E4E4;"/>
			<clipPath id="SVGID_00000097489243640464126420000017412238602353896845_">
				<use xlink:href="#SVGID_00000065051647328960296120000005220684252673502643_"  style="overflow:visible;opacity:0;"/>
			</clipPath>
			
				<g id="shutterstock_x5F_213739450_x5F_EDIT.psd_00000009560421278675183300000003625073825293893545_" style="clip-path:url(#SVGID_00000097489243640464126420000017412238602353896845_);">
				<defs>
					<rect id="SVGID_00000041284835671992679480000015060069409383726759_" x="65.9" y="-739.9" width="507.9" height="339"/>
				</defs>
				<clipPath id="SVGID_00000121261754089930492260000008260816349065599412_">
					<use xlink:href="#SVGID_00000041284835671992679480000015060069409383726759_"  style="overflow:visible;"/>
				</clipPath>
				<g style="clip-path:url(#SVGID_00000121261754089930492260000008260816349065599412_);">
					
						<image style="overflow:visible;" width="2000" height="1335" id="shutterstock_x5F_213739450_x5F_EDIT" xlink:href="18828D8F4F6C81C6.png"  transform="matrix(0.254 0 0 0.254 65.9342 -739.8999)">
					</image>
				</g>
			</g>
			
				<rect x="184.3" y="-684.9" style="opacity:0.6;clip-path:url(#SVGID_00000097489243640464126420000017412238602353896845_);fill:#E05D22;" width="340.1" height="231.2"/>
		</g>
		<g id="_x30_4_00000013185397043094868670000006762668504903450246_">
			<defs>
				<rect id="SVGID_00000104706092133138544420000004757293465418298808_" x="-515.8" y="-684.7" width="340" height="230"/>
			</defs>
			
				<use xlink:href="#SVGID_00000104706092133138544420000004757293465418298808_"  style="overflow:visible;opacity:0;fill:#E4E4E4;"/>
			<clipPath id="SVGID_00000145040892841385783000000009346877205676859025_">
				<use xlink:href="#SVGID_00000104706092133138544420000004757293465418298808_"  style="overflow:visible;opacity:0;"/>
			</clipPath>
			
				<g id="shutterstock_x5F_102068089_x5F_EDIT.psd_00000152244310978501231220000005031032888963638665_" style="clip-path:url(#SVGID_00000145040892841385783000000009346877205676859025_);">
				<defs>
					<rect id="SVGID_00000039816005945348376000000004391218822789058489_" x="-520.8" y="-721.7" width="455.3" height="303.7"/>
				</defs>
				<clipPath id="SVGID_00000086667593352161853070000009654546229690715797_">
					<use xlink:href="#SVGID_00000039816005945348376000000004391218822789058489_"  style="overflow:visible;"/>
				</clipPath>
				<g style="clip-path:url(#SVGID_00000086667593352161853070000009654546229690715797_);">
					
						<image style="overflow:visible;" width="2000" height="1334" id="shutterstock_x5F_102068089_x5F_EDIT" xlink:href="18828D8F4F6C81C4.png"  transform="matrix(0.2277 0 0 0.2277 -520.8026 -721.7371)">
					</image>
				</g>
			</g>
		</g>
		<g id="_x30_2_00000106866098053132124870000003577370137648132261_">
			<defs>
				<rect id="SVGID_00000029732565992307840830000008340018451610460580_" x="-165.8" y="-924.7" width="340" height="231"/>
			</defs>
			
				<use xlink:href="#SVGID_00000029732565992307840830000008340018451610460580_"  style="overflow:visible;opacity:0;fill:#E4E4E4;"/>
			<clipPath id="SVGID_00000169516910472129050170000012441377726398628260_">
				<use xlink:href="#SVGID_00000029732565992307840830000008340018451610460580_"  style="overflow:visible;opacity:0;"/>
			</clipPath>
			
				<g id="shutterstock_x5F_104265674_x5F_EDIT.psd_00000133493801177481023940000017738256923719354528_" style="clip-path:url(#SVGID_00000169516910472129050170000012441377726398628260_);">
				<defs>
					<rect id="SVGID_00000145059433402245005430000018300352967547266998_" x="-230.8" y="-966.7" width="472.6" height="279.3"/>
				</defs>
				<clipPath id="SVGID_00000148623116627268040580000013145377739256804541_">
					<use xlink:href="#SVGID_00000145059433402245005430000018300352967547266998_"  style="overflow:visible;"/>
				</clipPath>
				<g transform="matrix(1 0 0 1 0 0)" style="clip-path:url(#SVGID_00000148623116627268040580000013145377739256804541_);">
					
						<image style="overflow:visible;" width="2000" height="1182" id="shutterstock_x5F_104265674_x5F_EDIT" xlink:href="18828D8F4F6C81C3.png"  transform="matrix(0.2363 0 0 0.2363 -230.8403 -966.6763)">
					</image>
				</g>
			</g>
		</g>
		<g id="MENU_BAR_00000010277886746727244460000016163256588320976291_">
			<path class="st4" d="M334.1-1021.7h63.2c0-0.8-0.1-3.3-2-5c0.4-0.9,0.6-1.3,0.4-3.9c0.2-0.2,0.1-0.6-0.2-0.5
				c-0.3,0.1-1.6,1.4-2.1,1.7c-0.5,0-0.9-0.1-1.5,0.4c-0.8,0-1.6,0.1-1.6,0.1s1.9-1.5,1.5-4.7c-0.4-3.2-3.1-3.6-4.3-3.6
				c-1.3,0-3.5,0.1-4.2,0.6c-0.2-0.5-0.4-1.6-1.9-0.9c-0.8,0-2,0-2,0s-0.7-0.5-1.3-0.3c0.6-0.6,1.5-2.2,1.9-3.2
				c0.5-0.1,0.6-0.6,0.2-1.1c0-0.4-0.2-2.7-0.2-2.7s0.6-1.1-0.1-1.4c-0.1-0.5-0.1-1-0.1-1s0.4-0.5-0.3-2.1c0-0.7-0.2-2-0.2-2
				s0.6-0.5-0.2-1.7c0-0.6-0.1-1.4-0.1-1.4s0.3-0.7-0.3-1.2c-0.2-0.7-0.5-2.1-1.5-2.6c-1.1-0.5-3.2-1.1-4.2-1.3
				c-1.1-0.2-2.5-0.6-2.5-0.6s-0.7-0.8-1.5-0.3c-0.5-0.3-1.4-1.3-0.8-3.5c0.2-0.5,0.4,0,0.3,0.3c0,0.3,0.2,1.5,0.7,1.5
				c0.5,0,0.2-0.4,0.2-1.1c-0.1-0.7-0.1-2,0.2-3.1c0.3-1.1,1.1-2.9,1.1-3.9c0-1-0.2-1-0.5-0.6c0-0.8,0-1,0.1-2
				c0.1-0.9,0.1-3.6-1.7-4.9c-1.8-1.2-2.5-2-2.7-3c-0.2-1,0.2-2.9-0.5-3.2c0-1,0.1-2.4-0.5-2.6c-0.1-0.7,0.1-1.9-0.5-2
				c0-0.6,0-2.9-0.6-2.9c-0.6,0-0.5,2.4-0.5,2.8c-0.3,0.1-0.6-0.1-0.3,2.5c-0.2,0-0.6,0-0.3,2.3c-0.4,0-0.6,0.1-0.5,2.4
				c0,2.3-1.5,3-2.2,3.6c-0.7,0.6-1.9,0.8-1.8,4.7c0,0.8,0.1,1.8,0.1,1.8c-0.4,0-1.1-0.1-0.7,1.3c0.4,1.4,0.9,2.7,1.1,3.3
				c0.2,0.6,0.4,1.8,0.4,2.9c0,1-0.2,1.4,0.1,1.4c0.2,0.1,1,0.2,0.9-2.2c0.2,0.2,0.6,0.5,0.7,1.6c0.1,1.2-0.5,2.4-1.1,2.7
				c-0.6,0.2-3.8,0.7-4.5,0.9c-0.7,0.2-4.8,0.2-5.2,4c-0.5,3.8-0.6,8.2-0.7,9.9c-0.1,1.8-0.6,4.3,0.7,5.6c1.3,1.3,2.8,2.5,6.1,3.4
				c-1.4,0-5,0-7.3-0.2c-2.3-0.3-4.6-0.4-5.6-0.3c-1,0-4.2-0.3-4.7,4.4c-0.1,2.8,1.2,4,1.4,4.1c-0.6,0-0.7-0.1-0.9-0.2
				c-0.2-0.1-0.6-0.4-1.3-0.1c-0.2-0.3-0.7-1.1-1.3-0.7c-0.3-0.6-1-1.4-1.8-1.2c-0.1,0.1-0.1,0.4,0.2,0.4c0,0.2-0.3,3.1,1,4.2
				C335.1-1026,333.8-1025.8,334.1-1021.7z M354-1042.8c0.4-1.4,1.5-7.6,1.5-7.6c0.6,0.4,0.9,1.3,1.1,1.7c0.1,0.4,0.4,0.8,0.2,1
				c-0.2,0.2,0.1,0.8,0.3,1.1c0.2,0.3,0.4,1,0.3,1c-0.1,0-0.3,0.1-0.3,0.7c0,0.6,0.6,1.4,0.6,1.8c0.1,0.4,0,1.5-0.2,1.5
				c-0.2,0-0.3,0.3-0.6,0.7C356-1041.6,354.3-1042.5,354-1042.8z"/>
			<path class="st4" d="M436.2-1032.6v-1.8v-1.3h-0.8c-1.3-4-2.2-8-2.9-11h0.7v-1h-1.1c-1.4-8-1.9-29.5-1.9-29.5v-5.8l0.1-2.7h-0.1
				l0,0l0,0v-2h-0.4h-0.2l-1.4-0.7v-3.3l0,0v-3l0,0v3l0,0v3.3l-1.4,0.7h-0.1h-0.4v2l0,0l0,0h-0.3l0.7,2.6l0.1,6.2
				c0,0-0.2,19.2-2.4,29.2h-1.1v1h0.8c-0.6,4-1.7,8-3,11h-0.9v1.3v1.6c-3,5.4-5.2,9.1-5.7,10.1h-1.3v1h6v-1h-0.1c0.4-1,1.9-7,9-7
				c6.9,0,9,6,9.3,7h-0.3v1h6v-1H442C439.7-1025.7,438.2-1029.2,436.2-1032.6z M424.7-1035.7c0.8-2,1.7-8,1.7-8s1.8,0,3.6,0
				c0.2,3,1.5,7,1.7,8H424.7z"/>
			<path class="st4" d="M461.1-1062.8l0.1,41.1h5.3l-0.1-0.5l9-0.3c0,0.2-0.1,0.5-0.1,0.8h1.6c0.1-0.3,0.1-1,0.2-1h0.7
				c-0.1,0-0.1,0.7-0.2,1h0.3c0.1-0.3,0.1-0.6,0.2-0.9l1.9,0c-0.1,0.3-0.1,0.6-0.2,0.9h2.6c-0.4-0.8-0.2-2.4,0.3-2.8
				c-0.1-0.7,0.3-2.8,0.8-3.3c-0.5-1.1,0.2-2.6,0.7-3.2c-0.4-1.1,0-2.8,0.4-3.6c-0.5-1-0.1-2.6,0.2-3.5c-0.3-1.2-0.3-2.6,0.2-3.5
				c-0.8-1.2-0.3-2.7-0.1-3.3c-1-1.3-0.7-2.7-0.4-3.4c-1.1-1.5-1-2.6-0.7-3.1c-0.9-1.3-1-2.6-0.8-3.2c-1.5-1.9-1.1-2.8-0.8-3.3
				c-1.9-1.8-1.6-3.1-1.6-3.1s0-0.3-0.9-1.2c-1-0.9-1.3-3-1.3-3l1.7-3.1c0,0,1.5,0,2.4-0.1c0.9-0.1,0.3-0.8,0-1
				c-2.2-0.6-5.5,0.3-6.4,0.5l-2.2-0.7c-6.2-9.4-11.2-13-11.2-13l-0.3-11l-1.1,1.5l0.1,8.8l-0.3,0c0,0,0,13.2,0,15.8
				c-1.7-0.5-3.8,0.6-3.8,0.6l0.3,1.1L461.1-1062.8z M464.3-1061.1l9.9-1.2c0.2,0.4,0.3,0.9,0.4,1.3l-10.2,1.2L464.3-1061.1z
				 M464.4-1059.5l10.3-1.2c0.1,0.4,0.3,0.9,0.4,1.3l-10.6,1.1L464.4-1059.5z M464.5-1057.8l10.7-1.2c0.1,0.4,0.2,0.8,0.3,1.3
				l-11,1.2L464.5-1057.8z M475.3-1065.8c0.1,0.2,0.2,0.4,0.3,0.6h-0.1C475.5-1065.4,475.4-1065.6,475.3-1065.8z M464.6-1056.2
				l11.1-1.2c0.1,0.4,0.2,0.8,0.3,1.3l-11.3,1.1L464.6-1056.2z M479.8-1036.7c0,0.5-0.1,0.9-0.1,1.4l-0.7,0c0.1-1,0.2-2.1,0.2-3.1
				l0.8,0.2C479.9-1037.8,479.9-1037.7,479.8-1036.7l-0.7,0l0,0.2L479.8-1036.7z M478.4-1026.1c-0.1,0.5-0.2,0.9-0.3,1.4l-0.7,0
				c0.1-0.5,0.2-1,0.3-1.5v0.1L478.4-1026.1z M477.8-1026.4c0.1-0.5,0.2-0.9,0.2-1.4l0.7,0c-0.1,0.5-0.2,0.9-0.3,1.4L477.8-1026.4z
				 M478.1-1028.2c0.1-0.5,0.2-1,0.2-1.5l0.7,0c-0.1,0.5-0.2,1-0.3,1.5L478.1-1028.2z M478.4-1030.1c0.1-0.5,0.1-0.9,0.2-1.4
				l0.7-0.1c-0.1,0.5-0.1,1-0.2,1.4L478.4-1030.1z M478.6-1031.8c0.1-0.5,0.1-1.1,0.2-1.6v0.2l0.7,0c0,0.5-0.1,0.9-0.2,1.4
				L478.6-1031.8z M478.8-1033.6c0-0.5,0.1-0.9,0.1-1.4l0.7,0c-0.1,0.4-0.1,0.9-0.1,1.3L478.8-1033.6z M479.1-1038.8
				c0-0.5,0-1,0-1.4l0.8,0c0,0.5,0,0.9-0.1,1.4L479.1-1038.8z M479.2-1040.5c0-0.4,0-0.9,0-1.3l0.8,0c0,0.4,0,0.9,0,1.3
				L479.2-1040.5z M479.2-1042.2c0-0.4,0-0.9,0-1.3l0.9,0c0,0.4,0,0.9,0,1.4L479.2-1042.2z M479.2-1043.9c0-0.4,0-0.9-0.1-1.3
				l0.9-0.1c0,0.5,0,0.9,0,1.4L479.2-1043.9z M479.1-1045.6L479.1-1045.6c0-0.4-0.1-0.9-0.1-1.3l0.9-0.1c0,0.4,0.1,0.9,0.1,1.3
				L479.1-1045.6z M479-1047.3c0-0.4-0.1-0.9-0.1-1.3h0.9c0,0.4,0.1,0.8,0.1,1.3L479-1047.3z M478.9-1048.9c0-0.5-0.1-0.9-0.1-1.4
				l0.9,0c0,0.5,0.1,0.9,0.1,1.4H478.9z M478.7-1050.6c-0.1-0.4-0.1-0.9-0.2-1.3l0.9-0.1c0.1,0.4,0.1,0.9,0.2,1.3L478.7-1050.6z
				 M478.5-1052.3c-0.1-0.4-0.1-0.9-0.2-1.3l0.8,0c0.1,0.4,0.1,0.8,0.2,1.2L478.5-1052.3z M478.2-1054c-0.1-0.4-0.1-0.9-0.2-1.3
				l0.8,0c0.1,0.4,0.2,0.9,0.3,1.3L478.2-1054z M478-1055.6c-0.1-0.4-0.1-0.8-0.2-1.2l0.7-0.1c0.1,0.4,0.2,0.8,0.3,1.3L478-1055.6z
				 M477.7-1057.1c-0.1-0.4-0.2-0.9-0.3-1.3l0.6,0c0.1,0.4,0.2,0.9,0.3,1.3L477.7-1057.1z M477.3-1058.8c-0.1-0.5-0.2-0.9-0.3-1.3
				l0.5,0c0.1,0.4,0.3,0.8,0.4,1.3L477.3-1058.8z M476.9-1060.5c-0.1-0.4-0.2-0.8-0.3-1.2l0.4,0c0.1,0.4,0.3,0.8,0.4,1.2
				L476.9-1060.5z M476.5-1062c-0.1-0.4-0.3-0.9-0.4-1.3l0.3,0c0.2,0.4,0.3,0.8,0.5,1.3H476.5z M476-1063.6
				c-0.1-0.4-0.3-0.8-0.4-1.2h0.1l0,0c0.2,0.4,0.4,0.8,0.5,1.2L476-1063.6z M464.6-1054.7l0,0.2l11.4-1.2c0.1,0.4,0.2,0.9,0.3,1.3
				l-11.6,1.1l0,0.3l11.6-1.1c0.1,0.4,0.1,0.9,0.2,1.3l-11.8,1.1l0,0.3l11.8-1.1c0.1,0.4,0.1,0.9,0.2,1.3l-12,1L464.6-1054.7z
				 M464.9-1049.7l12-1c0.1,0.4,0.1,0.9,0.2,1.3l-12.1,1L464.9-1049.7z M464.9-1048.1l12.1-1c0,0.4,0.1,0.9,0.1,1.3l-12.2,1
				L464.9-1048.1z M465-1046.5l12.2-1c0,0.4,0.1,0.9,0.1,1.3l-12.3,0.9L465-1046.5z M465.1-1044.9l12.3-0.9c0,0.4,0,0.9,0.1,1.3
				l-12.3,0.9L465.1-1044.9z M465.1-1043.2l12.3-0.9c0,0.4,0,0.9,0,1.3l-12.2,0.8L465.1-1043.2z M465.2-1041.6l12.2-0.8
				c0,0.4,0,0.9,0,1.3l-12.2,0.8L465.2-1041.6z M465.3-1040l12.2-0.8c0,0.4,0,0.8,0,1.3l-12.1,0.8L465.3-1040z M465.3-1038.4l12-0.8
				c0,0.5,0,0.9,0,1.4l-11.9,0.7L465.3-1038.4z M465.4-1036.8l11.9-0.7c0,0.2,0,0.4-0.1,0.6l-11.8,0.7L465.4-1036.8z M465.5-1034.7
				l11.7-0.6c0,0.3,0,0.6-0.1,0.9l-11.6,0.6L465.5-1034.7z M475.4-1022.8l-9.2,0.3l-0.3-1.1l0-0.2l9.7-0.3
				C475.6-1023.7,475.5-1023.3,475.4-1022.8z M475.7-1024.5l-9.8,0.3l0-1.3l10.1-0.4C475.9-1025.3,475.8-1024.9,475.7-1024.5z
				 M476-1026.1l-10.2,0.4l0-1.3l10.4-0.4C476.2-1027,476.1-1026.6,476-1026.1z M476.3-1027.8l-10.5,0.4l0-1.3l10.7-0.5
				C476.4-1028.7,476.3-1028.3,476.3-1027.8z M476.5-1029.5l-10.8,0.5l-0.1-1.3l11-0.5C476.6-1030.3,476.6-1029.9,476.5-1029.5z
				 M476.7-1031.1l-11.1,0.5l-0.1-1.3l11.3-0.6C476.8-1032,476.8-1031.6,476.7-1031.1z M476.9-1032.8l-11.3,0.6l-0.1-1.3l11.5-0.6
				C477-1033.7,477-1033.3,476.9-1032.8z M477.8-1023l-0.7,0c0.1-0.5,0.2-0.9,0.3-1.4l0.7,0C478-1023.9,477.9-1023.4,477.8-1023z
				 M480-1022.7h-1.9c0.1-1,0.2-1,0.3-1.5l1.9,0C480.2-1023.7,480.1-1023.7,480-1022.7z M480.4-1024.8l-1.9,0.1
				c0.1-0.5,0.2-0.9,0.3-1.4l1.9,0C480.5-1025.7,480.4-1025.2,480.4-1024.8z M480.7-1026.5l-1.9,0c0.1-0.5,0.2-0.9,0.3-1.4l1.8,0
				C480.8-1027.4,480.7-1027,480.7-1026.5z M480.9-1028.3l-1.8,0c0.1-0.5,0.2-1,0.2-1.5l1.8,0C481.1-1029.2,481-1028.7,480.9-1028.3
				z M481.2-1030l-1.8,0c0.1-0.5,0.1-1,0.2-1.4l1.8,0.1C481.3-1030.9,481.2-1030.5,481.2-1030z M481.4-1031.7l-1.8-0.1
				c0.1-0.5,0.1-0.9,0.2-1.4l1.7,0.2C481.5-1032.6,481.5-1032.2,481.4-1031.7z M481.6-1033.4l-1.7-0.2c0.1-0.4,0.1-0.9,0.1-1.3
				l1.7,0.2C481.7-1034.3,481.6-1033.8,481.6-1033.4z M481.7-1035.1l-1.7-0.2c0-0.5,0.1-0.9,0.1-1.4l1.7,0.2
				C481.8-1036.1,481.8-1035.6,481.7-1035.1z M481.9-1036.9l-1.7-0.2c0-0.5,0.1-0.9,0.1-1.4l1.7,0.2
				C481.9-1037.8,481.9-1037.3,481.9-1036.9z M482-1038.5l-1.7-0.2c0-0.5,0.1-0.9,0.1-1.4l1.7,0.3C482-1039.4,482-1039,482-1038.5z
				 M482-1040.2l-1.7-0.3c0-0.4,0-0.9,0-1.3l1.6,0.1C482-1041.2,482-1040.7,482-1040.2z M482-1042l-1.6-0.1c0-0.5,0-0.9,0-1.3
				l1.6,0.3C482-1042.8,482-1042.5,482-1042z M482-1043.6l-1.6-0.3c0-0.5,0-0.9,0-1.4l1.6,0.3C482-1044.5,482-1044.1,482-1043.6z
				 M482-1045.3l-1.6-0.3c0-0.4,0-0.9-0.1-1.3l1.6,0.3C482-1046.2,482-1045.8,482-1045.3z M481.8-1048.2c0,0.4,0.1,0.8,0.1,1.2
				l-1.6-0.3c0-0.4-0.1-0.8-0.1-1.2L481.8-1048.2z M481.8-1048.6l-1.6-0.3c-0.1-0.5-0.1-0.9-0.1-1.4l1.7,0.4
				C481.7-1049.4,481.7-1049,481.8-1048.6z M481.6-1050.2l-1.7-0.4c-0.1-0.4-0.1-0.9-0.2-1.3l1.7,0.4
				C481.5-1051.1,481.6-1050.7,481.6-1050.2z M481.4-1051.9l-1.7-0.4c-0.1-0.4-0.1-0.8-0.2-1.2l1.7,0.4
				C481.3-1052.7,481.3-1052.3,481.4-1051.9z M481.1-1053.5l-1.7-0.4c-0.1-0.4-0.2-0.9-0.2-1.3l1.7,0.5
				C481-1054.3,481.1-1053.9,481.1-1053.5z M480.6-1056.3c0.1,0.4,0.2,0.8,0.3,1.2l-1.7-0.5c-0.1-0.4-0.2-0.8-0.3-1.2L480.6-1056.3z
				 M480.5-1056.7l-1.7-0.5c-0.1-0.4-0.2-0.9-0.3-1.3l1.7,0.4C480.3-1057.6,480.4-1057.1,480.5-1056.7z M479.7-1059.6
				c0.1,0.4,0.2,0.7,0.3,1.1l-1.7-0.4c-0.1-0.4-0.2-0.8-0.3-1.2L479.7-1059.6z M479.6-1060l-1.7-0.4c-0.1-0.4-0.2-0.8-0.4-1.1
				l1.8,0.5C479.4-1060.7,479.5-1060.3,479.6-1060z M479.1-1061.4l-1.8-0.5c-0.2-0.4-0.3-0.8-0.4-1.2l1.8,0.6
				C478.8-1062.2,479-1061.8,479.1-1061.4z M478.5-1063l-1.8-0.6c-0.2-0.4-0.3-0.8-0.5-1.1l1.8,0.6
				C478.2-1063.8,478.4-1063.4,478.5-1063z M477.9-1064.6l-1.8-0.6c-0.2-0.4-0.3-0.8-0.5-1.1l1.8,0.6
				C477.5-1065.3,477.7-1064.9,477.9-1064.6z M477.1-1066.1l-1.8-0.6c-0.2-0.4-0.4-0.7-0.6-1l1.8,0.6
				C476.8-1066.9,476.9-1066.5,477.1-1066.1z M475.8-1068.5c0.1,0.2,0.3,0.5,0.5,0.8l-1.8-0.6c-0.1-0.2-0.2-0.3-0.3-0.4l-0.1-0.1h0
				c0,0,0-0.2,0-0.2L475.8-1068.5z M474.1-1062.6l-9.7,1.2l-0.1-1.3l9.4-1.2C473.8-1063.5,473.9-1063,474.1-1062.6z M473.5-1064.2
				l-9.2,1.2l0-0.8l9-1.2C473.3-1064.8,473.4-1064.5,473.5-1064.2z M472.6-1066.2l-8.5,1.1l0-0.8l8.1-1.1
				C472.4-1066.8,472.5-1066.5,472.6-1066.2z M472.1-1067.4l-8,1.1l-0.1-1.3l7.5-1C471.7-1068.2,471.9-1067.8,472.1-1067.4z
				 M471.3-1068.9l-7.3,0.9l-0.6-11.9C463.4-1079.8,467.5-1076.1,471.3-1068.9z"/>
			<path class="st4" d="M325.5-1061.5l-3-1.7c0,0-1.4,1.9-1.6,2.2c-0.3-0.3-0.8-0.9-1-1c-0.2-0.1-0.6-0.6-0.9-1.1
				c-0.3-1.6-0.9-3-1.2-3.4c-0.2-0.4-0.5-0.5-1.1-0.7c-0.9-0.7-1.2-2.6-1.3-2.9c0.1,0,0.3-0.1,0.4-0.3c0.1-0.2-0.2-0.8-0.3-1.2
				c-0.1-0.4-0.1-0.6-0.1-0.9c0.2,0,0.3-0.3,0.2-0.5c-0.1-0.2-0.1-0.2-0.2-0.5c0.1-0.1,0.2-0.8,0.2-0.8l3.7-0.4c0,0-3.4-0.2-3.7-0.2
				c0-0.3,0-0.6,0-0.6l3.1-1.3c0,0-2.9,0.7-3.4,0.8c-0.2-0.2-0.6-0.6-0.6-0.6l1.9-2.3c0,0-2.3,1.8-2.5,1.9c-0.4-0.2-1.1-0.3-1.1-0.3
				l-0.5-3l-0.2,3c-0.6,0-1.2,0.3-1.2,0.3l-2.8-1.9c0,0,1.9,2.2,2.3,2.4c-0.1,0.1-0.6,0.4-0.6,0.4l-2.7,0.1c0,0-0.1-0.2-0.1-1.2
				c0-1.1-0.8-3.3-0.9-4c-0.2-0.7-0.2-1.4-0.2-1.9c0.1-0.5,0-0.8,0-1.8c0-1-0.8-1.9-0.8-1.9s0-0.3,0.1-0.7c0.3-0.2,0.4-0.5,0.3-0.8
				c0.7,0,1.3-0.3,1.3-0.7c0-0.3-0.4-0.6-0.4-0.6l0-0.5c0,0,0.4,0.1,0.4-0.2c0-0.4-1.7-0.6-1.7-0.6s0-0.4,0-0.6
				c0.3-0.2,0.5-0.6,0.5-0.9c0.2-0.4,0.3-1.7,0.1-1.9c-0.1,0.1-0.1,0.2-0.3,0.7c0.1-0.3-0.3-0.7-0.5-0.8c-0.3,0.3-0.4,0.4-0.4,0.8
				c0,0.4-0.4,0.4-0.6,0.2c-0.1,0.3,0,0.6-0.7,1c-0.7,0.5-0.1,0.9-0.1,0.9v0.6c0,0-1.4,0.3-1.4,0.5c0,0.2,0.4,0.6,0.5,0.7
				c-0.1,0.1-0.4,0.3-0.4,0.7c0,0.4,0.6,0.7,0.9,0.7c0,0.7,0.7,1.4,0.7,1.4s0,0.2-0.2,0.2c-0.2,0.1-0.2,0.5-0.2,0.8
				c-0.1,0.3,0.1,0.6,0.1,0.6s0,0.3,0,0.6c0,0.4,0,0.8,0,0.8s0,0,0,0.8s0.4,0.5,0.5,1.1c0,0.5,0.5,0.8,0.5,0.8s-0.1,1.2-0.1,2.4
				c0,1.2,0.3,2.3,0.5,3c0.2,0.6,0.3,1.3,0.3,1.9c-0.4,0.7-1.1,2.1-1.3,2.8c-0.3,0.7,0,0.6,0,1.2c-0.1,0.5,0.1,0.8,0.2,0.9
				c0,0.6,0.1,0.7,0.2,0.9c0.1,0.2,0.3,0.3,0.6,0.3c0.3,0,0,0.4-0.2,0.8c-0.2,0.5,0.4,0.5,0.6,0.5c0,0.4,0.4,0.6,0.6,0.6
				c0,0.3-0.2,0.9-0.3,1.3c-0.1,0.3,0.4,0.9,0.6,0.9c-0.8,0.8-0.8,0.8-0.7,1c0.1,0.2,0.2,0.4,0.4,0.6c0,0.4,0.5,0.7,0.6,0.8
				c0,0.3,0.1,0.7,0.3,1c-0.1,0.3-0.3,1.5-0.8,2.2c-0.5,0.7-0.3,1.3-0.3,1.3s-0.2,0.6-0.3,0.9c-0.1,0.3-0.2,1,0,1.4
				c0.2,0.5,0.9,0.5,1.2,0.5c-0.1,0.6,0.1,1.6-0.1,1.9c-0.1,0.4-0.4,1-0.4,2.3c0,1.3,0.1,1.4,0.2,1.9s0.4,0.7,0.4,0.7
				s-0.1,0.6-0.1,1.2c0,0.5,0.1,0.8,0.1,1.3c0,0.5,0.2,1.3,0,1.8c-0.2,0.5-0.1,1.1-0.2,1.4c-0.1,0.3,0,0.7,0.1,0.8
				c0.1,0.2,0.1,0.6,0,0.8c-0.1,0.2-0.2,0.7-0.2,1c0,0.2,0.1,0.7,0,1c-0.2,0.3-0.1,1.3-0.1,1.6c0,0.3,0.2,0.9,0.2,1.2
				c0,0.3,0,1.9-0.1,2.2c-0.2,0.3,0.1,0.6,0.1,0.6s0,1,0,1.4s0.1,1.1,0.2,1.2c0.1,0.1,0.1,0.5-0.2,0.8c-0.3,0.3-1,0.5-1.4,0.7
				c-0.3,0.1-0.3,0.7-0.3,0.7l-0.3,0l0,1.8c0,0-0.6,0.4-0.7,0.6c0,0.4,0.4,0.8,0.4,0.8l0,2.4h18.6l0-1.8c0,0-0.2-0.6-0.4-1.1
				c-0.2-0.5-0.3-0.6-0.6-0.6c0-2.3-1.3-3-1.3-3s-0.4-5.3-0.4-6c0.8-0.5,0.7-0.9,0.7-0.9s-0.2-3.7-0.2-4.3c0.5-0.2,0.4-0.7,0.4-0.7
				s-0.1-0.9,0-1.2c0.2-0.1,0.4-0.5,0.4-0.9c-0.1-0.3-0.2-3.2-0.3-3.9c-0.1-0.7-0.6-4.1-0.6-4.1s0.3-0.3,0.5-0.5
				c1,0.1,1.2-0.7,1.4-1.3c0.2-0.6,0.4-2.5,0.4-3.4c0.9,0,1.3-0.4,1.5-0.6c0.1-0.2,1.1-1.6,1.3-2c0.2-0.4,0.2-0.7,0.1-0.7
				c-0.1-0.1-0.4-0.5-0.4-0.5l0.9-1.8L325.5-1061.5z M307.3-1075l-0.1-0.3l2.3,0.1l0,0.6c0,0-1.2,0.1-1.6,0.1
				C307.9-1074.7,307.3-1075,307.3-1075z M309.3-1071.3c0,0-0.1-0.1-0.3-0.1c-0.1-0.2-0.5-0.5-0.6-0.8c0.3-0.8-0.4-1.5-0.4-1.5
				l0-0.3c0,0,1.1,0.1,1.4,0.1c0.1,0.2,0.2,0.4,0.3,0.6c-0.3,0.4-0.1,1,0.1,1C309.7-1072.2,309.3-1071.3,309.3-1071.3z"/>
			<path class="st4" d="M409-1099.5c-0.6,0.1-2.9,0.7-5.8,1.4l-1.3-1l0.9-0.2c0.5-0.1,0.7-0.6,0.6-1c-0.1-0.5-0.6-0.7-1-0.6
				l-1.2,0.3c-0.3,0.1-0.5,0.3-0.6,0.5c-1-1.1-4.9-5.5-5.4-6.1c-0.6-0.6-1-0.6-1.4-0.5c-0.4,0.1-0.6,0.1-0.6,0.1l4.5,7.1l0.6,2.6
				c-3.4,0.8-6.4,1.5-6.8,1.6c-0.4,0.1-1.4,0.5-2.3,1l-3.7-3.4l-0.6,0.1l0.2,0.6l2.2,3.8c-0.4,0.3-0.6,0.5-0.6,0.6
				c0,0.1,0.3,0.2,0.8,0.2l-0.2,4.3l0.1,0.6l0.6-0.1l1.8-4.7c1.1,0,2.1-0.1,2.5-0.2c0.4-0.1,3.4-0.8,6.8-1.6l0.6,2.6l-0.8,8.4
				c0,0,0.1-0.1,0.5-0.2c0.4-0.1,0.8-0.3,1-1.1c0.2-0.7,1.6-6.4,2-7.9c0.2,0.2,0.5,0.3,0.8,0.2l1.2-0.3c0.5-0.1,0.7-0.6,0.6-1
				c-0.1-0.5-0.6-0.7-1-0.6l-0.9,0.2l0.7-1.5c2.8-0.7,5.2-1.3,5.8-1.4c1.4-0.3,3.9-1.7,3.8-2.2
				C413.3-1099.7,410.5-1099.8,409-1099.5z"/>
		</g>
		<g id="MENU_BAR_00000019675238615712863580000007715093926850203313_">
			<rect x="-785.6" y="-1020.8" class="st22" width="1340" height="4"/>
		</g>
		<g id="SIDE_BTNS_N_00000103970090085746407420000006921071429392800943_">
			
				<rect id="_x30_5_00000040547457763492077240000009495506310042231473_" x="-756.8" y="-464.6" class="st4" width="230" height="126.8"/>
		</g>
		
			<rect id="_x30_5_00000002363586695209534700000016952352130754847889_" x="-756.8" y="-600" class="st4" width="230" height="126.8"/>
		
			<rect id="_x30_5_00000047031525255247352070000017649325122341775006_" x="-756.8" y="-735.8" class="st4" width="230" height="126.8"/>
		
			<rect id="_x30_5_00000145779265258893834520000007115001290831976360_" x="-756.8" y="-872" class="st4" width="230" height="126.8"/>
		
			<rect id="_x30_5_00000070827468838119990900000010305371927708147122_" x="-755.8" y="-1007.7" class="st4" width="230" height="126.8"/>
		<g id="BTM_BTNS_N_00000124856634775888354720000000081339463902332307_">
			
				<rect id="X_00000160177617270603006640000012138986005818056095_" x="-756.8" y="-329.4" class="st4" width="70" height="125.7"/>
			
				<rect id="_x3F__00000118372768699369765780000012712325934211732883_" x="-676.8" y="-329.4" class="st4" width="70" height="125.7"/>
			
				<rect id="i_00000112631761730590587540000001563239163040462467_" x="-596.8" y="-329.4" class="st4" width="70" height="125.7"/>
		</g>
		<rect x="-726" y="-953.3" style="fill:none;" width="200" height="18.3"/>
		
			<text id="_x35__00000080175517791324904350000005477301054530379424_" transform="matrix(1 0 0 1 -725.9529 -936.1769)" style="font-family:'AkzidenzGrotesk-Black'; font-size:24px;">Introduction</text>
		<rect x="-725.2" y="-817.9" style="fill:none;" width="200" height="18.3"/>
		<text id="_x35__00000009575295129655072030000005905040567603633796_" transform="matrix(1 0 0 1 -725.2369 -800.8335)"><tspan x="0" y="0" class="st11" style="font-family:'AkzidenzGrotesk-Black'; font-size:24px;">be</tspan><tspan x="29.4" y="0" style="font-family:'AkzidenzGrotesk-Black'; font-size:24px;">Prepared</tspan></text>
		<rect x="-725.2" y="-681.9" style="fill:none;" width="200" height="18.3"/>
		<text id="_x35__00000038411590292976554890000018407326250301289879_" transform="matrix(1 0 0 1 -725.2369 -664.8336)"><tspan x="0" y="0" class="st11" style="font-family:'AkzidenzGrotesk-Black'; font-size:24px;">be</tspan><tspan x="29.4" y="0" style="font-family:'AkzidenzGrotesk-Black'; font-size:24px;">Aware</tspan></text>
		<rect x="-725.9" y="-545.9" style="fill:none;" width="200" height="18.3"/>
		<text id="_x35__00000086653200510516533960000013333507296075846812_" transform="matrix(1 0 0 1 -725.9091 -528.8213)"><tspan x="0" y="0" class="st11" style="font-family:'AkzidenzGrotesk-Black'; font-size:24px;">be</tspan><tspan x="29.4" y="0" style="font-family:'AkzidenzGrotesk-Black'; font-size:24px;">Ready</tspan></text>
		<g id="SIDE_BTNS_N_00000014611495904811537730000015907533054350005932_">
			
				<rect id="_x30_5_00000066481214738455621220000002244930144539283645_" x="-755.9" y="-464.1" class="st4" width="230" height="126.8"/>
		</g>
		<rect x="-723.9" y="-409.9" style="fill:none;" width="200" height="18.3"/>
		
			<text id="_x35__00000168832712783863232640000009386113241501657507_" transform="matrix(1 0 0 1 -723.9091 -392.8213)" style="font-family:'AkzidenzGrotesk-Black'; font-size:24px;">Quiz</text>
		<g id="SIDE_ICONS_00000158741925522009830700000004062228162218123964_">
			<g id="info_00000159460206403056847310000008220476974703415714_">
				<path class="st23" d="M-558.7-283.5c-9.7,0-17.5,7.8-17.5,17.5c0,3.5,1,6.8,2.8,9.6l-1.8,6.6l6.5-1.7c2.8,1.9,6.2,3.1,9.9,3.1
					c9.7,0,17.5-7.8,17.5-17.5C-541.2-275.7-549.1-283.5-558.7-283.5z M-558.9-276.1c1.9,0,3,1.5,3,2.7c0,1.5-1,2.7-3,2.7
					c-1.7,0-2.9-1.4-2.9-2.7C-561.8-274.6-560.7-276.1-558.9-276.1z M-555.4-256h-7v-3h1v-7h-1v-3h6v10h1V-256z"/>
			</g>
			<g id="help_00000116219676125883527000000013923476132354751661_">
				<path class="st23" d="M-641.2-283.5c-9.7,0-17.5,7.8-17.5,17.5c0,9.7,7.8,17.5,17.5,17.5c9.7,0,17.5-7.8,17.5-17.5
					C-623.7-275.6-631.5-283.5-641.2-283.5z M-641.4-254.8c-1.6,0-2.9-1.3-2.9-2.9c0-1.6,1.3-2.9,2.9-2.9c1.6,0,2.9,1.3,2.9,2.9
					C-638.5-256.1-639.8-254.8-641.4-254.8z M-638.4-263.4v1.4h-5v-2.1c0-2.7,4-4.3,4-5.9c0-1.1-1.2-1.8-2.1-1.8
					c-1.2,0-2.2,1-3.1,2.2l-3.2-2.9c1.9-2.4,4-3.9,6.7-3.9c3.6,0,6.6,2.5,6.6,6.5C-634.4-266.1-638.4-265.2-638.4-263.4z"/>
			</g>
			<path class="st23" d="M-719.4-283.5c-9.7,0-17.5,7.8-17.5,17.5c0,9.7,7.8,17.5,17.5,17.5c9.7,0,17.5-7.8,17.5-17.5
				C-701.9-275.7-709.7-283.5-719.4-283.5z M-709.7-275.7c0.8,0.8,0.8,2,0,2.8l-6.8,6.8l6.8,6.8c0.8,0.8,0.8,2,0,2.8
				c-0.8,0.8-2,0.8-2.8,0l-6.8-6.8l-6.8,6.8c-0.8,0.8-2,0.8-2.8,0c-0.8-0.8-0.8-2,0-2.8l6.8-6.8l-6.8-6.8c-0.8-0.8-0.8-2,0-2.8
				c0.8-0.8,2-0.8,2.8,0l6.8,6.8l6.8-6.8C-711.8-276.4-710.5-276.4-709.7-275.7z"/>
		</g>
		<g>
			<g id="CTA_00000080886790410074501380000003288144269945381295_">
				<rect x="-217.5" y="-970" style="fill:none;" width="452.3" height="26.4"/>
				
					<text transform="matrix(1 0 0 1 -211.6388 -956.4873)" class="st11" style="font-family:'AkzidenzGrotesk-Black'; font-size:19px;">Select each option to find out more information</text>
			</g>
			<rect x="-542.5" y="-984.3" style="fill:none;" width="300" height="40.6"/>
			
				<text id="TOPIC_SEL_00000132792515171839681880000015993046915785287854_" transform="matrix(1 0 0 1 -518.0466 -952.9241)" style="font-family:'AkzidenzGrotesk-Black'; font-size:44px; letter-spacing:-1;">Introduction</text>
		</g>
		<rect x="-725.8" y="-1077.7" style="fill:none;" width="222.8" height="28.3"/>
		<text id="LOGO_00000129183014416737892710000006577819966727548302_" transform="matrix(1 0 0 1 -725.8178 -1052.0825)"><tspan x="0" y="0" class="st11" style="font-family:'AkzidenzGrotesk-Black'; font-size:36px;">be</tspan><tspan x="42.2" y="0" style="font-family:'AkzidenzGrotesk-Black'; font-size:36px;">Travelwise</tspan></text>
		<rect x="-166.2" y="-925.1" class="st24" width="340.1" height="231.2"/>
		<rect x="-515.5" y="-686.3" class="st24" width="340.1" height="231.2"/>
		<rect x="-515.7" y="-446.9" class="st24" width="340.1" height="242"/>
		<rect x="183.6" y="-446.5" class="st24" width="340.1" height="242.6"/>
	</g>
	<path id="Arrow_00000181058944300826708560000010682242259278414490_" class="st13" d="M16.5,15.9L5.3,27.1c-0.5,0.5-1.3,0.5-1.9,0
		l0,0c-0.5-0.5-0.5-1.3,0-1.9l9.4-9.3c0.5-0.5,0.5-1.3,0-1.9L3.5,4.7C3,4.2,3,3.4,3.5,2.9l0,0c0.5-0.5,1.3-0.5,1.9,0l11.2,11.2
		C17,14.6,17,15.4,16.5,15.9z"/>
</g>
</svg>
