<?xml version="1.0" encoding="utf-8"?>
<!-- Generator: Adobe Illustrator 26.0.3, SVG Export Plug-In . SVG Version: 6.00 Build 0)  -->
<svg version="1.1" xmlns="http://www.w3.org/2000/svg" xmlns:xlink="http://www.w3.org/1999/xlink" x="0px" y="0px"
	 viewBox="0 0 100 100" style="enable-background:new 0 0 100 100;" xml:space="preserve">
<style type="text/css">
	.st0{clip-path:url(#SVGID_00000087375981539117335060000006319689628004056746_);}
	.st1{fill:#E25D22;}
	.st2{opacity:0.8;}
	.st3{fill:url(#SVGID_00000178892609428256632730000008346240282881613471_);}
	.st4{fill:#CACACA;}
	
		.st5{display:none;opacity:0.75;clip-path:url(#SVGID_00000124873974995891205300000010375588897468501420_);fill:url(#SVGID_00000082354622688287506840000014305336032819649705_);}
	.st6{clip-path:url(#SVGID_00000124873974995891205300000010375588897468501420_);}
	.st7{clip-path:url(#SVGID_00000172440811237316622000000015630597665880825279_);}
	.st8{clip-path:url(#SVGID_00000000912771654106018650000009412935480783535034_);}
	
		.st9{display:none;opacity:0.75;clip-path:url(#SVGID_00000000912771654106018650000009412935480783535034_);fill:url(#SVGID_00000142133786481787670410000007065002059299567295_);}
	.st10{clip-path:url(#SVGID_00000000912771654106018650000009412935480783535034_);fill:#FFFFFF;}
	.st11{fill:#E05D22;}
	.st12{opacity:0.5;}
	.st13{fill:#FFFFFF;}
	.st14{opacity:0.6;clip-path:url(#SVGID_00000067201342305803002260000014938097779287531158_);fill:#E05D22;}
	.st15{fill:none;stroke:#E05D22;stroke-width:2.2814;stroke-linecap:round;stroke-linejoin:round;stroke-miterlimit:10;}
	.st16{clip-path:url(#SVGID_00000133506111529364737150000012992567050476746380_);}
	.st17{clip-path:url(#SVGID_00000130638298876576030290000004625322374979261856_);}
	.st18{clip-path:url(#SVGID_00000147925457113245209490000010201090898628502185_);}
	.st19{opacity:0.6;clip-path:url(#SVGID_00000147925457113245209490000010201090898628502185_);fill:#E05D22;}
	.st20{clip-path:url(#SVGID_00000081638305861820678460000001230624561831127430_);}
	.st21{clip-path:url(#SVGID_00000134934063029747969370000014407055945732213426_);}
	.st22{fill:#E25D22;}
	.st23{fill:#1D1D1B;}
	.st24{opacity:0.6;fill:#E05D22;}
	.st25{stroke:#000000;stroke-miterlimit:10;}
	.st26{fill-rule:evenodd;clip-rule:evenodd;fill:#E25D22;}
	.st27{fill:#FFFFFF;stroke:#FFFDFD;stroke-miterlimit:10;}
</style>
<g id="Tiles">
	<g id="images">
		<g id="Menu_tiles">
			<defs>
				<rect id="SVGID_1_" x="-113" y="-305" width="340" height="265"/>
			</defs>
			<clipPath id="SVGID_00000070095987459647417710000013657250350162899859_">
				<use xlink:href="#SVGID_1_"  style="overflow:visible;"/>
			</clipPath>
			<g style="clip-path:url(#SVGID_00000070095987459647417710000013657250350162899859_);">
				
					<image style="overflow:visible;" width="6496" height="4331" id="_x30_1_x5F_01" xlink:href="568F13558D46715A.jpg"  transform="matrix(6.557377e-02 0 0 6.557377e-02 -119 -310)">
				</image>
			</g>
			
				<g transform="matrix(1 0 0 1 -3.051758e-05 0)" style="clip-path:url(#SVGID_00000070095987459647417710000013657250350162899859_);">
				
					<image style="overflow:visible;" width="1169" height="570" id="_x30_1_x5F_02" xlink:href="568F13558D46715E.jpg"  transform="matrix(0.6211 0 0 0.6211 -491 -388.5038)">
				</image>
			</g>
			<g style="clip-path:url(#SVGID_00000070095987459647417710000013657250350162899859_);">
				
					<image style="overflow:visible;" width="5760" height="3840" id="_x30_1_x5F_03" xlink:href="568F13558D467159.jpg"  transform="matrix(7.500000e-02 0 0 7.500000e-02 -170.5 -319)">
				</image>
			</g>
			<g style="clip-path:url(#SVGID_00000070095987459647417710000013657250350162899859_);">
				
					<image style="overflow:visible;" width="1920" height="2880" id="_x30_1_x5F_04" xlink:href="568F13558D46715B.jpg"  transform="matrix(0.1856 0 0 0.1856 -120 -534.5)">
				</image>
			</g>
			<g style="clip-path:url(#SVGID_00000070095987459647417710000013657250350162899859_);">
				
					<image style="overflow:visible;" width="1920" height="1080" id="_x30_1_x5F_05" xlink:href="568F13558D467158.jpg"  transform="matrix(0.2568 0 0 0.2568 -180 -311.5)">
				</image>
			</g>
			<g style="clip-path:url(#SVGID_00000070095987459647417710000013657250350162899859_);">
				
					<image style="overflow:visible;" width="1280" height="715" id="_x30_2_x5F_01" xlink:href="568F13558D467166.jpg"  transform="matrix(0.5812 0 0 0.5812 -124.7415 -332.1262)">
				</image>
			</g>
			<g style="clip-path:url(#SVGID_00000070095987459647417710000013657250350162899859_);">
				
					<image style="overflow:visible;" width="593" height="438" id="_x30_2_x5F_02" xlink:href="568F13558D467169.jpg"  transform="matrix(1.0077 0 0 1.0077 -118.9048 -316.3451)">
				</image>
			</g>
			<g id="_x30_2_x5F_03" style="clip-path:url(#SVGID_00000070095987459647417710000013657250350162899859_);">
				
					<image style="overflow:visible;" width="1014" height="572" id="dLG370_00000014603918361213471260000010106030467351926659_" xlink:href="568F13558D46716A.png"  transform="matrix(0.4284 0 0 0.4284 -159.2177 -305.259)">
				</image>
				<polygon class="st1" points="-159.2,-91.2 -1,-91.6 -1,-76.2 118.9,-76.5 118.9,-91.6 275.2,-91.6 275.2,-33.6 -162.8,-33.6 
									"/>
			</g>
			<g style="clip-path:url(#SVGID_00000070095987459647417710000013657250350162899859_);">
				
					<image style="overflow:visible;" width="1014" height="572" id="_x30_2_x5F_04" xlink:href="568F13558D467169.png"  transform="matrix(0.5268 0 0 0.5268 -260 -311.306)">
				</image>
			</g>
			<g style="clip-path:url(#SVGID_00000070095987459647417710000013657250350162899859_);">
				
					<image style="overflow:visible;" width="340" height="265" id="_x30_2_x5F_05" xlink:href="../../../Volumes/Walkgrove/CURRENT PROJECTS/BTW/BTW1/6_Graphics/01_Travel Wise/assets/00_01_menu/02_bePrepared/00_01_Menu2_Prep_Checklist_o.png"  transform="matrix(1.0078 0 0 1.0078 -113.8657 -306.2669)">
				</image>
			</g>
			<g style="clip-path:url(#SVGID_00000070095987459647417710000013657250350162899859_);">
				
					<image style="overflow:visible;" width="3826" height="2140" id="_x30_3_x5F_01" xlink:href="82ADCB5D6B2E6253.png"  transform="matrix(0.129 0 0 0.129 -152.4282 -306.2936)">
				</image>
			</g>
			<g style="clip-path:url(#SVGID_00000070095987459647417710000013657250350162899859_);">
				
					<image style="overflow:visible;" width="3826" height="2140" id="_x30_3_x5F_02" xlink:href="82ADCB5D6B2E6255.png"  transform="matrix(0.2334 0 0 0.2334 -381.4282 -455.2936)">
				</image>
			</g>
			<g style="clip-path:url(#SVGID_00000070095987459647417710000013657250350162899859_);">
				
					<image style="overflow:visible;" width="3826" height="2140" id="_x30_3_x5F_03" xlink:href="82ADCB5D6B2E6257.png"  transform="matrix(0.1528 0 0 0.1528 -178.3569 -316.2936)">
				</image>
			</g>
			<g style="clip-path:url(#SVGID_00000070095987459647417710000013657250350162899859_);">
				
					<image style="overflow:visible;" width="1280" height="945" id="_x30_3_x5F_04" xlink:href="82ADCB5D6B2E6255.jpg"  transform="matrix(0.2868 0 0 0.2868 -137.497 -307.2936)">
				</image>
			</g>
			<g style="clip-path:url(#SVGID_00000070095987459647417710000013657250350162899859_);">
				
					<image style="overflow:visible;" width="3348" height="2746" id="_x30_3_x5F_05" xlink:href="82ADCB5D6B2E6253.jpg"  transform="matrix(0.1067 0 0 0.1067 -119.4282 -323.2936)">
				</image>
			</g>
			<g style="clip-path:url(#SVGID_00000070095987459647417710000013657250350162899859_);">
				
					<image style="overflow:visible;" width="3826" height="2140" id="_x30_3_x5F_06" xlink:href="82ADCB5D6B2E624D.png"  transform="matrix(0.1271 0 0 0.1271 -185.4282 -306.2936)">
				</image>
			</g>
			
				<g transform="matrix(1 0 0 1 7.629395e-06 0)" style="clip-path:url(#SVGID_00000070095987459647417710000013657250350162899859_);">
				
					<image style="overflow:visible;" width="1808" height="2800" id="_x30_3_x5F_07" xlink:href="82ADCB5D6B2E624F.jpg"  transform="matrix(0.1936 0 0 0.1936 -119.4282 -308.2936)">
				</image>
			</g>
			<g style="clip-path:url(#SVGID_00000070095987459647417710000013657250350162899859_);">
				
					<image style="overflow:visible;" width="4814" height="3103" id="_x30_4_x5F_01" xlink:href="82ADCB5D6B2E624D.jpg"  transform="matrix(9.152063e-02 0 0 9.152063e-02 -122.327 -315.7759)">
				</image>
			</g>
			<g style="clip-path:url(#SVGID_00000070095987459647417710000013657250350162899859_);">
				
					<image style="overflow:visible;" width="4200" height="2800" id="_x30_4_x5F_02" xlink:href="82ADCB5D6B2E6273.jpg"  transform="matrix(0.1011 0 0 0.1011 -134.1097 -314.7759)">
				</image>
			</g>
			<g style="clip-path:url(#SVGID_00000070095987459647417710000013657250350162899859_);">
				
					<image style="overflow:visible;" width="5184" height="3456" id="_x30_4_x5F_03" xlink:href="82ADCB5D6B2E6268.jpg"  transform="matrix(8.333334e-02 0 0 8.333334e-02 -117.8597 -311.7759)">
				</image>
			</g>
			<g style="clip-path:url(#SVGID_00000070095987459647417710000013657250350162899859_);">
				
					<image style="overflow:visible;" width="1017" height="551" id="_x30_5_x5F_01" xlink:href="82ADCB5D6B2E6268.png"  transform="matrix(0.5329 0 0 0.5329 -116.9282 -316.2759)">
				</image>
			</g>
			<g style="clip-path:url(#SVGID_00000070095987459647417710000013657250350162899859_);">
				
					<image style="overflow:visible;" width="1017" height="551" id="_x30_5_x5F_02" xlink:href="82ADCB5D6B2E6269.png"  transform="matrix(0.5152 0 0 0.5152 -206.9282 -310.1737)">
				</image>
			</g>
			<g style="clip-path:url(#SVGID_00000070095987459647417710000013657250350162899859_);">
				
					<image style="overflow:visible;" width="1017" height="551" id="_x30_5_x5F_03" xlink:href="82ADCB5D6B2E6267.png"  transform="matrix(0.5318 0 0 0.5318 -137.8284 -318.2759)">
				</image>
			</g>
		</g>
		<g id="Filler_tiles">
			<defs>
				<rect id="SVGID_00000024682879529738097230000018434927016488052918_" x="239.2" y="-304.2" width="340" height="265"/>
			</defs>
			<clipPath id="SVGID_00000116226735417771269030000012954359605832016041_">
				<use xlink:href="#SVGID_00000024682879529738097230000018434927016488052918_"  style="overflow:visible;"/>
			</clipPath>
			<g style="clip-path:url(#SVGID_00000116226735417771269030000012954359605832016041_);">
				
					<image style="overflow:visible;" width="3097" height="1831" id="_x30_1" xlink:href="82ADCB5D6B2E6298.jpg"  transform="matrix(0.1562 0 0 0.1562 150 -321)">
				</image>
			</g>
			<g style="clip-path:url(#SVGID_00000116226735417771269030000012954359605832016041_);">
				
					<image style="overflow:visible;" width="2000" height="1335" id="_x30_2" xlink:href="82ADCB5D6B2E629B.jpg"  transform="matrix(0.2068 0 0 0.2068 174 -310.8575)">
				</image>
			</g>
			<g style="clip-path:url(#SVGID_00000116226735417771269030000012954359605832016041_);">
				
					<image style="overflow:visible;" width="3900" height="2600" id="_x30_3" xlink:href="82ADCB5D6B2E6299.jpg"  transform="matrix(0.15 0 0 0.15 227 -311)">
				</image>
			</g>
			<g style="display:none;clip-path:url(#SVGID_00000116226735417771269030000012954359605832016041_);">
				
					<image style="display:inline;overflow:visible;" width="5472" height="3648" id="_x30_4" xlink:href="82ADCB5D6B2E629F.jpg"  transform="matrix(9.100877e-02 0 0 9.100877e-02 192.5 -365)">
				</image>
			</g>
			
				<g transform="matrix(1 0 0 1 1.525879e-05 0)" style="clip-path:url(#SVGID_00000116226735417771269030000012954359605832016041_);">
				
					<image style="overflow:visible;" width="5304" height="3537" id="_x30_5" xlink:href="82ADCB5D6B2E629A.jpg"  transform="matrix(0.1035 0 0 0.1035 227 -309)">
				</image>
			</g>
			<g style="clip-path:url(#SVGID_00000116226735417771269030000012954359605832016041_);">
				
					<image style="overflow:visible;" width="5000" height="3337" id="_x30_6" xlink:href="82ADCB5D6B2E62A5.jpg"  transform="matrix(0.1087 0 0 0.1087 57 -343)">
				</image>
			</g>
		</g>
	</g>
	<g id="states">
		<g id="START_STATES" class="st2">
			<g id="_x31__00000169547448512420967130000004417831112784668301_">
				
					<linearGradient id="SVGID_00000044891395605125909410000014650661884860023197_" gradientUnits="userSpaceOnUse" x1="-113" y1="-172.5" x2="227" y2="-172.5">
					<stop  offset="0" style="stop-color:#000000"/>
					<stop  offset="0.8178" style="stop-color:#FFFFFF"/>
				</linearGradient>
				
					<rect x="-113" y="-305" style="fill:url(#SVGID_00000044891395605125909410000014650661884860023197_);" width="340" height="265"/>
			</g>
		</g>
	</g>
</g>
<g id="ZTMP">
	<g>
		<g id="_x31__00000101817309052571646810000014662477588700072631_">
			<rect x="881.2" y="-86.8" width="340" height="157"/>
		</g>
		<g id="_x32__00000173868777854531537740000015817972212904649866_">
			<rect x="1581.2" y="-85.8" width="340" height="169"/>
		</g>
		<g id="_x33__00000028289550790641153880000015689473812557585324_">
			<rect x="1231.2" y="457.2" width="340" height="176"/>
		</g>
		
			<rect id="BAR_BTM_00000071544414267492979530000002225683571253398147_" x="611.2" y="691.2" class="st4" width="1340" height="10"/>
		<g id="_x30_7_-_Slct_00000096024781236458390980000015436932132182561439_">
			<defs>
				<rect id="SVGID_00000139294673188671340580000012305188693144787601_" x="1231.2" y="391.2" width="340" height="242"/>
			</defs>
			<clipPath id="SVGID_00000150808220710447834070000010320314776138877078_">
				<use xlink:href="#SVGID_00000139294673188671340580000012305188693144787601_"  style="overflow:visible;"/>
			</clipPath>
			<g style="clip-path:url(#SVGID_00000150808220710447834070000010320314776138877078_);">
				
					<image style="overflow:visible;" width="1920" height="1080" xlink:href="82ADCB5D6B2E62BF.jpg"  transform="matrix(0.1803 0 0 0.1803 1226.248 388.1855)">
				</image>
			</g>
			
				<linearGradient id="SVGID_00000147198084884967960790000008268361825889129344_" gradientUnits="userSpaceOnUse" x1="1238.3364" y1="527.323" x2="1238.3364" y2="327.323" gradientTransform="matrix(1.1333 0 0 1.325 -2.2 -65.5174)">
				<stop  offset="0" style="stop-color:#010000"/>
				<stop  offset="8.442867e-02" style="stop-color:#1A0A04;stop-opacity:0.9156"/>
				<stop  offset="0.3347" style="stop-color:#60280E;stop-opacity:0.6653"/>
				<stop  offset="0.5604" style="stop-color:#973F17;stop-opacity:0.4396"/>
				<stop  offset="0.7535" style="stop-color:#BF4F1D;stop-opacity:0.2465"/>
				<stop  offset="0.9063" style="stop-color:#D75921;stop-opacity:9.367311e-02"/>
				<stop  offset="1" style="stop-color:#E05D22;stop-opacity:0"/>
			</linearGradient>
			
				<rect x="1231.2" y="368.2" style="display:none;opacity:0.75;clip-path:url(#SVGID_00000150808220710447834070000010320314776138877078_);fill:url(#SVGID_00000147198084884967960790000008268361825889129344_);" width="340" height="265"/>
			
				<rect x="1229.7" y="559.7" style="clip-path:url(#SVGID_00000150808220710447834070000010320314776138877078_);" width="344" height="75"/>
		</g>
		<g id="_x30_3_-_Slct_00000039813874536016618980000015645017180553446804_">
			<defs>
				<rect id="SVGID_00000137119579855773867900000007236476864189588922_" x="1581.2" y="-86.8" width="340" height="231"/>
			</defs>
			<clipPath id="SVGID_00000121996346481070671200000005952606607911174572_">
				<use xlink:href="#SVGID_00000137119579855773867900000007236476864189588922_"  style="overflow:visible;"/>
			</clipPath>
			<g style="clip-path:url(#SVGID_00000121996346481070671200000005952606607911174572_);">
				
					<image style="overflow:visible;" width="6645" height="4435" xlink:href="82ADCB5D6B2E62BD.jpg"  transform="matrix(6.141857e-02 0 0 6.141857e-02 1567.1216 -143.8373)">
				</image>
			</g>
			
				<rect x="1578.7" y="73.7" style="clip-path:url(#SVGID_00000121996346481070671200000005952606607911174572_);" width="344" height="75"/>
		</g>
		<g id="_x30_1_-_Slct_00000025440705834223593310000007501658436861163911_">
			<defs>
				<rect id="SVGID_00000152238259212860988460000017728449804910233790_" x="881.2" y="-86.8" width="340" height="231"/>
			</defs>
			<clipPath id="SVGID_00000013185335322390266270000014279183680555228853_">
				<use xlink:href="#SVGID_00000152238259212860988460000017728449804910233790_"  style="overflow:visible;"/>
			</clipPath>
			
				<g id="STATIC_4_00000003783238317414715660000005994570481604970671_" style="clip-path:url(#SVGID_00000013185335322390266270000014279183680555228853_);">
				<defs>
					<rect id="SVGID_00000069358403824152008490000015777681744417618856_" x="871.2" y="-128.8" width="416" height="277"/>
				</defs>
				<clipPath id="SVGID_00000055682372588872496220000008910737751973182632_">
					<use xlink:href="#SVGID_00000069358403824152008490000015777681744417618856_"  style="overflow:visible;"/>
				</clipPath>
				<g style="clip-path:url(#SVGID_00000055682372588872496220000008910737751973182632_);">
					
						<image style="overflow:visible;" width="2000" height="1381" xlink:href="82ADCB5D6B2E6283.jpg"  transform="matrix(0.22 0 0 0.22 858.248 -165.8145)">
					</image>
				</g>
			</g>
			
				<linearGradient id="SVGID_00000163063496029789154140000004574940940507544465_" gradientUnits="userSpaceOnUse" x1="929.5129" y1="112.2287" x2="929.5129" y2="-87.7713" gradientTransform="matrix(1.1333 0 0 1.325 -2.2 -65.5174)">
				<stop  offset="0" style="stop-color:#010000"/>
				<stop  offset="8.442867e-02" style="stop-color:#1A0A04;stop-opacity:0.9156"/>
				<stop  offset="0.3347" style="stop-color:#60280E;stop-opacity:0.6653"/>
				<stop  offset="0.5604" style="stop-color:#973F17;stop-opacity:0.4396"/>
				<stop  offset="0.7535" style="stop-color:#BF4F1D;stop-opacity:0.2465"/>
				<stop  offset="0.9063" style="stop-color:#D75921;stop-opacity:9.367311e-02"/>
				<stop  offset="1" style="stop-color:#E05D22;stop-opacity:0"/>
			</linearGradient>
			
				<rect x="881.2" y="-181.8" style="display:none;opacity:0.75;clip-path:url(#SVGID_00000013185335322390266270000014279183680555228853_);fill:url(#SVGID_00000163063496029789154140000004574940940507544465_);" width="340" height="265"/>
			
				<rect x="879.7" y="70.7" style="clip-path:url(#SVGID_00000013185335322390266270000014279183680555228853_);" width="344" height="75"/>
			
				<rect x="1162.2" y="69.7" style="clip-path:url(#SVGID_00000013185335322390266270000014279183680555228853_);fill:#FFFFFF;" width="61.5" height="75"/>
		</g>
		<g id="MENU_TEXT_00000149379838051973780730000005116344434386978231_">
			<path id="Arrow_00000004519731617891617860000011492839448761590672_" class="st11" d="M1200.6,105.6l-11.2,11.2
				c-0.5,0.5-1.3,0.5-1.9,0l0,0c-0.5-0.5-0.5-1.3,0-1.9l9.4-9.3c0.5-0.5,0.5-1.3,0-1.9l-9.4-9.3c-0.5-0.5-0.5-1.3,0-1.9l0,0
				c0.5-0.5,1.3-0.5,1.9,0l11.2,11.2C1201.2,104.3,1201.2,105.1,1200.6,105.6z"/>
			<rect x="901.2" y="96.5" style="fill:none;" width="231.5" height="24.8"/>
			
				<text id="Opt1_00000107578053336987352020000016863238749216134052_" transform="matrix(1 0 0 1 901.248 110.7554)" class="st13" style="font-family:'AkzidenzGrotesk-Black'; font-size:20px;">Why be travel wise?</text>
			<rect x="1601.2" y="96.5" style="fill:none;" width="231.5" height="24.8"/>
			
				<text id="Opt2_00000130642196057997040550000010801685752992487318_" transform="matrix(1 0 0 1 1601.248 110.7554)" class="st13" style="font-family:'AkzidenzGrotesk-Black'; font-size:20px;">Compliance</text>
			<path id="Arrow_00000015335759053888715710000010658186089620705430_" class="st11" d="M1550.6,606.6l-11.2,11.2
				c-0.5,0.5-1.3,0.5-1.9,0l0,0c-0.5-0.5-0.5-1.3,0-1.9l9.4-9.3c0.5-0.5,0.5-1.3,0-1.9l-9.4-9.3c-0.5-0.5-0.5-1.3,0-1.9l0,0
				c0.5-0.5,1.3-0.5,1.9,0l11.2,11.2C1551.2,605.3,1551.2,606.1,1550.6,606.6z"/>
			<rect x="1251.2" y="572.7" style="fill:none;" width="194.7" height="48.7"/>
			<text id="Opt3_00000039828014420061523000000003230527818827364788_" transform="matrix(1 0 0 1 1251.248 586.9253)"><tspan x="0" y="0" class="st13" style="font-family:'AkzidenzGrotesk-Black'; font-size:20px;">Why are  </tspan><tspan x="0" y="24" class="st13" style="font-family:'AkzidenzGrotesk-Black'; font-size:20px;">travellers targeted?</tspan></text>
		</g>
		<g id="vid_icon_00000072966360019597677830000002534098291489496485_">
			<g class="st12">
				<path d="M1543.2,424.2h-26c-1.1,0-2-0.9-2-2v-16c0-1.1,0.9-2,2-2h26c1.1,0,2,0.9,2,2v16C1545.2,423.3,1544.4,424.2,1543.2,424.2
					z"/>
				<polygon points="1556.2,423.8 1542.6,414.2 1556.2,404.5 				"/>
			</g>
			<g>
				<g>
					<path class="st13" d="M1543.2,422.2h-26c-1.1,0-2-0.9-2-2v-16c0-1.1,0.9-2,2-2h26c1.1,0,2,0.9,2,2v16
						C1545.2,421.3,1544.4,422.2,1543.2,422.2z"/>
					<polygon class="st13" points="1556.2,421.8 1542.6,412.2 1556.2,402.5 					"/>
				</g>
			</g>
		</g>
		<g id="_x30_4_00000050637931031686734460000009544442931885987251_">
			<defs>
				<rect id="SVGID_00000108301686169135348660000003778168405978202807_" x="1231.2" y="152.2" width="340" height="231"/>
			</defs>
			<clipPath id="SVGID_00000078749925301261504330000005770392927915418010_">
				<use xlink:href="#SVGID_00000108301686169135348660000003778168405978202807_"  style="overflow:visible;"/>
			</clipPath>
			<g style="clip-path:url(#SVGID_00000078749925301261504330000005770392927915418010_);">
				
					<image style="overflow:visible;" width="2000" height="1335" id="shutterstock_x5F_102068089_x5F_EDIT.psd_00000161597890067412382070000017404119279427152015_" xlink:href="82ADCB5D6B2E6285.jpg"  transform="matrix(0.2276 0 0 0.2276 1197.248 112.1855)">
				</image>
			</g>
			
				<rect x="1231.3" y="152" style="opacity:0.6;clip-path:url(#SVGID_00000078749925301261504330000005770392927915418010_);fill:#E05D22;" width="340.1" height="231.2"/>
		</g>
		<polyline class="st15" points="1875.2,112.2 1884,120.7 1901.4,103.3 		"/>
		<g id="_x30_8_00000029018340477062189580000006562365967191350667_">
			<defs>
				<rect id="SVGID_00000103230957752901848640000006513936665638638740_" x="1581.2" y="391.2" width="340" height="242"/>
			</defs>
			
				<use xlink:href="#SVGID_00000103230957752901848640000006513936665638638740_"  style="overflow:visible;opacity:0.9;fill:#E4E4E4;"/>
			<clipPath id="SVGID_00000084494650354402853230000008898680573096962481_">
				<use xlink:href="#SVGID_00000103230957752901848640000006513936665638638740_"  style="overflow:visible;opacity:0.9;"/>
			</clipPath>
			
				<g id="shutterstock_x5F_200536331_x5F_EDIT.psd_00000145771978171758340800000009386240010654870915_" style="clip-path:url(#SVGID_00000084494650354402853230000008898680573096962481_);">
				
					<image style="overflow:visible;" width="2000" height="1333" id="shutterstock_x5F_200536331_x5F_EDIT" xlink:href="82ADCB5D6B2E6287.png"  transform="matrix(0.2325 0 0 0.2325 1481.2301 371.2124)">
				</image>
			</g>
		</g>
		<g>
			<defs>
				<rect id="SVGID_00000148631756526166932300000008167588467916037023_" x="881.2" y="391.2" width="340" height="242"/>
			</defs>
			<clipPath id="SVGID_00000173872178894125900060000003175274334695378064_">
				<use xlink:href="#SVGID_00000148631756526166932300000008167588467916037023_"  style="overflow:visible;"/>
			</clipPath>
			
				<g id="_x30_6_00000064319447010781542240000006611923770438350505_" style="clip-path:url(#SVGID_00000173872178894125900060000003175274334695378064_);">
				<g id="_x3C_Group_x3E__00000156546742652059814960000008996131933212261814_">
					<g id="shutterstock_x5F_97356140_x5F_EDIT.psd_00000119105815850023647130000013981991210511705757_">
						
							<image style="overflow:visible;" width="2000" height="1333" id="shutterstock_x5F_97356140_x5F_EDIT" xlink:href="82ADCB5D6B2E6285.png"  transform="matrix(0.234 0 0 0.234 871.23 391.2126)">
						</image>
					</g>
				</g>
			</g>
		</g>
		<g id="_x30_5_00000155145261573095049840000002730207905933555116_">
			<defs>
				<rect id="SVGID_00000023266534740296060190000005548104008943476616_" x="1581.2" y="152.2" width="340" height="231"/>
			</defs>
			
				<use xlink:href="#SVGID_00000023266534740296060190000005548104008943476616_"  style="overflow:visible;opacity:0;fill:#E4E4E4;"/>
			<clipPath id="SVGID_00000137116469409532643410000014823952547916074116_">
				<use xlink:href="#SVGID_00000023266534740296060190000005548104008943476616_"  style="overflow:visible;opacity:0;"/>
			</clipPath>
			
				<g id="shutterstock_x5F_213739450_x5F_EDIT.psd_00000009560421278675183300000003625073825293893545_" style="clip-path:url(#SVGID_00000137116469409532643410000014823952547916074116_);">
				
					<image style="overflow:visible;" width="2000" height="1335" id="shutterstock_x5F_213739450_x5F_EDIT" xlink:href="82ADCB5D6B2E6283.png"  transform="matrix(0.254 0 0 0.254 1463 98)">
				</image>
			</g>
			
				<rect x="1581.3" y="153" style="opacity:0.6;clip-path:url(#SVGID_00000137116469409532643410000014823952547916074116_);fill:#E05D22;" width="340.1" height="231.2"/>
		</g>
		<g id="_x30_4_00000013185397043094868670000006762668504903450246_">
			<defs>
				<rect id="SVGID_00000163049636170163413260000012520791092885107131_" x="881.2" y="153.2" width="340" height="230"/>
			</defs>
			
				<use xlink:href="#SVGID_00000163049636170163413260000012520791092885107131_"  style="overflow:visible;opacity:0;fill:#E4E4E4;"/>
			<clipPath id="SVGID_00000082360785899025131740000006219922379023109039_">
				<use xlink:href="#SVGID_00000163049636170163413260000012520791092885107131_"  style="overflow:visible;opacity:0;"/>
			</clipPath>
			
				<g id="shutterstock_x5F_102068089_x5F_EDIT.psd_00000152244310978501231220000005031032888963638665_" style="clip-path:url(#SVGID_00000082360785899025131740000006219922379023109039_);">
				
					<image style="overflow:visible;" width="2000" height="1334" id="shutterstock_x5F_102068089_x5F_EDIT" xlink:href="82ADCB5D6B2E628D.png"  transform="matrix(0.2277 0 0 0.2277 876.2632 116.1627)">
				</image>
			</g>
		</g>
		<g id="_x30_2_00000106866098053132124870000003577370137648132261_">
			<defs>
				<rect id="SVGID_00000087384127000069369010000017338233037269343407_" x="1231.2" y="-86.8" width="340" height="231"/>
			</defs>
			
				<use xlink:href="#SVGID_00000087384127000069369010000017338233037269343407_"  style="overflow:visible;opacity:0;fill:#E4E4E4;"/>
			<clipPath id="SVGID_00000156558411125655736430000014643291174459444645_">
				<use xlink:href="#SVGID_00000087384127000069369010000017338233037269343407_"  style="overflow:visible;opacity:0;"/>
			</clipPath>
			
				<g id="shutterstock_x5F_104265674_x5F_EDIT.psd_00000133493801177481023940000017738256923719354528_" style="clip-path:url(#SVGID_00000156558411125655736430000014643291174459444645_);">
				
					<image style="overflow:visible;" width="2000" height="1182" id="shutterstock_x5F_104265674_x5F_EDIT" xlink:href="82ADCB5D6B2E628F.png"  transform="matrix(0.2363 0 0 0.2363 1166.2255 -128.7765)">
				</image>
			</g>
		</g>
		<g id="MENU_BAR_00000010277886746727244460000016163256588320976291_">
			<path class="st4" d="M1731.2-183.8h63.2c0-0.8-0.1-3.3-2-5c0.4-0.9,0.6-1.3,0.4-3.9c0.2-0.2,0.1-0.6-0.2-0.5
				c-0.3,0.1-1.6,1.4-2.1,1.7c-0.5,0-0.9-0.1-1.5,0.4c-0.8,0-1.6,0.1-1.6,0.1s1.9-1.5,1.5-4.7c-0.4-3.2-3.1-3.6-4.3-3.6
				c-1.3,0-3.5,0.1-4.2,0.6c-0.2-0.5-0.4-1.6-1.9-0.9c-0.8,0-2,0-2,0s-0.7-0.5-1.3-0.3c0.6-0.6,1.5-2.2,1.9-3.2
				c0.5-0.1,0.6-0.6,0.2-1.1c0-0.4-0.2-2.7-0.2-2.7s0.6-1.1-0.1-1.4c-0.1-0.5-0.1-1-0.1-1s0.4-0.5-0.3-2.1c0-0.7-0.2-2-0.2-2
				s0.6-0.5-0.2-1.7c0-0.6-0.1-1.4-0.1-1.4s0.3-0.7-0.3-1.2c-0.2-0.7-0.5-2.1-1.5-2.6c-1.1-0.5-3.2-1.1-4.2-1.3
				c-1.1-0.2-2.5-0.6-2.5-0.6s-0.7-0.8-1.5-0.3c-0.5-0.3-1.4-1.3-0.8-3.5c0.2-0.5,0.4,0,0.3,0.3c0,0.3,0.2,1.5,0.7,1.5
				c0.5,0,0.2-0.4,0.2-1.1c-0.1-0.7-0.1-2,0.2-3.1c0.3-1.1,1.1-2.9,1.1-3.9c0-1-0.2-1-0.5-0.6c0-0.8,0-1,0.1-2
				c0.1-0.9,0.1-3.6-1.7-4.9c-1.8-1.2-2.5-2-2.7-3c-0.2-1,0.2-2.9-0.5-3.2c0-1,0.1-2.4-0.5-2.6c-0.1-0.7,0.1-1.9-0.5-2
				c0-0.6,0-2.9-0.6-2.9c-0.6,0-0.5,2.4-0.5,2.8c-0.3,0.1-0.6-0.1-0.3,2.5c-0.2,0-0.6,0-0.3,2.3c-0.4,0-0.6,0.1-0.5,2.4
				c0,2.3-1.5,3-2.2,3.6c-0.7,0.6-1.9,0.8-1.8,4.7c0,0.8,0.1,1.8,0.1,1.8c-0.4,0-1.1-0.1-0.7,1.3c0.4,1.4,0.9,2.7,1.1,3.3
				c0.2,0.6,0.4,1.8,0.4,2.9c0,1-0.2,1.4,0.1,1.4c0.2,0.1,1,0.2,0.9-2.2c0.2,0.2,0.6,0.5,0.7,1.6c0.1,1.2-0.5,2.4-1.1,2.7
				c-0.6,0.2-3.8,0.7-4.5,0.9c-0.7,0.2-4.8,0.2-5.2,4c-0.5,3.8-0.6,8.2-0.7,9.9c-0.1,1.8-0.6,4.3,0.7,5.6c1.3,1.3,2.8,2.5,6.1,3.4
				c-1.4,0-5,0-7.3-0.2c-2.3-0.3-4.6-0.4-5.6-0.3c-1,0-4.2-0.3-4.7,4.4c-0.1,2.8,1.2,4,1.4,4.1c-0.6,0-0.7-0.1-0.9-0.2
				c-0.2-0.1-0.6-0.4-1.3-0.1c-0.2-0.3-0.7-1.1-1.3-0.7c-0.3-0.6-1-1.4-1.8-1.2c-0.1,0.1-0.1,0.4,0.2,0.4c0,0.2-0.3,3.1,1,4.2
				C1732.2-188.1,1730.8-187.9,1731.2-183.8z M1751.1-204.9c0.4-1.4,1.5-7.6,1.5-7.6c0.6,0.4,0.9,1.3,1.1,1.7c0.1,0.4,0.4,0.8,0.2,1
				c-0.2,0.2,0.1,0.8,0.3,1.1c0.2,0.3,0.4,1,0.3,1c-0.1,0-0.3,0.1-0.3,0.7c0,0.6,0.6,1.4,0.6,1.8c0.1,0.4,0,1.5-0.2,1.5
				c-0.2,0-0.3,0.3-0.6,0.7C1753.1-203.7,1751.3-204.6,1751.1-204.9z"/>
			<path class="st4" d="M1833.2-194.7v-1.8v-1.3h-0.8c-1.3-4-2.2-8-2.9-11h0.7v-1h-1.1c-1.4-8-1.9-29.5-1.9-29.5v-5.8l0.1-2.7h-0.1
				l0,0l0,0v-2h-0.4h-0.2l-1.4-0.7v-3.3l0,0v-3l0,0v3l0,0v3.3l-1.4,0.7h-0.1h-0.4v2l0,0l0,0h-0.3l0.7,2.6l0.1,6.2
				c0,0-0.2,19.2-2.4,29.2h-1.1v1h0.8c-0.6,4-1.7,8-3,11h-0.9v1.3v1.6c-3,5.4-5.2,9.1-5.7,10.1h-1.3v1h6v-1h-0.1c0.4-1,1.9-7,9-7
				c6.9,0,9,6,9.3,7h-0.3v1h6v-1h-1.2C1836.7-187.8,1835.2-191.3,1833.2-194.7z M1821.8-197.8c0.8-2,1.7-8,1.7-8s1.8,0,3.6,0
				c0.2,3,1.5,7,1.7,8H1821.8z"/>
			<path class="st4" d="M1858.1-224.9l0.1,41.1h5.3l-0.1-0.5l9-0.3c0,0.2-0.1,0.5-0.1,0.8h1.6c0.1-0.3,0.1-1,0.2-1h0.7
				c-0.1,0-0.1,0.7-0.2,1h0.3c0.1-0.3,0.1-0.6,0.2-0.9l1.9,0c-0.1,0.3-0.1,0.6-0.2,0.9h2.6c-0.4-0.8-0.2-2.4,0.3-2.8
				c-0.1-0.7,0.3-2.8,0.8-3.3c-0.5-1.1,0.2-2.6,0.7-3.2c-0.4-1.1,0-2.8,0.4-3.6c-0.5-1-0.1-2.6,0.2-3.5c-0.3-1.2-0.3-2.6,0.2-3.5
				c-0.8-1.2-0.3-2.7-0.1-3.3c-1-1.3-0.7-2.7-0.4-3.4c-1.1-1.5-1-2.6-0.7-3.1c-0.9-1.3-1-2.6-0.8-3.2c-1.5-1.9-1.1-2.8-0.8-3.3
				c-1.9-1.8-1.6-3.1-1.6-3.1s0-0.3-0.9-1.2c-1-0.9-1.3-3-1.3-3l1.7-3.1c0,0,1.5,0,2.4-0.1c0.9-0.1,0.3-0.8,0-1
				c-2.2-0.6-5.5,0.3-6.4,0.5l-2.2-0.7c-6.2-9.4-11.2-13-11.2-13l-0.3-11l-1.1,1.5l0.1,8.8l-0.3,0c0,0,0,13.2,0,15.8
				c-1.7-0.5-3.8,0.6-3.8,0.6l0.3,1.1L1858.1-224.9z M1861.4-223.2l9.9-1.2c0.2,0.4,0.3,0.9,0.4,1.3l-10.2,1.2L1861.4-223.2z
				 M1861.5-221.6l10.3-1.2c0.1,0.4,0.3,0.9,0.4,1.3l-10.6,1.1L1861.5-221.6z M1861.6-219.9l10.7-1.2c0.1,0.4,0.2,0.8,0.3,1.3
				l-11,1.2L1861.6-219.9z M1872.4-227.9c0.1,0.2,0.2,0.4,0.3,0.6h-0.1C1872.5-227.5,1872.5-227.7,1872.4-227.9z M1861.6-218.3
				l11.1-1.2c0.1,0.4,0.2,0.8,0.3,1.3l-11.3,1.1L1861.6-218.3z M1876.9-198.8c0,0.5-0.1,0.9-0.1,1.4l-0.7,0c0.1-1,0.2-2.1,0.2-3.1
				l0.8,0.2C1877-199.9,1876.9-199.8,1876.9-198.8l-0.7,0l0,0.2L1876.9-198.8z M1875.5-188.2c-0.1,0.5-0.2,0.9-0.3,1.4l-0.7,0
				c0.1-0.5,0.2-1,0.3-1.5v0.1L1875.5-188.2z M1874.9-188.5c0.1-0.5,0.2-0.9,0.2-1.4l0.7,0c-0.1,0.5-0.2,0.9-0.3,1.4L1874.9-188.5z
				 M1875.2-190.3c0.1-0.5,0.2-1,0.2-1.5l0.7,0c-0.1,0.5-0.2,1-0.3,1.5L1875.2-190.3z M1875.5-192.2c0.1-0.5,0.1-0.9,0.2-1.4
				l0.7-0.1c-0.1,0.5-0.1,1-0.2,1.4L1875.5-192.2z M1875.7-193.9c0.1-0.5,0.1-1.1,0.2-1.6v0.2l0.7,0c0,0.5-0.1,0.9-0.2,1.4
				L1875.7-193.9z M1875.9-195.7c0-0.5,0.1-0.9,0.1-1.4l0.7,0c-0.1,0.4-0.1,0.9-0.1,1.3L1875.9-195.7z M1876.2-200.9
				c0-0.5,0-1,0-1.4l0.8,0c0,0.5,0,0.9-0.1,1.4L1876.2-200.9z M1876.3-202.6c0-0.4,0-0.9,0-1.3l0.8,0c0,0.4,0,0.9,0,1.3
				L1876.3-202.6z M1876.3-204.3c0-0.4,0-0.9,0-1.3l0.9,0c0,0.4,0,0.9,0,1.4L1876.3-204.3z M1876.2-206c0-0.4,0-0.9-0.1-1.3l0.9-0.1
				c0,0.5,0,0.9,0,1.4L1876.2-206z M1876.2-207.7L1876.2-207.7c0-0.4-0.1-0.9-0.1-1.3l0.9-0.1c0,0.4,0.1,0.9,0.1,1.3L1876.2-207.7z
				 M1876.1-209.4c0-0.4-0.1-0.9-0.1-1.3h0.9c0,0.4,0.1,0.8,0.1,1.3L1876.1-209.4z M1875.9-211c0-0.5-0.1-0.9-0.1-1.4l0.9,0
				c0,0.5,0.1,0.9,0.1,1.4H1875.9z M1875.8-212.7c-0.1-0.4-0.1-0.9-0.2-1.3l0.9-0.1c0.1,0.4,0.1,0.9,0.2,1.3L1875.8-212.7z
				 M1875.6-214.4c-0.1-0.4-0.1-0.9-0.2-1.3l0.8,0c0.1,0.4,0.1,0.8,0.2,1.2L1875.6-214.4z M1875.3-216.1c-0.1-0.4-0.1-0.9-0.2-1.3
				l0.8,0c0.1,0.4,0.2,0.9,0.3,1.3L1875.3-216.1z M1875-217.7c-0.1-0.4-0.1-0.8-0.2-1.2l0.7-0.1c0.1,0.4,0.2,0.8,0.3,1.3L1875-217.7
				z M1874.7-219.2c-0.1-0.4-0.2-0.9-0.3-1.3l0.6,0c0.1,0.4,0.2,0.9,0.3,1.3L1874.7-219.2z M1874.4-220.9c-0.1-0.5-0.2-0.9-0.3-1.3
				l0.5,0c0.1,0.4,0.3,0.8,0.4,1.3L1874.4-220.9z M1874-222.6c-0.1-0.4-0.2-0.8-0.3-1.2l0.4,0c0.1,0.4,0.3,0.8,0.4,1.2L1874-222.6z
				 M1873.6-224.1c-0.1-0.4-0.3-0.9-0.4-1.3l0.3,0c0.2,0.4,0.3,0.8,0.5,1.3H1873.6z M1873.1-225.7c-0.1-0.4-0.3-0.8-0.4-1.2h0.1l0,0
				c0.2,0.4,0.4,0.8,0.5,1.2L1873.1-225.7z M1861.7-216.8l0,0.2l11.4-1.2c0.1,0.4,0.2,0.9,0.3,1.3l-11.6,1.1l0,0.3l11.6-1.1
				c0.1,0.4,0.1,0.9,0.2,1.3l-11.8,1.1l0,0.3l11.8-1.1c0.1,0.4,0.1,0.9,0.2,1.3l-12,1L1861.7-216.8z M1861.9-211.8l12-1
				c0.1,0.4,0.1,0.9,0.2,1.3l-12.1,1L1861.9-211.8z M1862-210.2l12.1-1c0,0.4,0.1,0.9,0.1,1.3l-12.2,1L1862-210.2z M1862.1-208.6
				l12.2-1c0,0.4,0.1,0.9,0.1,1.3l-12.3,0.9L1862.1-208.6z M1862.1-207l12.3-0.9c0,0.4,0,0.9,0.1,1.3l-12.3,0.9L1862.1-207z
				 M1862.2-205.3l12.3-0.9c0,0.4,0,0.9,0,1.3l-12.2,0.8L1862.2-205.3z M1862.3-203.7l12.2-0.8c0,0.4,0,0.9,0,1.3l-12.2,0.8
				L1862.3-203.7z M1862.3-202.1l12.2-0.8c0,0.4,0,0.8,0,1.3l-12.1,0.8L1862.3-202.1z M1862.4-200.5l12-0.8c0,0.5,0,0.9,0,1.4
				l-11.9,0.7L1862.4-200.5z M1862.5-198.9l11.9-0.7c0,0.2,0,0.4-0.1,0.6l-11.8,0.7L1862.5-198.9z M1862.6-196.8l11.7-0.6
				c0,0.3,0,0.6-0.1,0.9l-11.6,0.6L1862.6-196.8z M1872.4-184.9l-9.2,0.3l-0.3-1.1l0-0.2l9.7-0.3
				C1872.6-185.8,1872.5-185.4,1872.4-184.9z M1872.8-186.6l-9.8,0.3l0-1.3l10.1-0.4C1872.9-187.4,1872.8-187,1872.8-186.6z
				 M1873.1-188.2l-10.2,0.4l0-1.3l10.4-0.4C1873.2-189.1,1873.1-188.7,1873.1-188.2z M1873.3-189.9l-10.5,0.4l0-1.3l10.7-0.5
				C1873.5-190.8,1873.4-190.4,1873.3-189.9z M1873.6-191.6l-10.8,0.5l-0.1-1.3l11-0.5C1873.7-192.4,1873.7-192,1873.6-191.6z
				 M1873.8-193.2l-11.1,0.5l-0.1-1.3l11.3-0.6C1873.9-194.1,1873.9-193.7,1873.8-193.2z M1874-194.9l-11.3,0.6l-0.1-1.3l11.5-0.6
				C1874.1-195.8,1874-195.4,1874-194.9z M1874.8-185.1l-0.7,0c0.1-0.5,0.2-0.9,0.3-1.4l0.7,0C1875-186,1874.9-185.5,1874.8-185.1z
				 M1877.1-184.8h-1.9c0.1-1,0.2-1,0.3-1.5l1.9,0C1877.3-185.8,1877.2-185.8,1877.1-184.8z M1877.4-186.9l-1.9,0.1
				c0.1-0.5,0.2-0.9,0.3-1.4l1.9,0C1877.6-187.8,1877.5-187.3,1877.4-186.9z M1877.7-188.6l-1.9,0c0.1-0.5,0.2-0.9,0.3-1.4l1.8,0
				C1877.9-189.5,1877.8-189.1,1877.7-188.6z M1878-190.4l-1.8,0c0.1-0.5,0.2-1,0.2-1.5l1.8,0C1878.1-191.3,1878.1-190.8,1878-190.4
				z M1878.2-192.1l-1.8,0c0.1-0.5,0.1-1,0.2-1.4l1.8,0.1C1878.4-193,1878.3-192.6,1878.2-192.1z M1878.5-193.8l-1.8-0.1
				c0.1-0.5,0.1-0.9,0.2-1.4l1.7,0.2C1878.6-194.7,1878.5-194.3,1878.5-193.8z M1878.6-195.5l-1.7-0.2c0.1-0.4,0.1-0.9,0.1-1.3
				l1.7,0.2C1878.8-196.4,1878.7-195.9,1878.6-195.5z M1878.8-197.2l-1.7-0.2c0-0.5,0.1-0.9,0.1-1.4l1.7,0.2
				C1878.9-198.2,1878.8-197.7,1878.8-197.2z M1878.9-199l-1.7-0.2c0-0.5,0.1-0.9,0.1-1.4l1.7,0.2C1879-199.9,1879-199.4,1878.9-199
				z M1879-200.6l-1.7-0.2c0-0.5,0.1-0.9,0.1-1.4l1.7,0.3C1879.1-201.5,1879.1-201.1,1879-200.6z M1879.1-202.3l-1.7-0.3
				c0-0.4,0-0.9,0-1.3l1.6,0.1C1879.1-203.3,1879.1-202.8,1879.1-202.3z M1879.1-204.1l-1.6-0.1c0-0.5,0-0.9,0-1.3l1.6,0.3
				C1879.1-204.9,1879.1-204.6,1879.1-204.1z M1879.1-205.7l-1.6-0.3c0-0.5,0-0.9,0-1.4l1.6,0.3
				C1879.1-206.6,1879.1-206.2,1879.1-205.7z M1879.1-207.4l-1.6-0.3c0-0.4,0-0.9-0.1-1.3l1.6,0.3
				C1879-208.3,1879-207.9,1879.1-207.4z M1878.9-210.3c0,0.4,0.1,0.8,0.1,1.2l-1.6-0.3c0-0.4-0.1-0.8-0.1-1.2L1878.9-210.3z
				 M1878.8-210.7l-1.6-0.3c-0.1-0.5-0.1-0.9-0.1-1.4l1.7,0.4C1878.8-211.5,1878.8-211.1,1878.8-210.7z M1878.7-212.3l-1.7-0.4
				c-0.1-0.4-0.1-0.9-0.2-1.3l1.7,0.4C1878.6-213.2,1878.6-212.8,1878.7-212.3z M1878.5-214l-1.7-0.4c-0.1-0.4-0.1-0.8-0.2-1.2
				l1.7,0.4C1878.3-214.8,1878.4-214.4,1878.5-214z M1878.2-215.6l-1.7-0.4c-0.1-0.4-0.2-0.9-0.2-1.3l1.7,0.5
				C1878.1-216.4,1878.1-216,1878.2-215.6z M1877.7-218.4c0.1,0.4,0.2,0.8,0.3,1.2l-1.7-0.5c-0.1-0.4-0.2-0.8-0.3-1.2L1877.7-218.4z
				 M1877.6-218.8l-1.7-0.5c-0.1-0.4-0.2-0.9-0.3-1.3l1.7,0.4C1877.3-219.7,1877.4-219.2,1877.6-218.8z M1876.8-221.7
				c0.1,0.4,0.2,0.7,0.3,1.1l-1.7-0.4c-0.1-0.4-0.2-0.8-0.3-1.2L1876.8-221.7z M1876.7-222.1l-1.7-0.4c-0.1-0.4-0.2-0.8-0.4-1.1
				l1.8,0.5C1876.4-222.8,1876.6-222.4,1876.7-222.1z M1876.2-223.5l-1.8-0.5c-0.2-0.4-0.3-0.8-0.4-1.2l1.8,0.6
				C1875.9-224.3,1876-223.9,1876.2-223.5z M1875.6-225.1l-1.8-0.6c-0.2-0.4-0.3-0.8-0.5-1.1l1.8,0.6
				C1875.3-225.9,1875.5-225.5,1875.6-225.1z M1874.9-226.7l-1.8-0.6c-0.2-0.4-0.3-0.8-0.5-1.1l1.8,0.6
				C1874.6-227.4,1874.8-227,1874.9-226.7z M1874.2-228.2l-1.8-0.6c-0.2-0.4-0.4-0.7-0.6-1l1.8,0.6
				C1873.8-229,1874-228.6,1874.2-228.2z M1872.9-230.6c0.1,0.2,0.3,0.5,0.5,0.8l-1.8-0.6c-0.1-0.2-0.2-0.3-0.3-0.4l-0.1-0.1h0
				c0,0,0-0.2,0-0.2L1872.9-230.6z M1871.1-224.7l-9.7,1.2l-0.1-1.3l9.4-1.2C1870.8-225.6,1871-225.1,1871.1-224.7z M1870.5-226.3
				l-9.2,1.2l0-0.8l9-1.2C1870.3-226.9,1870.4-226.6,1870.5-226.3z M1869.7-228.3l-8.5,1.1l0-0.8l8.1-1.1
				C1869.4-228.9,1869.6-228.6,1869.7-228.3z M1869.1-229.5l-8,1.1l-0.1-1.3l7.5-1C1868.8-230.3,1869-229.9,1869.1-229.5z
				 M1868.4-231l-7.3,0.9l-0.6-11.9C1860.4-241.9,1864.5-238.2,1868.4-231z"/>
			<path class="st4" d="M1722.6-223.6l-3-1.7c0,0-1.4,1.9-1.6,2.2c-0.3-0.3-0.8-0.9-1-1c-0.2-0.1-0.6-0.6-0.9-1.1
				c-0.3-1.6-0.9-3-1.2-3.4c-0.2-0.4-0.5-0.5-1.1-0.7c-0.9-0.7-1.2-2.6-1.3-2.9c0.1,0,0.3-0.1,0.4-0.3c0.1-0.2-0.2-0.8-0.3-1.2
				c-0.1-0.4-0.1-0.6-0.1-0.9c0.2,0,0.3-0.3,0.2-0.5c-0.1-0.2-0.1-0.2-0.2-0.5c0.1-0.1,0.2-0.8,0.2-0.8l3.7-0.4c0,0-3.4-0.2-3.7-0.2
				c0-0.3,0-0.6,0-0.6l3.1-1.3c0,0-2.9,0.7-3.4,0.8c-0.2-0.2-0.6-0.6-0.6-0.6l1.9-2.3c0,0-2.3,1.8-2.5,1.9c-0.4-0.2-1.1-0.3-1.1-0.3
				l-0.5-3l-0.2,3c-0.6,0-1.2,0.3-1.2,0.3l-2.8-1.9c0,0,1.9,2.2,2.3,2.4c-0.1,0.1-0.6,0.4-0.6,0.4l-2.7,0.1c0,0-0.1-0.2-0.1-1.2
				c0-1.1-0.8-3.3-0.9-4c-0.2-0.7-0.2-1.4-0.2-1.9c0.1-0.5,0-0.8,0-1.8c0-1-0.8-1.9-0.8-1.9s0-0.3,0.1-0.7c0.3-0.2,0.4-0.5,0.3-0.8
				c0.7,0,1.3-0.3,1.3-0.7c0-0.3-0.4-0.6-0.4-0.6l0-0.5c0,0,0.4,0.1,0.4-0.2c0-0.4-1.7-0.6-1.7-0.6s0-0.4,0-0.6
				c0.3-0.2,0.5-0.6,0.5-0.9c0.2-0.4,0.3-1.7,0.1-1.9c-0.1,0.1-0.1,0.2-0.3,0.7c0.1-0.3-0.3-0.7-0.5-0.8c-0.3,0.3-0.4,0.4-0.4,0.8
				c0,0.4-0.4,0.4-0.6,0.2c-0.1,0.3,0,0.6-0.7,1c-0.7,0.5-0.1,0.9-0.1,0.9v0.6c0,0-1.4,0.3-1.4,0.5c0,0.2,0.4,0.6,0.5,0.7
				c-0.1,0.1-0.4,0.3-0.4,0.7c0,0.4,0.6,0.7,0.9,0.7c0,0.7,0.7,1.4,0.7,1.4s0,0.2-0.2,0.2c-0.2,0.1-0.2,0.5-0.2,0.8
				c-0.1,0.3,0.1,0.6,0.1,0.6s0,0.3,0,0.6c0,0.4,0,0.8,0,0.8s0,0,0,0.8s0.4,0.5,0.5,1.1c0,0.5,0.5,0.8,0.5,0.8s-0.1,1.2-0.1,2.4
				c0,1.2,0.3,2.3,0.5,3c0.2,0.6,0.3,1.3,0.3,1.9c-0.4,0.7-1.1,2.1-1.3,2.8c-0.3,0.7,0,0.6,0,1.2c-0.1,0.5,0.1,0.8,0.2,0.9
				c0,0.6,0.1,0.7,0.2,0.9c0.1,0.2,0.3,0.3,0.6,0.3c0.3,0,0,0.4-0.2,0.8c-0.2,0.5,0.4,0.5,0.6,0.5c0,0.4,0.4,0.6,0.6,0.6
				c0,0.3-0.2,0.9-0.3,1.3c-0.1,0.3,0.4,0.9,0.6,0.9c-0.8,0.8-0.8,0.8-0.7,1c0.1,0.2,0.2,0.4,0.4,0.6c0,0.4,0.5,0.7,0.6,0.8
				c0,0.3,0.1,0.7,0.3,1c-0.1,0.3-0.3,1.5-0.8,2.2c-0.5,0.7-0.3,1.3-0.3,1.3s-0.2,0.6-0.3,0.9c-0.1,0.3-0.2,1,0,1.4
				c0.2,0.5,0.9,0.5,1.2,0.5c-0.1,0.6,0.1,1.6-0.1,1.9c-0.1,0.4-0.4,1-0.4,2.3c0,1.3,0.1,1.4,0.2,1.9s0.4,0.7,0.4,0.7
				s-0.1,0.6-0.1,1.2c0,0.5,0.1,0.8,0.1,1.3c0,0.5,0.2,1.3,0,1.8c-0.2,0.5-0.1,1.1-0.2,1.4c-0.1,0.3,0,0.7,0.1,0.8
				c0.1,0.2,0.1,0.6,0,0.8c-0.1,0.2-0.2,0.7-0.2,1c0,0.2,0.1,0.7,0,1c-0.2,0.3-0.1,1.3-0.1,1.6c0,0.3,0.2,0.9,0.2,1.2
				c0,0.3,0,1.9-0.1,2.2c-0.2,0.3,0.1,0.6,0.1,0.6s0,1,0,1.4s0.1,1.1,0.2,1.2c0.1,0.1,0.1,0.5-0.2,0.8c-0.3,0.3-1,0.5-1.4,0.7
				c-0.3,0.1-0.3,0.7-0.3,0.7l-0.3,0l0,1.8c0,0-0.6,0.4-0.7,0.6c0,0.4,0.4,0.8,0.4,0.8l0,2.4h18.6l0-1.8c0,0-0.2-0.6-0.4-1.1
				c-0.2-0.5-0.3-0.6-0.6-0.6c0-2.3-1.3-3-1.3-3s-0.4-5.3-0.4-6c0.8-0.5,0.7-0.9,0.7-0.9s-0.2-3.7-0.2-4.3c0.5-0.2,0.4-0.7,0.4-0.7
				s-0.1-0.9,0-1.2c0.2-0.1,0.4-0.5,0.4-0.9c-0.1-0.3-0.2-3.2-0.3-3.9c-0.1-0.7-0.6-4.1-0.6-4.1s0.3-0.3,0.5-0.5
				c1,0.1,1.2-0.7,1.4-1.3c0.2-0.6,0.4-2.5,0.4-3.4c0.9,0,1.3-0.4,1.5-0.6c0.1-0.2,1.1-1.6,1.3-2c0.2-0.4,0.2-0.7,0.1-0.7
				c-0.1-0.1-0.4-0.5-0.4-0.5l0.9-1.8L1722.6-223.6z M1704.4-237.1l-0.1-0.3l2.3,0.1l0,0.6c0,0-1.2,0.1-1.6,0.1
				C1704.9-236.8,1704.4-237.1,1704.4-237.1z M1706.4-233.4c0,0-0.1-0.1-0.3-0.1c-0.1-0.2-0.5-0.5-0.6-0.8c0.3-0.8-0.4-1.5-0.4-1.5
				l0-0.3c0,0,1.1,0.1,1.4,0.1c0.1,0.2,0.2,0.4,0.3,0.6c-0.3,0.4-0.1,1,0.1,1C1706.8-234.3,1706.4-233.4,1706.4-233.4z"/>
			<path class="st4" d="M1806.1-261.6c-0.6,0.1-2.9,0.7-5.8,1.4l-1.3-1l0.9-0.2c0.5-0.1,0.7-0.6,0.6-1c-0.1-0.5-0.6-0.7-1-0.6
				l-1.2,0.3c-0.3,0.1-0.5,0.3-0.6,0.5c-1-1.1-4.9-5.5-5.4-6.1c-0.6-0.6-1-0.6-1.4-0.5c-0.4,0.1-0.6,0.1-0.6,0.1l4.5,7.1l0.6,2.6
				c-3.4,0.8-6.4,1.5-6.8,1.6c-0.4,0.1-1.4,0.5-2.3,1l-3.7-3.4l-0.6,0.1l0.2,0.6l2.2,3.8c-0.4,0.3-0.6,0.5-0.6,0.6
				c0,0.1,0.3,0.2,0.8,0.2l-0.2,4.3l0.1,0.6l0.6-0.1l1.8-4.7c1.1,0,2.1-0.1,2.5-0.2c0.4-0.1,3.4-0.8,6.8-1.6l0.6,2.6l-0.8,8.4
				c0,0,0.1-0.1,0.5-0.2c0.4-0.1,0.8-0.3,1-1.1c0.2-0.7,1.6-6.4,2-7.9c0.2,0.2,0.5,0.3,0.8,0.2l1.2-0.3c0.5-0.1,0.7-0.6,0.6-1
				c-0.1-0.5-0.6-0.7-1-0.6l-0.9,0.2l0.7-1.5c2.8-0.7,5.2-1.3,5.8-1.4c1.4-0.3,3.9-1.7,3.8-2.2
				C1810.3-261.8,1807.6-261.9,1806.1-261.6z"/>
		</g>
		<g id="MENU_BAR_00000019675238615712863580000007715093926850203313_">
			<rect x="611.5" y="-182.9" class="st22" width="1340" height="4"/>
		</g>
		<g id="SIDE_BTNS_N_00000103970090085746407420000006921071429392800943_">
			
				<rect id="_x30_5_00000040547457763492077240000009495506310042231473_" x="640.2" y="373.3" class="st4" width="230" height="126.8"/>
		</g>
		
			<rect id="_x30_5_00000002363586695209534700000016952352130754847889_" x="640.2" y="237.9" class="st4" width="230" height="126.8"/>
		
			<rect id="_x30_5_00000047031525255247352070000017649325122341775006_" x="640.2" y="102.1" class="st4" width="230" height="126.8"/>
		
			<rect id="_x30_5_00000145779265258893834520000007115001290831976360_" x="640.2" y="-34.1" class="st4" width="230" height="126.8"/>
		
			<rect id="_x30_5_00000070827468838119990900000010305371927708147122_" x="641.2" y="-169.8" class="st4" width="230" height="126.8"/>
		<g id="BTM_BTNS_N_00000124856634775888354720000000081339463902332307_">
			<rect id="X_00000160177617270603006640000012138986005818056095_" x="640.2" y="508.5" class="st4" width="70" height="125.7"/>
			
				<rect id="_x3F__00000118372768699369765780000012712325934211732883_" x="720.2" y="508.5" class="st4" width="70" height="125.7"/>
			<rect id="i_00000112631761730590587540000001563239163040462467_" x="800.2" y="508.5" class="st4" width="70" height="125.7"/>
		</g>
		<rect x="671.1" y="-115.4" style="fill:none;" width="200" height="18.3"/>
		
			<text id="_x35__00000080175517791324904350000005477301054530379424_" transform="matrix(1 0 0 1 671.1129 -98.277)" style="font-family:'AkzidenzGrotesk-Black'; font-size:24px;">Introduction</text>
		<rect x="671.8" y="20" style="fill:none;" width="200" height="18.3"/>
		<text id="_x35__00000009575295129655072030000005905040567603633796_" transform="matrix(1 0 0 1 671.8289 37.0664)"><tspan x="0" y="0" class="st11" style="font-family:'AkzidenzGrotesk-Black'; font-size:24px;">be</tspan><tspan x="29.4" y="0" style="font-family:'AkzidenzGrotesk-Black'; font-size:24px;">Prepared</tspan></text>
		<rect x="671.8" y="156" style="fill:none;" width="200" height="18.3"/>
		<text id="_x35__00000038411590292976554890000018407326250301289879_" transform="matrix(1 0 0 1 671.8289 173.0663)"><tspan x="0" y="0" class="st11" style="font-family:'AkzidenzGrotesk-Black'; font-size:24px;">be</tspan><tspan x="29.4" y="0" style="font-family:'AkzidenzGrotesk-Black'; font-size:24px;">Aware</tspan></text>
		<rect x="671.2" y="292" style="fill:none;" width="200" height="18.3"/>
		<text id="_x35__00000086653200510516533960000013333507296075846812_" transform="matrix(1 0 0 1 671.1567 309.0786)"><tspan x="0" y="0" class="st11" style="font-family:'AkzidenzGrotesk-Black'; font-size:24px;">be</tspan><tspan x="29.4" y="0" style="font-family:'AkzidenzGrotesk-Black'; font-size:24px;">Ready</tspan></text>
		<g id="SIDE_BTNS_N_00000014611495904811537730000015907533054350005932_">
			
				<rect id="_x30_5_00000066481214738455621220000002244930144539283645_" x="641.2" y="373.8" class="st4" width="230" height="126.8"/>
		</g>
		<rect x="673.2" y="428" style="fill:none;" width="200" height="18.3"/>
		
			<text id="_x35__00000168832712783863232640000009386113241501657507_" transform="matrix(1 0 0 1 673.1567 445.0786)" style="font-family:'AkzidenzGrotesk-Black'; font-size:24px;">Quiz</text>
		<g id="SIDE_ICONS_00000158741925522009830700000004062228162218123964_">
			<g id="info_00000159460206403056847310000008220476974703415714_">
				<path class="st23" d="M838.3,554.4c-9.7,0-17.5,7.8-17.5,17.5c0,3.5,1,6.8,2.8,9.6l-1.8,6.6l6.5-1.7c2.8,1.9,6.2,3.1,9.9,3.1
					c9.7,0,17.5-7.8,17.5-17.5C855.8,562.2,848,554.4,838.3,554.4z M838.2,561.8c1.9,0,3,1.5,3,2.7c0,1.5-1,2.7-3,2.7
					c-1.7,0-2.9-1.4-2.9-2.7C835.3,563.3,836.3,561.8,838.2,561.8z M841.7,581.9h-7v-3h1v-7h-1v-3h6v10h1V581.9z"/>
			</g>
			<g id="help_00000116219676125883527000000013923476132354751661_">
				<path class="st23" d="M755.9,554.4c-9.7,0-17.5,7.8-17.5,17.5c0,9.7,7.8,17.5,17.5,17.5c9.7,0,17.5-7.8,17.5-17.5
					C773.4,562.3,765.6,554.4,755.9,554.4z M755.6,583.1c-1.6,0-2.9-1.3-2.9-2.9c0-1.6,1.3-2.9,2.9-2.9c1.6,0,2.9,1.3,2.9,2.9
					C758.5,581.8,757.2,583.1,755.6,583.1z M758.7,574.5v1.4h-5v-2.1c0-2.7,4-4.3,4-5.9c0-1.1-1.2-1.8-2.1-1.8c-1.2,0-2.2,1-3.1,2.2
					l-3.2-2.9c1.9-2.4,4-3.9,6.7-3.9c3.6,0,6.6,2.5,6.6,6.5C762.7,571.8,758.7,572.7,758.7,574.5z"/>
			</g>
			<path class="st23" d="M677.7,554.4c-9.7,0-17.5,7.8-17.5,17.5c0,9.7,7.8,17.5,17.5,17.5c9.7,0,17.5-7.8,17.5-17.5
				C695.2,562.2,687.3,554.4,677.7,554.4z M687.3,562.2c0.8,0.8,0.8,2,0,2.8l-6.8,6.8l6.8,6.8c0.8,0.8,0.8,2,0,2.8
				c-0.8,0.8-2,0.8-2.8,0l-6.8-6.8l-6.8,6.8c-0.8,0.8-2,0.8-2.8,0c-0.8-0.8-0.8-2,0-2.8l6.8-6.8l-6.8-6.8c-0.8-0.8-0.8-2,0-2.8
				c0.8-0.8,2-0.8,2.8,0l6.8,6.8l6.8-6.8C685.3,561.5,686.5,561.5,687.3,562.2z"/>
		</g>
		<g>
			<g id="CTA_00000080886790410074501380000003288144269945381295_">
				<rect x="1179.6" y="-132.1" style="fill:none;" width="452.3" height="26.4"/>
				
					<text transform="matrix(1 0 0 1 1185.427 -118.5874)" class="st11" style="font-family:'AkzidenzGrotesk-Black'; font-size:19px;">Select each option to find out more information</text>
			</g>
			<rect x="854.6" y="-146.4" style="fill:none;" width="300" height="40.6"/>
			
				<text id="TOPIC_SEL_00000132792515171839681880000015993046915785287854_" transform="matrix(1 0 0 1 879.0192 -115.0242)" style="font-family:'AkzidenzGrotesk-Black'; font-size:44px; letter-spacing:-1;">Introduction</text>
		</g>
		<rect x="671.2" y="-239.8" style="fill:none;" width="222.8" height="28.3"/>
		<text id="LOGO_00000129183014416737892710000006577819966727548302_" transform="matrix(1 0 0 1 671.248 -214.1826)"><tspan x="0" y="0" class="st11" style="font-family:'AkzidenzGrotesk-Black'; font-size:36px;">be</tspan><tspan x="42.2" y="0" style="font-family:'AkzidenzGrotesk-Black'; font-size:36px;">Travelwise</tspan></text>
		<rect x="1230.9" y="-87.2" class="st24" width="340.1" height="231.2"/>
		<rect x="881.5" y="151.6" class="st24" width="340.1" height="231.2"/>
		<rect x="881.3" y="391" class="st24" width="340.1" height="242"/>
		<rect x="1580.6" y="391.4" class="st24" width="340.1" height="242.6"/>
	</g>
	<circle class="st25" cx="-70" cy="50" r="45"/>
	<g>
		<path class="st26" d="M-79.4,60.2c2.9-6,6.7-11.5,11.2-16.4c4.3-4.7,9.3-8.6,14.7-12c3.8-2.4,7.8-4.5,11.9-6.3
			c0.2-0.1,0.4,0,0.5,0.2c0.1,0.2,0.1,0.4-0.1,0.6c-3.9,3-7.6,6.3-11.1,9.8c-4.1,4.1-7.9,8.6-11,13.6c-3.3,5.3-5.9,10.9-7.7,16.9
			c-0.6,1.9-1.8,3.4-3.6,4.4c-2.4,1.3-4.7,2.5-7.1,3.8c-0.1,0.1-0.2,0.1-0.3,0c-0.1,0-0.2-0.1-0.2-0.2c-3.4-7.7-7.9-16-15.1-20.7
			c-0.5-0.3-1-0.6-1.5-0.9c-0.1-0.1-0.2-0.2-0.2-0.4c0-0.2,0.1-0.3,0.2-0.4c1.4-0.9,2.9-1.7,4.6-2.1c1.4-0.3,2.8-0.3,4.1,0
			c2.4,0.6,4.4,2.1,6,3.9C-82.3,55.7-80.8,57.9-79.4,60.2L-79.4,60.2z"/>
	</g>
	<circle class="st27" cx="50" cy="50" r="45"/>
	<g>
		<path class="st26" d="M40.6,60.2c2.9-6,6.7-11.5,11.2-16.4c4.3-4.7,9.3-8.6,14.7-12c3.8-2.4,7.8-4.5,11.9-6.3
			c0.2-0.1,0.4,0,0.5,0.2c0.1,0.2,0.1,0.4-0.1,0.6c-3.9,3-7.6,6.3-11.1,9.8c-4.1,4.1-7.9,8.6-11,13.6c-3.3,5.3-5.9,10.9-7.7,16.9
			c-0.6,1.9-1.8,3.4-3.6,4.4c-2.4,1.3-4.7,2.5-7.1,3.8c-0.1,0.1-0.2,0.1-0.3,0c-0.1,0-0.2-0.1-0.2-0.2c-3.4-7.7-7.9-16-15.1-20.7
			c-0.5-0.3-1-0.6-1.5-0.9c-0.1-0.1-0.2-0.2-0.2-0.4c0-0.2,0.1-0.3,0.2-0.4c1.4-0.9,2.9-1.7,4.6-2.1c1.4-0.3,2.8-0.3,4.1,0
			c2.4,0.6,4.4,2.1,6,3.9C37.7,55.7,39.2,57.9,40.6,60.2L40.6,60.2z"/>
	</g>
</g>
</svg>
