<?xml version="1.0" encoding="utf-8"?>
<!-- Generator: Adobe Illustrator 26.2.0, SVG Export Plug-In . SVG Version: 6.00 Build 0)  -->
<svg version="1.1" xmlns="http://www.w3.org/2000/svg" xmlns:xlink="http://www.w3.org/1999/xlink" x="0px" y="0px"
	 viewBox="0 0 55 55" style="enable-background:new 0 0 55 55;" xml:space="preserve">
<style type="text/css">
	.st0{display:none;}
	.st1{display:inline;}
	
		.st2{display:inline;opacity:0.5;clip-path:url(#SVGID_00000108288222037085195160000008368478191457471883_);fill:url(#SVGID_00000086689599847470894280000015435169811064208513_);}
	
		.st3{display:inline;opacity:0.4;clip-path:url(#SVGID_00000108288222037085195160000008368478191457471883_);fill:url(#SVGID_00000129180526883196908440000016120978998824535449_);}
	.st4{fill:#E25D22;}
	.st5{display:none;fill:#E25D22;}
	.st6{fill:#E25D22;}
	.st7{fill:#FFFFFF;}
	.st8{opacity:0.5;fill:#FFFFFF;}
	.st9{fill:none;stroke:#1D1D1B;stroke-width:2;stroke-miterlimit:10;}
	.st10{fill:#1D1D1B;}
	.st11{fill:none;stroke:#1D1D1B;stroke-miterlimit:10;}
</style>
<g id="IMG_CONTENT">
</g>
<g id="carousel_indicators">
	<path id="ARR_R" class="st4" d="M52.5,27.5c0,13.8-11.2,25-25,25s-25-11.2-25-25s11.2-25,25-25S52.5,13.7,52.5,27.5z M35.3,26.4
		L21.9,13c-0.6-0.6-1.6-0.6-2.2,0l0,0c-0.6,0.6-0.6,1.6,0,2.2l11.2,11.2c0.6,0.6,0.6,1.6,0,2.2L19.7,39.8c-0.6,0.6-0.6,1.6,0,2.2
		l0,0c0.6,0.6,1.6,0.6,2.2,0l13.4-13.4C35.9,28,35.9,27,35.3,26.4z"/>
</g>
<g id="TEXT_CONTENT">
</g>
<g id="SCR_TITLE">
</g>
<g id="RTN_BTN_1_">
</g>
<g id="SLICES">
</g>
<g id="TEXT_NOTES" class="st0">
</g>
<g id="GUIDES" class="st0">
</g>
</svg>
