<?xml version="1.0" encoding="utf-8"?>
<!-- Generator: Adobe Illustrator 26.0.3, SVG Export Plug-In . SVG Version: 6.00 Build 0)  -->
<svg version="1.1" id="Layer_1" xmlns="http://www.w3.org/2000/svg" xmlns:xlink="http://www.w3.org/1999/xlink" x="0px" y="0px"
	 viewBox="0 0 198 198" style="enable-background:new 0 0 198 198;" xml:space="preserve">
<style type="text/css">
	.st0{fill:#CACACA;}
	.st1{fill:#CCCCCC;}
	.st2{display:none;}
	.st3{display:inline;opacity:0.3;}
	.st4{fill:#4C4C4A;}
	.st5{fill:#FFFFFF;}
	.st6{opacity:0.5;fill:#FFFFFF;}
	.st7{fill:#E25D22;}
	.st8{opacity:0.5;}
	.st9{opacity:0.7;}
</style>
<rect id="_x31_280x945" x="-627" y="-1035" class="st0" width="1280" height="945"/>
<g id="GREY_BORDERS">
	<rect x="-657" y="-70" class="st1" width="1340" height="10"/>
	<rect x="-657" y="-1065" class="st1" width="1340" height="10"/>
</g>
<g id="MENU_BAR" class="st2">
	<g id="GREY_BORDERS_1_" class="st3">
		<g>
			<rect x="-657" y="-945" class="st4" width="1340" height="10"/>
		</g>
	</g>
	<g id="LANDMARKS" class="st3">
		<g>
			<path class="st4" d="M472.9-945h63.2c0-0.8-0.1-3.3-2-5c0.4-0.9,0.6-1.3,0.4-3.9c0.2-0.2,0.1-0.6-0.2-0.5
				c-0.3,0.1-1.6,1.4-2.1,1.7c-0.5,0-0.9-0.1-1.5,0.4c-0.8,0-1.6,0.1-1.6,0.1s1.9-1.5,1.5-4.7c-0.4-3.2-3.1-3.6-4.3-3.6
				c-1.3,0-3.5,0.1-4.2,0.6c-0.2-0.5-0.4-1.6-1.9-0.9c-0.8,0-2,0-2,0s-0.7-0.5-1.3-0.3c0.6-0.6,1.5-2.2,1.9-3.2
				c0.5-0.1,0.6-0.6,0.2-1.1c0-0.4-0.2-2.7-0.2-2.7s0.6-1.1-0.1-1.4c-0.1-0.5-0.1-1-0.1-1s0.4-0.5-0.3-2.1c0-0.7-0.2-2-0.2-2
				s0.6-0.5-0.2-1.7c0-0.6-0.1-1.4-0.1-1.4s0.3-0.7-0.3-1.2c-0.2-0.7-0.5-2.1-1.5-2.6c-1.1-0.5-3.2-1.1-4.2-1.3
				c-1.1-0.2-2.5-0.6-2.5-0.6s-0.7-0.8-1.5-0.3c-0.5-0.3-1.4-1.3-0.8-3.5c0.2-0.5,0.4,0,0.3,0.3c0,0.3,0.2,1.5,0.7,1.5
				c0.5,0,0.2-0.4,0.2-1.1c-0.1-0.7-0.1-2,0.2-3.1c0.3-1.1,1.1-2.9,1.1-3.9c0-1-0.2-1-0.5-0.6c0-0.8,0-1,0.1-2
				c0.1-0.9,0.1-3.6-1.7-4.9c-1.8-1.2-2.5-2-2.7-3c-0.2-1,0.2-2.9-0.5-3.2c0-1,0.1-2.4-0.5-2.6c-0.1-0.7,0.1-1.9-0.5-2
				c0-0.6,0-2.9-0.6-2.9c-0.6,0-0.5,2.4-0.5,2.8c-0.3,0.1-0.6-0.1-0.3,2.5c-0.2,0-0.6,0-0.3,2.3c-0.4,0-0.6,0.1-0.5,2.4
				c0,2.3-1.5,3-2.2,3.6c-0.7,0.6-1.9,0.8-1.8,4.7c0,0.8,0.1,1.8,0.1,1.8c-0.4,0-1.1-0.1-0.7,1.3c0.4,1.4,0.9,2.7,1.1,3.3
				c0.2,0.6,0.4,1.8,0.4,2.9c0,1-0.2,1.4,0.1,1.4c0.2,0.1,1,0.2,0.9-2.2c0.2,0.2,0.6,0.5,0.7,1.6c0.1,1.2-0.5,2.4-1.1,2.7
				c-0.6,0.2-3.8,0.7-4.5,0.9c-0.7,0.2-4.8,0.2-5.2,4c-0.5,3.8-0.6,8.2-0.7,9.9c-0.1,1.8-0.6,4.3,0.7,5.6c1.3,1.3,2.8,2.5,6.1,3.4
				c-1.4,0-5,0-7.3-0.2c-2.3-0.3-4.6-0.4-5.6-0.3c-1,0-4.2-0.3-4.7,4.4c-0.1,2.8,1.2,4,1.4,4.1c-0.6,0-0.7-0.1-0.9-0.2
				c-0.2-0.1-0.6-0.4-1.3-0.1c-0.2-0.3-0.7-1.1-1.3-0.7c-0.3-0.6-1-1.4-1.8-1.2c-0.1,0.1-0.1,0.4,0.2,0.4c0,0.2-0.3,3.1,1,4.2
				C473.9-949.3,472.6-949.1,472.9-945z M492.8-966.1c0.4-1.4,1.5-7.6,1.5-7.6c0.6,0.4,0.9,1.3,1.1,1.7c0.1,0.4,0.4,0.8,0.2,1
				c-0.2,0.2,0.1,0.8,0.3,1.1c0.2,0.3,0.4,1,0.3,1c-0.1,0-0.3,0.1-0.3,0.7c0,0.6,0.6,1.4,0.6,1.8c0.1,0.4,0,1.5-0.2,1.5
				c-0.2,0-0.3,0.3-0.6,0.7C494.8-964.8,493.1-965.8,492.8-966.1z"/>
			<path class="st4" d="M575.4-955.9v-1.8v-1.3h-1.2c-1.3-3.9-2.2-7.6-2.9-10.8h0.4v-1.7h-0.7c-1.4-7.7-2.3-29-2.3-29v-5.8l0.6-2.5
				h-0.6v-0.5h0.3v-1.4h-0.3h-0.2l-1.1-1v-3.6h-0.3v-3H567v3h-0.3v3.6l-1.1,1h-0.1h-0.3v1.4h0.3v0.5h-0.7l0.7,2.5l0.1,5.9
				c0,0-0.2,19.1-2.4,28.9h-0.7v1.7h0.4c-0.6,3.7-1.7,7.5-3,10.8h-1.2v1.3v1.6c-2.3,5.4-4.8,9.4-5.4,10.2h-0.9v0.8h5.8v-0.8h-0.2
				c0.4-1.1,1.9-7,9-7c6.9,0,9,6,9.3,7h-0.4v0.8h5.8v-0.8h-0.9C578.5-949.1,576.7-952.5,575.4-955.9z M563.6-959
				c0.8-2.4,1.7-8.4,1.7-8.4s1.8,0,3.6,0c0.2,3.7,1.5,7.7,1.7,8.4H563.6z"/>
			<path class="st4" d="M599.9-986.1l0.1,41.1h5.3l-0.1-0.5l9-0.3c0,0.2-0.1,0.5-0.1,0.8h1.6c0.1-0.3,0.1-0.6,0.2-0.9h0.7
				c-0.1,0.3-0.1,0.6-0.2,0.9h0.3c0.1-0.3,0.1-0.6,0.2-0.9l1.9,0c-0.1,0.3-0.1,0.6-0.2,0.9h2.6c-0.4-0.8-0.2-2.4,0.3-2.8
				c-0.1-0.7,0.3-2.8,0.8-3.3c-0.5-1.1,0.2-2.6,0.7-3.2c-0.4-1.1,0-2.8,0.4-3.6c-0.5-1-0.1-2.6,0.2-3.5c-0.3-1.2-0.3-2.6,0.2-3.5
				c-0.8-1.2-0.3-2.7-0.1-3.3c-1-1.3-0.7-2.7-0.4-3.4c-1.1-1.5-1-2.6-0.7-3.1c-0.9-1.3-1-2.6-0.8-3.2c-1.5-1.9-1.1-2.8-0.8-3.3
				c-1.9-1.8-1.6-3.1-1.6-3.1s0-0.3-0.9-1.2c-1-0.9-1.3-3-1.3-3l1.7-3.1c0,0,1.5,0,2.4-0.1c0.9-0.1,0.3-0.8,0-1
				c-2.2-0.6-5.5,0.3-6.4,0.5l-2.2-0.7c-6.2-9.4-11.2-13-11.2-13l-0.3-11l-1.1,1.5l0.1,8.8l-0.3,0c0,0,0,13.2,0,15.8
				c-1.7-0.5-3.8,0.6-3.8,0.6l0.3,1.1L599.9-986.1z M603.2-984.4l9.9-1.2c0.2,0.4,0.3,0.9,0.4,1.3l-10.2,1.2L603.2-984.4z
				 M603.2-982.7l10.3-1.2c0.1,0.4,0.3,0.9,0.4,1.3l-10.6,1.1L603.2-982.7z M603.3-981.1l10.7-1.2c0.1,0.4,0.2,0.8,0.3,1.3l-11,1.2
				L603.3-981.1z M614.1-989.1c0.1,0.2,0.2,0.4,0.3,0.6h-0.1C614.3-988.7,614.2-988.9,614.1-989.1z M603.4-979.5l11.1-1.2
				c0.1,0.4,0.2,0.8,0.3,1.3l-11.3,1.1L603.4-979.5z M618.6-960c0,0.5-0.1,0.9-0.1,1.4l-0.7,0c0.1-1,0.2-2.1,0.2-3.1l0.8,0
				c0,0.4-0.1,0.9-0.1,1.4h-0.8l0,0.3L618.6-960z M617.2-949.4c-0.1,0.5-0.2,0.9-0.3,1.4l-0.7,0c0.1-0.5,0.2-1,0.3-1.5v0.1
				L617.2-949.4z M616.6-949.7c0.1-0.5,0.2-0.9,0.2-1.4l0.7,0c-0.1,0.5-0.2,0.9-0.3,1.4L616.6-949.7z M616.9-951.5
				c0.1-0.5,0.2-1,0.2-1.5l0.7,0c-0.1,0.5-0.2,1-0.3,1.5L616.9-951.5z M617.2-953.4c0.1-0.5,0.1-0.9,0.2-1.4l0.7-0.1
				c-0.1,0.5-0.1,1-0.2,1.4L617.2-953.4z M617.4-955.1c0.1-0.5,0.1-1.1,0.2-1.6v0.2l0.7,0c0,0.5-0.1,0.9-0.2,1.4L617.4-955.1z
				 M617.6-956.9c0-0.5,0.1-0.9,0.1-1.4l0.7,0c-0.1,0.4-0.1,0.9-0.1,1.3L617.6-956.9z M618-962c0-0.5,0-1,0-1.4l0.8,0
				c0,0.5,0,0.9-0.1,1.4L618-962z M618-963.8c0-0.4,0-0.9,0-1.3l0.8,0c0,0.4,0,0.9,0,1.3L618-963.8z M618-965.5c0-0.4,0-0.9,0-1.3
				l0.9,0c0,0.4,0,0.9,0,1.4L618-965.5z M618-967.2c0-0.4,0-0.9-0.1-1.3l0.9-0.1c0,0.5,0,0.9,0,1.4L618-967.2z M617.9-968.9
				L617.9-968.9c0-0.4-0.1-0.9-0.1-1.3l0.9-0.1c0,0.4,0.1,0.9,0.1,1.3L617.9-968.9z M617.8-970.5c0-0.4-0.1-0.9-0.1-1.3h0.9
				c0,0.4,0.1,0.8,0.1,1.3L617.8-970.5z M617.7-972.2c0-0.5-0.1-0.9-0.1-1.4l0.9,0c0,0.5,0.1,0.9,0.1,1.4H617.7z M617.5-973.9
				c-0.1-0.4-0.1-0.9-0.2-1.3l0.9-0.1c0.1,0.4,0.1,0.9,0.2,1.3L617.5-973.9z M617.3-975.6c-0.1-0.4-0.1-0.9-0.2-1.3l0.8,0
				c0.1,0.4,0.1,0.8,0.2,1.2L617.3-975.6z M617.1-977.2c-0.1-0.4-0.1-0.9-0.2-1.3l0.8,0c0.1,0.4,0.2,0.9,0.3,1.3L617.1-977.2z
				 M616.8-978.9c-0.1-0.4-0.1-0.8-0.2-1.2l0.7-0.1c0.1,0.4,0.2,0.8,0.3,1.3L616.8-978.9z M616.5-980.4c-0.1-0.4-0.2-0.9-0.3-1.3
				l0.6,0c0.1,0.4,0.2,0.9,0.3,1.3L616.5-980.4z M616.1-982.1c-0.1-0.5-0.2-0.9-0.3-1.3l0.5,0c0.1,0.4,0.3,0.8,0.4,1.3L616.1-982.1z
				 M615.7-983.8c-0.1-0.4-0.2-0.8-0.3-1.2l0.4,0c0.1,0.4,0.3,0.8,0.4,1.2L615.7-983.8z M615.3-985.3c-0.1-0.4-0.3-0.9-0.4-1.3
				l0.3,0c0.2,0.4,0.3,0.8,0.5,1.3H615.3z M614.9-986.9c-0.1-0.4-0.3-0.8-0.4-1.2h0.1l0,0c0.2,0.4,0.4,0.8,0.5,1.2L614.9-986.9z
				 M603.4-978l0,0.2l11.4-1.2c0.1,0.4,0.2,0.9,0.3,1.3l-11.6,1.1l0,0.3l11.6-1.1c0.1,0.4,0.1,0.9,0.2,1.3l-11.8,1.1l0,0.3l11.8-1.1
				c0.1,0.4,0.1,0.9,0.2,1.3l-12,1L603.4-978z M603.7-973l12-1c0.1,0.4,0.1,0.9,0.2,1.3l-12.1,1L603.7-973z M603.8-971.4l12.1-1
				c0,0.4,0.1,0.9,0.1,1.3l-12.2,1L603.8-971.4z M603.8-969.8l12.2-1c0,0.4,0.1,0.9,0.1,1.3l-12.3,0.9L603.8-969.8z M603.9-968.2
				l12.3-0.9c0,0.4,0,0.9,0.1,1.3l-12.3,0.9L603.9-968.2z M604-966.5l12.3-0.9c0,0.4,0,0.9,0,1.3l-12.2,0.8L604-966.5z M604-964.9
				l12.2-0.8c0,0.4,0,0.9,0,1.3l-12.2,0.8L604-964.9z M604.1-963.3l12.2-0.8c0,0.4,0,0.8,0,1.3l-12.1,0.8L604.1-963.3z M604.2-961.7
				l12-0.8c0,0.5,0,0.9,0,1.4l-11.9,0.7L604.2-961.7z M604.2-960.1l11.9-0.7c0,0.2,0,0.4-0.1,0.6l-11.8,0.7L604.2-960.1z M604.3-958
				l11.7-0.6c0,0.3,0,0.6-0.1,0.9l-11.6,0.6L604.3-958z M614.2-946.1l-9.2,0.3l-0.3-1.1l0-0.2l9.7-0.3
				C614.4-947,614.3-946.5,614.2-946.1z M614.5-947.8l-9.8,0.3l0-1.3l10.1-0.4C614.7-948.6,614.6-948.2,614.5-947.8z M614.8-949.4
				l-10.2,0.4l0-1.3l10.4-0.4C615-950.3,614.9-949.9,614.8-949.4z M615.1-951.1l-10.5,0.4l0-1.3l10.7-0.5
				C615.2-952,615.2-951.5,615.1-951.1z M615.3-952.8l-10.8,0.5l-0.1-1.3l11-0.5C615.5-953.6,615.4-953.2,615.3-952.8z M615.6-954.4
				l-11.1,0.5l-0.1-1.3l11.3-0.6C615.7-955.3,615.6-954.9,615.6-954.4z M615.7-956.1l-11.3,0.6l-0.1-1.3l11.5-0.6
				C615.8-957,615.8-956.6,615.7-956.1z M616.6-946.2l-0.7,0c0.1-0.5,0.2-0.9,0.3-1.4l0.7,0C616.8-947.2,616.7-946.7,616.6-946.2z
				 M618.8-946.2h-1.9c0.1-0.5,0.2-0.9,0.3-1.4l1.9-0.1C619-947.2,618.9-946.7,618.8-946.2z M619.2-948l-1.9,0.1
				c0.1-0.5,0.2-0.9,0.3-1.4l1.9,0C619.3-949,619.3-948.5,619.2-948z M619.5-949.8l-1.9,0c0.1-0.5,0.2-0.9,0.3-1.4l1.8,0
				C619.6-950.7,619.6-950.3,619.5-949.8z M619.8-951.5l-1.8,0c0.1-0.5,0.2-1,0.2-1.5l1.8,0C619.9-952.5,619.8-952,619.8-951.5z
				 M620-953.3l-1.8,0c0.1-0.5,0.1-1,0.2-1.4l1.8,0.1C620.1-954.2,620.1-953.8,620-953.3z M620.2-955l-1.8-0.1
				c0.1-0.5,0.1-0.9,0.2-1.4l1.7,0.2C620.3-955.9,620.3-955.5,620.2-955z M620.4-956.7l-1.7-0.2c0.1-0.4,0.1-0.9,0.1-1.3l1.7,0.2
				C620.5-957.6,620.4-957.1,620.4-956.7z M620.6-958.4l-1.7-0.2c0-0.5,0.1-0.9,0.1-1.4l1.7,0.2
				C620.6-959.3,620.6-958.9,620.6-958.4z M620.7-960.2l-1.7-0.2c0-0.5,0.1-0.9,0.1-1.4l1.7,0.2C620.7-961,620.7-960.6,620.7-960.2z
				 M620.8-961.8l-1.7-0.2c0-0.5,0.1-0.9,0.1-1.4l1.7,0.3C620.8-962.7,620.8-962.3,620.8-961.8z M620.8-963.5l-1.7-0.3
				c0-0.4,0-0.9,0-1.3l1.6,0.1C620.9-964.5,620.9-964,620.8-963.5z M620.9-965.3l-1.6-0.1c0-0.5,0-0.9,0-1.3l1.6,0.3
				C620.9-966.1,620.9-965.7,620.9-965.3z M620.9-966.9l-1.6-0.3c0-0.5,0-0.9,0-1.4l1.6,0.3C620.8-967.8,620.9-967.4,620.9-966.9z
				 M620.8-968.6l-1.6-0.3c0-0.4,0-0.9-0.1-1.3l1.6,0.3C620.8-969.5,620.8-969.1,620.8-968.6z M620.6-971.5c0,0.4,0.1,0.8,0.1,1.2
				l-1.6-0.3c0-0.4-0.1-0.8-0.1-1.2L620.6-971.5z M620.6-971.9l-1.6-0.3c-0.1-0.5-0.1-0.9-0.1-1.4l1.7,0.4
				C620.5-972.7,620.6-972.3,620.6-971.9z M620.4-973.5l-1.7-0.4c-0.1-0.4-0.1-0.9-0.2-1.3l1.7,0.4
				C620.3-974.4,620.4-974,620.4-973.5z M620.2-975.2l-1.7-0.4c-0.1-0.4-0.1-0.8-0.2-1.2l1.7,0.4C620.1-976,620.2-975.6,620.2-975.2
				z M620-976.8l-1.7-0.4c-0.1-0.4-0.2-0.9-0.2-1.3l1.7,0.5C619.8-977.6,619.9-977.2,620-976.8z M619.4-979.6
				c0.1,0.4,0.2,0.8,0.3,1.2l-1.7-0.5c-0.1-0.4-0.2-0.8-0.3-1.2L619.4-979.6z M619.3-979.9l-1.7-0.5c-0.1-0.4-0.2-0.9-0.3-1.3
				l1.7,0.4C619.1-980.9,619.2-980.4,619.3-979.9z M618.5-982.8c0.1,0.4,0.2,0.7,0.3,1.1l-1.7-0.4c-0.1-0.4-0.2-0.8-0.3-1.2
				L618.5-982.8z M618.4-983.3l-1.7-0.4c-0.1-0.4-0.2-0.8-0.4-1.1l1.8,0.5C618.2-984,618.3-983.6,618.4-983.3z M617.9-984.7
				l-1.8-0.5c-0.2-0.4-0.3-0.8-0.4-1.2l1.8,0.6C617.7-985.5,617.8-985.1,617.9-984.7z M617.3-986.3l-1.8-0.6
				c-0.2-0.4-0.3-0.8-0.5-1.1l1.8,0.6C617-987,617.2-986.7,617.3-986.3z M616.7-987.8l-1.8-0.6c-0.2-0.4-0.3-0.8-0.5-1.1l1.8,0.6
				C616.4-988.6,616.5-988.2,616.7-987.8z M616-989.4l-1.8-0.6c-0.2-0.4-0.4-0.7-0.6-1l1.8,0.6C615.6-990.1,615.8-989.8,616-989.4z
				 M614.6-991.8c0.1,0.2,0.3,0.5,0.5,0.8l-1.8-0.6c-0.1-0.2-0.2-0.4-0.3-0.6l-0.1-0.2h0c0,0,0-0.1,0-0.1L614.6-991.8z M612.9-985.9
				l-9.7,1.2l-0.1-1.3l9.4-1.2C612.6-986.7,612.7-986.3,612.9-985.9z M612.3-987.5l-9.2,1.2l0-0.8l9-1.2
				C612.1-988,612.2-987.8,612.3-987.5z M611.5-989.5l-8.5,1.1l0-0.8l8.1-1.1C611.2-990.1,611.3-989.8,611.5-989.5z M610.9-990.7
				l-8,1.1l-0.1-1.3l7.5-1C610.5-991.5,610.7-991.1,610.9-990.7z M610.2-992.1l-7.3,0.9l-0.6-11.9
				C602.2-1003.1,606.3-999.3,610.2-992.1z"/>
			<path class="st4" d="M464.3-984.8l-3-1.7c0,0-1.4,1.9-1.6,2.2c-0.3-0.3-0.8-0.9-1-1c-0.2-0.1-0.6-0.6-0.9-1.1
				c-0.3-1.6-0.9-3-1.2-3.4c-0.2-0.4-0.5-0.5-1.1-0.7c-0.9-0.7-1.2-2.6-1.3-2.9c0.1,0,0.3-0.1,0.4-0.3c0.1-0.2-0.2-0.8-0.3-1.2
				c-0.1-0.4-0.1-0.6-0.1-0.9c0.2,0,0.3-0.3,0.2-0.5c-0.1-0.2-0.1-0.2-0.2-0.5c0.1-0.1,0.2-0.8,0.2-0.8l3.7-0.4c0,0-3.4-0.2-3.7-0.2
				c0-0.3,0-0.6,0-0.6l3.1-1.3c0,0-2.9,0.7-3.4,0.8c-0.2-0.2-0.6-0.6-0.6-0.6l1.9-2.3c0,0-2.3,1.8-2.5,1.9c-0.4-0.2-1.1-0.3-1.1-0.3
				l-0.5-3l-0.2,3c-0.6,0-1.2,0.3-1.2,0.3l-2.8-1.9c0,0,1.9,2.2,2.3,2.4c-0.1,0.1-0.6,0.4-0.6,0.4l-2.7,0.1c0,0-0.1-0.2-0.1-1.2
				c0-1.1-0.8-3.3-0.9-4c-0.2-0.7-0.2-1.4-0.2-1.9c0.1-0.5,0-0.8,0-1.8c0-1-0.8-1.9-0.8-1.9s0-0.3,0.1-0.7c0.3-0.2,0.4-0.5,0.3-0.8
				c0.7,0,1.3-0.3,1.3-0.7c0-0.3-0.4-0.6-0.4-0.6l0-0.5c0,0,0.4,0.1,0.4-0.2c0-0.4-1.7-0.6-1.7-0.6s0-0.4,0-0.6
				c0.3-0.2,0.5-0.6,0.5-0.9c0.2-0.4,0.3-1.7,0.1-1.9c-0.1,0.1-0.1,0.2-0.3,0.7c0.1-0.3-0.3-0.7-0.5-0.8c-0.3,0.3-0.4,0.4-0.4,0.8
				c0,0.4-0.4,0.4-0.6,0.2c-0.1,0.3,0.2,0.6-0.6,1c-0.7,0.5,0,0.9,0,0.9v0.6c-0.7,0-1.6,0.3-1.6,0.5c0,0.2,0.3,0.6,0.4,0.7
				c-0.1,0.1-0.4,0.3-0.4,0.7c0,0.4,0.6,0.7,0.9,0.7c0,0.7,0.7,1.4,0.7,1.4s-0.1,0.2-0.2,0.2c-0.2,0.1-0.2,0.5-0.2,0.8
				c-0.1,0.3,0.1,0.6,0.1,0.6s0,0.3,0,0.6c0,0.4,0.4,0.8,0.4,0.8s0,0,0,0.8s0.2,0.5,0.2,1.1c0,0.5,0.4,0.8,0.4,0.8s-0.1,1.2-0.1,2.4
				c0,1.2,0.3,2.3,0.5,3c0.2,0.6,0.3,1.3,0.3,1.9c-0.4,0.7-1.1,2.1-1.4,2.8c-0.3,0.7,0,0.6,0,1.2c-0.1,0.5,0.1,0.8,0.2,0.9
				c0,0.6,0.1,0.7,0.2,0.9c0.1,0.2,0.3,0.3,0.6,0.3c0.3,0,0,0.4-0.2,0.8c-0.2,0.5,0.4,0.5,0.6,0.5c0,0.4,0.4,0.6,0.6,0.6
				c0,0.3-0.2,0.9-0.3,1.3c-0.1,0.3,0.4,0.9,0.6,0.9c-0.8,0.8-0.8,0.8-0.7,1c0.1,0.2,0.2,0.4,0.4,0.6c0,0.4,0.5,0.7,0.6,0.8
				c0,0.3,0.1,0.7,0.3,1c-0.1,0.3-0.3,1.5-0.8,2.2c-0.5,0.7-0.3,1.3-0.3,1.3s-0.2,0.6-0.3,0.9c-0.1,0.3-0.2,1,0,1.4
				c0.2,0.5,0.9,0.5,1.2,0.5c-0.1,0.6,0.1,1.6-0.1,1.9c-0.1,0.4-0.4,1-0.4,2.3c0,1.3,0.1,1.4,0.2,1.9c0.1,0.5,0.4,0.7,0.4,0.7
				s-0.1,0.6-0.1,1.2s0.1,0.8,0.1,1.3c0,0.5,0.2,1.3,0,1.8c-0.2,0.5-0.1,1.1-0.2,1.4c-0.1,0.3,0,0.7,0.1,0.8c0.1,0.2,0.1,0.6,0,0.8
				c-0.1,0.2-0.2,0.7-0.2,1c0,0.2,0.1,0.7,0,1c-0.2,0.3-0.1,1.3-0.1,1.6c0,0.3,0.2,0.9,0.2,1.2c0,0.3,0,1.9-0.1,2.2
				c-0.2,0.3,0.1,0.6,0.1,0.6s0,1,0,1.4c0,0.4,0.1,1.1,0.2,1.2c0.1,0.1,0.1,0.5-0.2,0.8c-0.3,0.3-1,0.5-1.4,0.7
				c-0.3,0.1-0.3,0.7-0.3,0.7l-0.3,0l0,1.8c0,0-0.6,0.4-0.7,0.6c0,0.4,0.4,0.8,0.4,0.8l0,2.4h18.6l0-1.8c0,0-0.2-0.6-0.4-1.1
				c-0.2-0.5-0.3-0.6-0.6-0.6c0-2.3-1.3-3-1.3-3s-0.4-5.3-0.4-6c0.8-0.5,0.7-0.9,0.7-0.9s-0.2-3.7-0.2-4.3c0.5-0.2,0.4-0.7,0.4-0.7
				s-0.1-0.9,0-1.2c0.2-0.1,0.4-0.5,0.4-0.9c-0.1-0.3-0.2-3.2-0.3-3.9c-0.1-0.7-0.6-4.1-0.6-4.1s0.3-0.3,0.5-0.5
				c1,0.1,1.2-0.7,1.4-1.3c0.2-0.6,0.4-2.5,0.4-3.4c0.9,0,1.3-0.4,1.5-0.6c0.1-0.2,1.1-1.6,1.3-2c0.2-0.4,0.2-0.7,0.1-0.7
				c-0.1-0.1-0.4-0.5-0.4-0.5l0.9-1.8L464.3-984.8z M446.2-998.3l-0.1-0.3l2.3,0.1l0,0.6c0,0-1.2,0.1-1.6,0.1
				C446.7-998,446.2-998.3,446.2-998.3z M448.2-994.6c0,0-0.1-0.1-0.3-0.1c-0.1-0.2-0.5-0.5-0.6-0.8c0.3-0.8-0.4-1.5-0.4-1.5l0-0.3
				c0,0,1.1,0.1,1.4,0.1c0.1,0.2,0.2,0.4,0.3,0.6c-0.3,0.4-0.1,1,0.1,1C448.6-995.5,448.2-994.6,448.2-994.6z"/>
			<path class="st4" d="M547.8-1022.8c-0.6,0.1-2.9,0.7-5.8,1.4l-1.3-1l0.9-0.2c0.5-0.1,0.7-0.6,0.6-1c-0.1-0.5-0.6-0.7-1-0.6
				l-1.2,0.3c-0.3,0.1-0.5,0.3-0.6,0.5c-1-1.1-4.9-5.5-5.4-6.1c-0.6-0.6-1-0.6-1.4-0.5c-0.4,0.1-0.6,0.1-0.6,0.1l4.5,7.1l0.6,2.6
				c-3.4,0.8-6.4,1.5-6.8,1.6c-0.4,0.1-1.4,0.5-2.3,1l-3.7-3.4l-0.6,0.1l0.2,0.6l2.2,3.8c-0.4,0.3-0.6,0.5-0.6,0.6
				c0,0.1,0.3,0.2,0.8,0.2l-0.2,4.3l0.1,0.6l0.6-0.1l1.8-4.7c1.1,0,2.1-0.1,2.5-0.2c0.4-0.1,3.4-0.8,6.8-1.6l0.6,2.6l-0.8,8.4
				c0,0,0.1-0.1,0.5-0.2c0.4-0.1,0.8-0.3,1-1.1c0.2-0.7,1.6-6.4,2-7.9c0.2,0.2,0.5,0.3,0.8,0.2l1.2-0.3c0.5-0.1,0.7-0.6,0.6-1
				c-0.1-0.5-0.6-0.7-1-0.6l-0.9,0.2l0.7-1.5c2.8-0.7,5.2-1.3,5.8-1.4c1.4-0.3,3.9-1.7,3.8-2.2
				C552.1-1022.9,549.3-1023.1,547.8-1022.8z"/>
		</g>
	</g>
</g>
<g>
	
		<image style="overflow:visible;opacity:0.7;" width="100" height="100" xlink:href="17C5A829ECEF28EC.png"  transform="matrix(1 0 0 1 553 -1045)">
	</image>
	<g>
		<g>
			<rect x="613" y="-1015" class="st5" width="10" height="10"/>
			<rect x="598" y="-1015" class="st5" width="10" height="10"/>
			<rect x="583" y="-1015" class="st5" width="10" height="10"/>
			<rect x="613" y="-1000" class="st5" width="10" height="10"/>
			<rect x="598" y="-1000" class="st6" width="10" height="10"/>
			<rect x="583" y="-1000" class="st5" width="10" height="10"/>
			<rect x="613" y="-985" class="st5" width="10" height="10"/>
			<rect x="598" y="-985" class="st5" width="10" height="10"/>
			<rect x="583" y="-985" class="st5" width="10" height="10"/>
		</g>
	</g>
</g>
<rect x="-597" y="-915" style="fill:none;" width="466" height="29"/>
<text id="SCR_Title" transform="matrix(1 0 0 1 -597 -897.9121)" style="font-family:'AkzidenzGrotesk-Black'; font-size:24px;">Why are travellers targeted?</text>
<rect x="-597" y="-1001" style="fill:none;" width="222.8" height="28.3"/>
<text id="LOGO" transform="matrix(1 0 0 1 -597 -975.3683)" style="font-family:'AkzidenzGrotesk-Black'; font-size:36px;">Introduction</text>
<rect x="-627" y="-865" class="st5" width="1280" height="1"/>
<rect x="-627" y="-145" class="st5" width="1280" height="1"/>
<rect x="-627" y="-868.5" class="st7" width="1280" height="6"/>
<rect x="-627" y="-147" class="st7" width="1280" height="6"/>
<rect x="-374" y="0" class="st8" width="138" height="198"/>
<g id="j5qCGu_00000076593226491542908580000018359644730626627211_">
	
		<image style="overflow:visible;" width="1211" height="625" id="j5qCGu" xlink:href="17C5A829ECEF28ED.png"  transform="matrix(1.057 0 0 1.144 -627 -862)">
	</image>
</g>
<g>
	<g>
		<path class="st5" d="M-344.5,89c6.3,14.7,21.1,25.1,38.2,24.9c22.4-0.2,40.7-18.6,40.7-41c0.1-22.7-18.4-41.2-41.1-41.2
			c-10.8,0-21,4.2-28.8,11.8l5,5c0.9,0.9,0.6,1.7-0.6,1.8l-15.6,1.5c-1.2,0.1-2.1-0.8-2-2l1.5-15.6c0.1-1.2,0.9-1.5,1.8-0.6l4.9,4.9
			c9.1-8.9,21.1-13.8,33.8-13.8c12.9,0,25,5,34.1,14.1c9.1,9.1,14.1,21.2,14.1,34.1c0,12.7-5,24.9-14,34
			c-9.4,9.4-21.9,14.5-35.2,14.3c-12.5-0.2-24.4-5.3-33.2-14.2c-4.4-4.4-7.8-9.5-10.2-15.1c-0.7-1.7-0.1-3.6,1.5-4.5l0,0
			C-347.7,86.2-345.3,87-344.5,89z"/>
	</g>
</g>
<g>
	<g>
		<path d="M-85.2,103.3l-48.5,28c-3.2,1.9-7.2-0.5-7.2-4.2V71.1c0-3.7,4-6,7.2-4.2l48.5,28C-82,96.8-82,101.5-85.2,103.3z"/>
		<path d="M-43.1,139.8c1-2,2-4,2.9-6.1c0.1-0.2,0.2-0.4,0.2-0.7c4.4-10.7,6.7-22.2,6.7-33.9c0-23.7-9.2-46-26-62.8
			c-0.2-0.2-0.4-0.4-0.6-0.6l0.2-0.2C-76.3,19-98.4,10-121.9,10c-23.7,0-46,9.2-62.8,26c-16.8,16.8-26,39.1-26,62.8
			c0,11.5,2.2,22.8,6.5,33.3c0.1,0.7,0.2,1.3,0.5,2c4.4,10.2,10.7,19.6,18.8,27.8c16.2,16.3,38.2,25.7,61.2,26.1
			c24.5,0.5,47.6-8.9,64.9-26.2c5.9-6,10.9-12.7,14.8-19.9c0.1-0.3,0.3-0.5,0.4-0.8C-43.5,140.7-43.3,140.3-43.1,139.8z
			 M-175.1,45.1L-175.1,45.1c14.3-13.9,33.1-21.6,53.1-21.6c41.8,0,75.8,34.1,75.7,75.9c0,11.6-2.7,22.6-7.4,32.4
			c-0.1,0.1-0.1,0.2-0.2,0.3c-0.4,0.8-0.8,1.5-1.2,2.3c-0.3,0.5-0.5,0.9-0.8,1.4c-0.1,0.2-0.3,0.5-0.4,0.7
			c-13.2,22.9-38,38.2-66.3,38c-41.3-0.4-74.9-34.2-75-75.5C-197.6,77.9-189,58.8-175.1,45.1z"/>
	</g>
</g>
<g>
	<text transform="matrix(1 0 0 1 -348.1152 163.3594)" class="st5" style="font-family:'AkzidenzGrotesk-Black'; font-size:24px;">Replay </text>
</g>
<rect x="-532" y="0" class="st9" width="138" height="198"/>
<g>
	<g>
		<path class="st5" d="M-502.5,89c6.3,14.7,21.1,25.1,38.2,24.9c22.4-0.2,40.7-18.6,40.7-41c0.1-22.7-18.4-41.2-41.1-41.2
			c-10.8,0-21,4.2-28.8,11.8l5,5c0.9,0.9,0.6,1.7-0.6,1.8l-15.6,1.5c-1.2,0.1-2.1-0.8-2-2l1.5-15.6c0.1-1.2,0.9-1.5,1.8-0.6l4.9,4.9
			c9.1-8.9,21.1-13.8,33.8-13.8c12.9,0,25,5,34.1,14.1c9.1,9.1,14.1,21.2,14.1,34.1c0,12.7-5,24.9-14,34
			c-9.4,9.4-21.9,14.5-35.2,14.3c-12.5-0.2-24.4-5.3-33.2-14.2c-4.4-4.4-7.8-9.5-10.2-15.1c-0.7-1.7-0.1-3.6,1.5-4.5l0,0
			C-505.7,86.2-503.3,87-502.5,89z"/>
	</g>
</g>
<g>
	<text transform="matrix(1 0 0 1 -506.1152 163.3594)" class="st5" style="font-family:'AkzidenzGrotesk-Black'; font-size:24px;">Replay </text>
</g>
<g>
	<g>
		<path d="M174.9,139.8c1-2,2-4,2.9-6.1c0.1-0.2,0.2-0.4,0.2-0.7c4.4-10.7,6.7-22.2,6.7-33.9c0-23.7-9.2-46-26-62.8
			c-0.2-0.2-0.4-0.4-0.6-0.6l0.2-0.2C141.7,19,119.6,10,96.1,10c-23.7,0-46,9.2-62.8,26c-16.8,16.8-26,39.1-26,62.8
			c0,11.5,2.2,22.8,6.5,33.3c0.1,0.7,0.2,1.3,0.5,2c4.4,10.2,10.7,19.6,18.8,27.8c16.2,16.3,38.2,25.7,61.2,26.1
			c24.5,0.5,47.6-8.9,64.9-26.2c5.9-6,10.9-12.7,14.8-19.9c0.1-0.3,0.3-0.5,0.4-0.8C174.5,140.7,174.7,140.3,174.9,139.8z
			 M42.9,45.1L42.9,45.1C57.2,31.2,76,23.5,95.9,23.5c41.8,0,75.8,34.1,75.7,75.9c0,11.6-2.7,22.6-7.4,32.4
			c-0.1,0.1-0.1,0.2-0.2,0.3c-0.4,0.8-0.8,1.5-1.2,2.3c-0.3,0.5-0.5,0.9-0.8,1.4c-0.1,0.2-0.3,0.5-0.4,0.7
			c-13.2,22.9-38,38.2-66.3,38c-41.3-0.4-74.9-34.2-75-75.5C20.4,77.9,29,58.8,42.9,45.1z"/>
		<g>
			<path d="M83.5,141.5L83.5,141.5c-4.1,0-7.5-3.4-7.5-7.5V64c0-4.1,3.4-7.5,7.5-7.5h0c4.1,0,7.5,3.4,7.5,7.5v70
				C91,138.1,87.6,141.5,83.5,141.5z"/>
			<path d="M114.5,141.5L114.5,141.5c-4.1,0-7.5-3.4-7.5-7.5V64c0-4.1,3.4-7.5,7.5-7.5h0c4.1,0,7.5,3.4,7.5,7.5v70
				C122,138.1,118.6,141.5,114.5,141.5z"/>
		</g>
	</g>
</g>
<g>
	<g>
		<path d="M241.4,129.9c12.1,28.2,40.3,47.9,72.9,47.6c42.8-0.4,77.7-35.5,77.8-78.3c0.1-43.4-35.2-78.7-78.5-78.7
			c-20.7,0-40.2,8-55,22.5l9.5,9.5c1.6,1.6,1.1,3.2-1.2,3.4l-29.8,2.9c-2.3,0.2-4-1.5-3.8-3.8l2.9-29.8c0.2-2.3,1.8-2.9,3.4-1.2
			l9.4,9.4c17.3-17.1,40.3-26.5,64.6-26.5c24.6,0,47.8,9.6,65.2,27c17.4,17.4,27,40.6,27,65.2c0,24.4-9.6,47.6-26.7,64.9
			c-17.9,18-41.9,27.7-67.3,27.2c-23.8-0.5-46.6-10.2-63.5-27.1c-8.4-8.4-15-18.2-19.5-28.8c-1.4-3.2-0.1-6.9,2.9-8.6l0,0
			C235.2,124.6,239.8,126.1,241.4,129.9z"/>
	</g>
</g>
<text transform="matrix(1 0 0 1 258.6201 120.8271)" style="font-family:'AkzidenzGrotesk-Black'; font-size:70px;">10s</text>
</svg>
