<svg enable-background="new 0 0 198 198" viewBox="0 0 198 198" xml:space="preserve" xmlns="http://www.w3.org/2000/svg" xmlns:xlink="http://www.w3.org/1999/xlink"><path d="m-409-1035h1280v945h-1280z" fill="#cacaca"/><path d="m-439-70h1340v10h-1340z" fill="#ccc"/><path d="m-439-1065h1340v10h-1340z" fill="#ccc"/><image height="100" opacity=".7" overflow="visible" transform="translate(771 -1045)" width="100" xlink:href="A2F856DD8AAEF9D8.png"/><g fill="#fff"><path d="m831-1015h10v10h-10z"/><path d="m816-1015h10v10h-10z"/><path d="m801-1015h10v10h-10z"/><path d="m831-1000h10v10h-10z"/><path d="m816-1000h10v10h-10z" opacity=".5"/><path d="m801-1000h10v10h-10z"/><path d="m831-985h10v10h-10z"/><path d="m816-985h10v10h-10z"/><path d="m801-985h10v10h-10z"/></g><path d="m-379-915h466v29h-466z" fill="none"/><text font-family="AkzidenzGrotesk-Black" font-size="24" transform="translate(-379 -897.9121)">Why are travellers targeted?</text><path d="m-379-1001h222.8v28.3h-222.8z" fill="none"/><text font-family="AkzidenzGrotesk-Black" font-size="36" transform="translate(-379 -975.3683)">Introduction</text><path d="m-409-865h1280v1h-1280z" fill="#fff"/><path d="m-409-145h1280v1h-1280z" fill="#fff"/><path d="m-409-868.5h1280v6h-1280z" fill="#e25d22"/><path d="m-409-147h1280v6h-1280z" fill="#e25d22"/><path d="m-156 0h138v198h-138z" opacity=".5"/><image height="625" overflow="visible" transform="matrix(1.057 0 0 1.144 -409 -862)" width="1211" xlink:href="A2F856DD8AAEF9D9.png"/><path d="m-126.5 89c6.3 14.7 21.1 25.1 38.2 24.9 22.4-.2 40.7-18.6 40.7-41 .1-22.7-18.4-41.2-41.1-41.2-10.8 0-21 4.2-28.8 11.8l5 5c.9.9.6 1.7-.6 1.8l-15.6 1.5c-1.2.1-2.1-.8-2-2l1.5-15.6c.1-1.2.9-1.5 1.8-.6l4.9 4.9c9.1-8.9 21.1-13.8 33.8-13.8 12.9 0 25 5 34.1 14.1s14.1 21.2 14.1 34.1c0 12.7-5 24.9-14 34-9.4 9.4-21.9 14.5-35.2 14.3-12.5-.2-24.4-5.3-33.2-14.2-4.4-4.4-7.8-9.5-10.2-15.1-.7-1.7-.1-3.6 1.5-4.5 1.9-1.2 4.3-.4 5.1 1.6z" fill="#fff"/><path d="m132.8 103.3-48.5 28c-3.2 1.9-7.2-.5-7.2-4.2v-56c0-3.7 4-6 7.2-4.2l48.5 28c3.2 1.9 3.2 6.6 0 8.4z"/><path d="m174.9 139.8c1-2 2-4 2.9-6.1.1-.2.2-.4.2-.7 4.4-10.7 6.7-22.2 6.7-33.9 0-23.7-9.2-46-26-62.8-.2-.2-.4-.4-.6-.6l.2-.2c-16.6-16.5-38.7-25.5-62.2-25.5-23.7 0-46 9.2-62.8 26s-26 39.1-26 62.8c0 11.5 2.2 22.8 6.5 33.3.1.7.2 1.3.5 2 4.4 10.2 10.7 19.6 18.8 27.8 16.2 16.3 38.2 25.7 61.2 26.1 24.5.5 47.6-8.9 64.9-26.2 5.9-6 10.9-12.7 14.8-19.9.1-.3.3-.5.4-.8.1-.4.3-.8.5-1.3zm-132-94.7c14.3-13.9 33.1-21.6 53-21.6 41.8 0 75.8 34.1 75.7 75.9 0 11.6-2.7 22.6-7.4 32.4-.1.1-.1.2-.2.3-.4.8-.8 1.5-1.2 2.3-.3.5-.5.9-.8 1.4-.1.2-.3.5-.4.7-13.2 22.9-38 38.2-66.3 38-41.3-.4-74.9-34.2-75-75.5.1-21.1 8.7-40.2 22.6-53.9z"/><text fill="#fff" font-family="AkzidenzGrotesk-Black" font-size="24" transform="translate(-130.1152 163.3594)">Replay </text><path d="m-314 0h138v198h-138z" opacity=".7"/><path d="m-284.5 89c6.3 14.7 21.1 25.1 38.2 24.9 22.4-.2 40.7-18.6 40.7-41 .1-22.7-18.4-41.2-41.1-41.2-10.8 0-21 4.2-28.8 11.8l5 5c.9.9.6 1.7-.6 1.8l-15.6 1.5c-1.2.1-2.1-.8-2-2l1.5-15.6c.1-1.2.9-1.5 1.8-.6l4.9 4.9c9.1-8.9 21.1-13.8 33.8-13.8 12.9 0 25 5 34.1 14.1s14.1 21.2 14.1 34.1c0 12.7-5 24.9-14 34-9.4 9.4-21.9 14.5-35.2 14.3-12.5-.2-24.4-5.3-33.2-14.2-4.4-4.4-7.8-9.5-10.2-15.1-.7-1.7-.1-3.6 1.5-4.5 1.9-1.2 4.3-.4 5.1 1.6z" fill="#fff"/><text fill="#fff" font-family="AkzidenzGrotesk-Black" font-size="24" transform="translate(-288.1152 163.3594)">Replay </text><path d="m392.9 139.8c1-2 2-4 2.9-6.1.1-.2.2-.4.2-.7 4.4-10.7 6.7-22.2 6.7-33.9 0-23.7-9.2-46-26-62.8-.2-.2-.4-.4-.6-.6l.2-.2c-16.6-16.5-38.7-25.5-62.2-25.5-23.7 0-46 9.2-62.8 26s-26 39.1-26 62.8c0 11.5 2.2 22.8 6.5 33.3.1.7.2 1.3.5 2 4.4 10.2 10.7 19.6 18.8 27.8 16.2 16.3 38.2 25.7 61.2 26.1 24.5.5 47.6-8.9 64.9-26.2 5.9-6 10.9-12.7 14.8-19.9.1-.3.3-.5.4-.8.1-.4.3-.8.5-1.3zm-132-94.7c14.3-13.9 33.1-21.6 53.1-21.6 41.8 0 75.8 34.1 75.7 75.9 0 11.6-2.7 22.6-7.4 32.4-.1.1-.1.2-.2.3-.4.8-.8 1.5-1.2 2.3-.3.5-.5.9-.8 1.4-.1.2-.3.5-.4.7-13.2 22.9-38 38.2-66.3 38-41.3-.4-74.9-34.2-75-75.5 0-21.1 8.6-40.2 22.5-53.9z"/><path d="m301.5 141.5c-4.1 0-7.5-3.4-7.5-7.5v-70c0-4.1 3.4-7.5 7.5-7.5 4.1 0 7.5 3.4 7.5 7.5v70c0 4.1-3.4 7.5-7.5 7.5z"/><path d="m332.5 141.5c-4.1 0-7.5-3.4-7.5-7.5v-70c0-4.1 3.4-7.5 7.5-7.5 4.1 0 7.5 3.4 7.5 7.5v70c0 4.1-3.4 7.5-7.5 7.5z"/><path d="m459.4 129.9c12.1 28.2 40.3 47.9 72.9 47.6 42.8-.4 77.7-35.5 77.8-78.3.1-43.4-35.2-78.7-78.5-78.7-20.7 0-40.2 8-55 22.5l9.5 9.5c1.6 1.6 1.1 3.2-1.2 3.4l-29.8 2.9c-2.3.2-4-1.5-3.8-3.8l2.9-29.8c.2-2.3 1.8-2.9 3.4-1.2l9.4 9.4c17.3-17.1 40.3-26.5 64.6-26.5 24.6 0 47.8 9.6 65.2 27s27 40.6 27 65.2c0 24.4-9.6 47.6-26.7 64.9-17.9 18-41.9 27.7-67.3 27.2-23.8-.5-46.6-10.2-63.5-27.1-8.4-8.4-15-18.2-19.5-28.8-1.4-3.2-.1-6.9 2.9-8.6 3.5-2.1 8.1-.6 9.7 3.2z"/><text font-family="AkzidenzGrotesk-Black" font-size="70" transform="translate(476.6201 120.8271)">10s</text></svg>