<?xml version="1.0" encoding="utf-8"?>
<!-- Generator: Adobe Illustrator 26.3.1, SVG Export Plug-In . SVG Version: 6.00 Build 0)  -->
<svg version="1.1" id="INTRODUCTION" xmlns="http://www.w3.org/2000/svg" xmlns:xlink="http://www.w3.org/1999/xlink" x="0px"
	 y="0px" viewBox="0 0 500 500" style="enable-background:new 0 0 500 500;" xml:space="preserve">
<style type="text/css">
	.st0{opacity:0.5;}
	.st1{fill:#FFFFFF;}
	.st2{fill-rule:evenodd;clip-rule:evenodd;}
	.st3{fill-rule:evenodd;clip-rule:evenodd;fill:#FFFFFF;}
</style>
<g id="vid_icon_00000093863613162653021210000002642130986051473294_">
	<g class="st0">
		<path d="M332.3,380H47c-12.1,0-22-9.8-22-22V182.4c0-12.1,9.8-22,22-22h285.4c12.1,0,22,9.8,22,22V358
			C354.3,370.1,344.4,380,332.3,380z"/>
		<polygon points="475,376.3 325,270.2 475,164.2 		"/>
	</g>
	<g>
		<g>
			<path class="st1" d="M332.3,359.8H47c-12.1,0-22-9.8-22-22V162.2c0-12.1,9.8-22,22-22h285.4c12.1,0,22,9.8,22,22v175.6
				C354.3,349.9,344.4,359.8,332.3,359.8z"/>
			<polygon class="st1" points="475,356.1 325,250 475,143.9 			"/>
		</g>
	</g>
</g>
</svg>
